<svg width="22" height="19" viewBox="0 0 22 19" fill="none" xmlns="http://www.w3.org/2000/svg">
<path d="M21.7013 12.6869C21.7013 16.0059 19.0107 18.6965 15.6917 18.6965L6.6773 18.6965C5.75535 18.6965 5.00797 17.9491 5.00797 17.0272L5.00797 5.67573C5.00797 3.83184 6.50274 2.33707 8.34663 2.33707L20.032 2.33707C20.9539 2.33707 21.7013 3.08446 21.7013 4.0064L21.7013 12.6869Z" fill="#E8F5E9"/>
<path d="M9.45231 7.89414C9.37192 7.89414 9.29728 7.87204 9.23097 7.83648V7.83743C9.23097 7.96391 9.18181 8.08269 9.09261 8.17165C9.00341 8.26085 8.88472 8.31001 8.75839 8.31001C8.67682 8.31001 8.60123 8.28736 8.53421 8.25086C8.52744 8.36657 8.48119 8.47472 8.39868 8.55732C8.30948 8.64652 8.19079 8.69568 8.06437 8.69568C7.81321 8.69568 7.60925 8.49825 7.59455 8.25078C7.51683 8.29279 7.42897 8.31481 7.33835 8.30899C7.09127 8.29279 6.89778 8.07931 6.89778 7.82287V5.69726L6.65574 6.11659C6.56356 6.27697 6.39099 6.37655 6.20519 6.37655C6.11465 6.37655 6.02522 6.35279 5.94601 6.30741C5.84737 6.25022 5.77682 6.15843 5.74748 6.04861C5.71798 5.93873 5.73324 5.82381 5.79027 5.72532C5.79035 5.72532 6.5822 4.35406 6.6305 4.26983C6.63624 4.25717 6.65261 4.22044 6.66653 4.18913C6.67982 4.15924 6.69123 4.12856 6.70216 4.09773C6.94096 3.42356 7.53225 3.00478 8.24536 3.00478C9.1714 3.00478 9.92479 3.82172 9.92479 4.82589L9.92487 7.42148C9.92487 7.54781 9.87578 7.6665 9.78666 7.75579C9.69746 7.84499 9.57877 7.89415 9.4523 7.89415L9.45231 7.89414ZM8.24537 3.2559C7.63262 3.2559 7.14423 3.602 6.93885 4.18171C6.92572 4.21852 6.91203 4.25533 6.89606 4.2912C6.84973 4.39511 6.84973 4.39511 6.83668 4.41006L6.83495 4.40856C6.77029 4.53056 6.57821 4.8632 6.0077 5.851C5.98426 5.89151 5.97804 5.93855 5.99 5.98354C6.00211 6.02853 6.03114 6.06644 6.07133 6.08965C6.19608 6.16131 6.36694 6.11505 6.43804 5.99117L6.91463 5.16603C6.94311 5.11687 7.00068 5.09273 7.0559 5.10767C7.1108 5.12238 7.14895 5.17217 7.14895 5.22896V7.82295C7.14895 7.94534 7.2413 8.05097 7.35481 8.05844C7.42025 8.0619 7.48129 8.03996 7.52715 7.99418C7.56884 7.95249 7.5918 7.89696 7.5918 7.83757V6.14107C7.5918 6.07169 7.64805 6.01545 7.71742 6.01545C7.7868 6.01545 7.84304 6.07162 7.84304 6.14107L7.84296 8.22319C7.84296 8.34526 7.94231 8.44461 8.06438 8.44461C8.12369 8.44461 8.17938 8.42164 8.22115 8.37995C8.26284 8.33818 8.28581 8.28249 8.28581 8.22318V6.14107C8.28581 6.07169 8.34197 6.01545 8.41142 6.01545C8.4808 6.01545 8.53704 6.07161 8.53704 6.14107L8.53696 7.81806V7.83756C8.53696 7.95956 8.63631 8.0589 8.75846 8.0589C8.81769 8.0589 8.87323 8.03586 8.91523 7.99401C8.95692 7.9524 8.97989 7.89687 8.97989 7.83748V6.14098C8.97989 6.0716 9.03605 6.01536 9.1055 6.01536C9.17488 6.01536 9.23112 6.07153 9.23112 6.14098L9.23096 7.42154C9.23096 7.5437 9.33031 7.64304 9.45231 7.64304C9.51169 7.64304 9.56722 7.62 9.60891 7.57839C9.65076 7.53654 9.67365 7.48085 9.67365 7.42154L9.67373 4.82595C9.67373 3.96032 9.03298 3.25592 8.24536 3.25592L8.24537 3.2559Z" fill="#103E13"/>
<path d="M4.5169 9.69812L6.33971 8.6046C6.55948 8.47261 6.84226 8.5287 6.98322 8.73234C7.03466 8.80652 7.06093 8.89297 7.06502 8.98099C7.13298 8.94552 7.20692 8.92624 7.28219 8.92624C7.32074 8.92624 7.35944 8.93104 7.39766 8.94056C7.52013 8.97116 7.62333 9.04769 7.68823 9.15592C7.75321 9.26431 7.77216 9.39133 7.74156 9.51366C7.71333 9.62685 7.6445 9.72212 7.54877 9.78748C7.61571 9.82697 7.67345 9.88085 7.71451 9.94944C7.77948 10.0578 7.79843 10.1848 7.76791 10.3073C7.73732 10.4296 7.66078 10.5328 7.55239 10.5978L7.55176 10.5982C7.61752 10.6376 7.67423 10.691 7.71482 10.7585C7.77987 10.8669 7.79883 10.9939 7.76823 11.1164C7.73756 11.2388 7.66102 11.342 7.55279 11.407L5.3271 12.7422C4.91171 12.9913 4.43149 13.0773 3.97512 12.9841C3.51466 12.89 3.13331 12.6253 2.90144 12.2388C2.53449 11.6272 2.58948 10.9047 3.04468 10.3532C3.06552 10.328 3.08605 10.3024 3.10469 10.2758C3.12444 10.2477 3.14748 10.2147 3.15535 10.2034C3.20246 10.1192 3.97128 8.73402 3.9712 8.73418C4.04883 8.59409 4.19435 8.51479 4.34443 8.51487C4.41444 8.51487 4.48546 8.5321 4.55099 8.56844C4.63012 8.61264 4.69659 8.67706 4.74307 8.7547C4.83864 8.91399 4.84203 9.11331 4.75204 9.27463L4.5169 9.69812ZM4.52783 8.88384C4.50345 8.84317 4.46994 8.81076 4.42896 8.78779C4.34424 8.74091 4.23758 8.77143 4.19094 8.85583C3.64081 9.84693 3.45328 10.1847 3.38091 10.3049L3.38256 10.3053C3.37651 10.3254 3.37651 10.3254 3.31028 10.42C3.28778 10.452 3.26332 10.4828 3.23838 10.5131C2.84697 10.9873 2.80152 11.5841 3.1167 12.1096C3.31193 12.4351 3.63459 12.6582 4.02528 12.738C4.42022 12.8183 4.83648 12.7436 5.19777 12.5268L7.42366 11.1915C7.47447 11.1611 7.51034 11.1127 7.52465 11.0554C7.53897 10.9981 7.53008 10.9386 7.49956 10.8877C7.43679 10.7831 7.30048 10.7488 7.19586 10.8118L6.0978 11.4705C6.03833 11.5062 5.96109 11.487 5.92546 11.4275C5.88975 11.368 5.90902 11.2909 5.96848 11.2552L7.06663 10.5964L7.42327 10.3824C7.47408 10.3519 7.51003 10.3036 7.52434 10.2464C7.53866 10.189 7.52977 10.1294 7.49925 10.0787C7.4364 9.97398 7.30009 9.93992 7.19555 10.0027L5.74077 10.8754C5.68115 10.9112 5.60414 10.8918 5.56843 10.8324C5.53272 10.7729 5.55207 10.6957 5.61145 10.66L7.39692 9.58896C7.44773 9.55844 7.4836 9.51014 7.49791 9.4528C7.51223 9.39553 7.50334 9.33599 7.4729 9.28518C7.44246 9.23444 7.39408 9.19858 7.33674 9.18426C7.27909 9.16994 7.21978 9.17883 7.16912 9.2092L6.8386 9.40749C6.83852 9.40749 6.83852 9.40757 6.83844 9.40757H6.83837L5.38366 10.2803C5.32404 10.3162 5.24696 10.2968 5.21132 10.2373C5.17561 10.1778 5.19496 10.1006 5.25435 10.0649L6.70913 9.19221C6.75994 9.16169 6.79589 9.11331 6.81021 9.05613C6.82594 8.99336 6.81398 8.92917 6.7767 8.87537C6.71204 8.78185 6.57376 8.75699 6.46891 8.82L4.24463 10.1544C4.19594 10.1835 4.13357 10.1764 4.09274 10.137C4.05184 10.0975 4.04264 10.0354 4.07017 9.9858L4.53268 9.15249C4.57909 9.06919 4.57728 8.9663 4.52781 8.88387L4.52783 8.88384Z" fill="#103E13"/>
<path d="M13.2272 12.2388C12.9954 12.6254 12.6141 12.89 12.1536 12.984C11.6971 13.0771 11.2171 12.9913 10.8016 12.7422L8.5757 11.4069C8.46739 11.3419 8.39078 11.2387 8.3601 11.1161C8.32966 10.9938 8.3487 10.8668 8.41359 10.7586C8.4541 10.6909 8.51089 10.6376 8.57673 10.5982L8.5761 10.5978C8.46778 10.5328 8.39117 10.4296 8.36066 10.3072C8.32998 10.1848 8.34901 10.0577 8.41399 9.94932C8.45583 9.87971 8.51317 9.82528 8.57862 9.78666C8.4836 9.72129 8.41517 9.62636 8.38701 9.51371C8.35633 9.39124 8.37537 9.2642 8.44034 9.15596C8.50523 9.04765 8.60851 8.97112 8.73091 8.94052C8.76913 8.93093 8.80791 8.92621 8.8463 8.92621C8.92165 8.92629 8.99559 8.9454 9.06355 8.98096C9.06772 8.89294 9.09391 8.80649 9.14536 8.73231C9.28639 8.52883 9.56893 8.47251 9.78902 8.60457L11.6118 9.69792L11.3768 9.27473C11.2867 9.11317 11.29 8.91384 11.3856 8.75448C11.4321 8.67693 11.4987 8.6125 11.5782 8.56791C11.6436 8.53172 11.7143 8.51458 11.7842 8.51458C11.9342 8.51466 12.0799 8.59379 12.1574 8.73388C12.4277 9.22087 12.9377 10.1393 12.9736 10.2034C12.9812 10.2145 13.0042 10.2475 13.024 10.2756C13.0428 10.3023 13.0631 10.3277 13.0841 10.3531C13.5392 10.9048 13.5941 11.6273 13.2272 12.2388L13.2272 12.2388ZM12.8903 10.5132C12.8653 10.4829 12.8407 10.452 12.8184 10.4201C12.7504 10.3237 12.7487 10.3211 12.7436 10.2959C12.6642 10.1645 12.4703 9.81554 11.9376 8.85574C11.8909 8.77149 11.7847 8.74074 11.7001 8.78746C11.6585 8.81074 11.6251 8.84323 11.6007 8.8839C11.5513 8.96625 11.5494 9.06914 11.5961 9.15268L12.0584 9.98575C12.086 10.0355 12.0768 10.0974 12.036 10.1369C11.9952 10.1765 11.933 10.1834 11.884 10.1543L9.65975 8.81994C9.5549 8.7571 9.4167 8.78172 9.35188 8.87532C9.31459 8.92912 9.30272 8.99331 9.31829 9.056C9.33261 9.11326 9.36855 9.16156 9.41945 9.19208C9.4196 9.19216 9.41968 9.19231 9.41984 9.19239L10.8742 10.0649C10.9336 10.1006 10.9529 10.1777 10.9172 10.2372C10.8815 10.2966 10.8045 10.316 10.7448 10.2802L8.95938 9.20915C8.90872 9.17879 8.8491 9.16982 8.79184 9.18422C8.73442 9.19853 8.68612 9.2344 8.65568 9.28529C8.62516 9.33603 8.61635 9.39557 8.63051 9.45283C8.64483 9.5101 8.68077 9.55847 8.73158 9.58899L9.07902 9.79736L10.517 10.6601C10.5764 10.6958 10.5957 10.7729 10.56 10.8324C10.5243 10.8918 10.4473 10.9112 10.3877 10.8755L8.93303 10.0027C8.82842 9.93981 8.69218 9.97395 8.62925 10.0787C8.59873 10.1295 8.58992 10.1891 8.60408 10.2463C8.6184 10.3036 8.65435 10.3519 8.70524 10.3825L9.06187 10.5965L10.1599 11.2552C10.2193 11.2909 10.2386 11.368 10.2029 11.4276C10.1672 11.4869 10.0902 11.5065 10.0305 11.4706L8.93256 10.8118C8.8819 10.7815 8.82252 10.7725 8.76494 10.7869C8.70767 10.8012 8.65922 10.8371 8.62878 10.8878C8.59834 10.9386 8.58945 10.9982 8.60361 11.0554C8.61793 11.1127 8.65387 11.161 8.70477 11.1916L10.9307 12.5269C11.2919 12.7436 11.7084 12.8186 12.1031 12.7381C12.4938 12.6583 12.8164 12.4351 13.0116 12.1097C13.3271 11.5841 13.2818 10.9872 12.8904 10.5131L12.8903 10.5132Z" fill="#103E13"/>
</svg>
