<svg width="11" height="11" viewBox="0 0 11 11" fill="none" xmlns="http://www.w3.org/2000/svg">
<mask id="path-1-inside-1_212_1414" fill="white">
<path d="M6.79203 4.88938C6.71165 4.88938 6.637 4.86727 6.57069 4.83172V4.83267C6.57069 4.95915 6.52153 5.07793 6.43233 5.16689C6.34314 5.25609 6.22444 5.30525 6.09811 5.30525C6.01654 5.30525 5.94095 5.2826 5.87393 5.2461C5.86716 5.36181 5.82091 5.46996 5.7384 5.55256C5.6492 5.64176 5.53051 5.69092 5.40409 5.69092C5.15293 5.69092 4.94897 5.49349 4.93427 5.24602C4.85655 5.28803 4.76869 5.31005 4.67807 5.30423C4.431 5.28803 4.2375 5.07455 4.2375 4.81811V2.6925L3.99546 3.11183C3.90328 3.27221 3.73071 3.37179 3.54491 3.37179C3.45437 3.37179 3.36494 3.34803 3.28573 3.30265C3.1871 3.24546 3.11654 3.15367 3.0872 3.04385C3.0577 2.93397 3.07296 2.81905 3.12999 2.72056C3.13007 2.72056 3.92192 1.3493 3.97022 1.26507C3.97597 1.25241 3.99233 1.21568 4.00625 1.18437C4.01954 1.15448 4.03095 1.1238 4.04188 1.09297C4.28068 0.418799 4.87197 1.90735e-05 5.58508 1.90735e-05C6.51112 1.90735e-05 7.26451 0.816957 7.26451 1.82113L7.26459 4.41672C7.26459 4.54305 7.21551 4.66174 7.12639 4.75103C7.03719 4.84023 6.9185 4.88939 6.79202 4.88939L6.79203 4.88938ZM5.58509 0.251134C4.97234 0.251134 4.48395 0.597241 4.27857 1.17695C4.26544 1.21376 4.25175 1.25057 4.23578 1.28644C4.18945 1.39035 4.18945 1.39035 4.1764 1.40529L4.17467 1.4038C4.11001 1.5258 3.91793 1.85844 3.34742 2.84624C3.32398 2.88675 3.31776 2.93379 3.32972 2.97878C3.34183 3.02377 3.37086 3.06168 3.41105 3.08489C3.53581 3.15654 3.70666 3.11029 3.77776 2.98641L4.25435 2.16127C4.28283 2.11211 4.3404 2.08796 4.39562 2.10291C4.45053 2.11762 4.48867 2.16741 4.48867 2.2242V4.81819C4.48867 4.94058 4.58102 5.04621 4.69453 5.05368C4.75997 5.05714 4.82101 5.0352 4.86687 4.98942C4.90856 4.94773 4.93153 4.8922 4.93153 4.83281V3.13631C4.93153 3.06693 4.98777 3.01069 5.05714 3.01069C5.12652 3.01069 5.18276 3.06685 5.18276 3.13631L5.18268 5.21842C5.18268 5.3405 5.28203 5.43985 5.4041 5.43985C5.46341 5.43985 5.5191 5.41688 5.56087 5.37519C5.60256 5.33342 5.62553 5.27773 5.62553 5.21842V3.13631C5.62553 3.06693 5.68169 3.01069 5.75114 3.01069C5.82052 3.01069 5.87676 3.06685 5.87676 3.13631L5.87668 4.8133V4.8328C5.87668 4.9548 5.97603 5.05414 6.09819 5.05414C6.15742 5.05414 6.21295 5.0311 6.25495 4.98925C6.29664 4.94764 6.31961 4.89211 6.31961 4.83272V3.13622C6.31961 3.06684 6.37577 3.0106 6.44523 3.0106C6.5146 3.0106 6.57084 3.06677 6.57084 3.13622L6.57069 4.41678C6.57069 4.53894 6.67003 4.63828 6.79203 4.63828C6.85141 4.63828 6.90695 4.61524 6.94863 4.57363C6.99048 4.53178 7.01337 4.47609 7.01337 4.41678L7.01345 1.82118C7.01345 0.955556 6.3727 0.25116 5.58508 0.25116L5.58509 0.251134Z"/>
</mask>
<path d="M6.79203 4.88938C6.71165 4.88938 6.637 4.86727 6.57069 4.83172V4.83267C6.57069 4.95915 6.52153 5.07793 6.43233 5.16689C6.34314 5.25609 6.22444 5.30525 6.09811 5.30525C6.01654 5.30525 5.94095 5.2826 5.87393 5.2461C5.86716 5.36181 5.82091 5.46996 5.7384 5.55256C5.6492 5.64176 5.53051 5.69092 5.40409 5.69092C5.15293 5.69092 4.94897 5.49349 4.93427 5.24602C4.85655 5.28803 4.76869 5.31005 4.67807 5.30423C4.431 5.28803 4.2375 5.07455 4.2375 4.81811V2.6925L3.99546 3.11183C3.90328 3.27221 3.73071 3.37179 3.54491 3.37179C3.45437 3.37179 3.36494 3.34803 3.28573 3.30265C3.1871 3.24546 3.11654 3.15367 3.0872 3.04385C3.0577 2.93397 3.07296 2.81905 3.12999 2.72056C3.13007 2.72056 3.92192 1.3493 3.97022 1.26507C3.97597 1.25241 3.99233 1.21568 4.00625 1.18437C4.01954 1.15448 4.03095 1.1238 4.04188 1.09297C4.28068 0.418799 4.87197 1.90735e-05 5.58508 1.90735e-05C6.51112 1.90735e-05 7.26451 0.816957 7.26451 1.82113L7.26459 4.41672C7.26459 4.54305 7.21551 4.66174 7.12639 4.75103C7.03719 4.84023 6.9185 4.88939 6.79202 4.88939L6.79203 4.88938ZM5.58509 0.251134C4.97234 0.251134 4.48395 0.597241 4.27857 1.17695C4.26544 1.21376 4.25175 1.25057 4.23578 1.28644C4.18945 1.39035 4.18945 1.39035 4.1764 1.40529L4.17467 1.4038C4.11001 1.5258 3.91793 1.85844 3.34742 2.84624C3.32398 2.88675 3.31776 2.93379 3.32972 2.97878C3.34183 3.02377 3.37086 3.06168 3.41105 3.08489C3.53581 3.15654 3.70666 3.11029 3.77776 2.98641L4.25435 2.16127C4.28283 2.11211 4.3404 2.08796 4.39562 2.10291C4.45053 2.11762 4.48867 2.16741 4.48867 2.2242V4.81819C4.48867 4.94058 4.58102 5.04621 4.69453 5.05368C4.75997 5.05714 4.82101 5.0352 4.86687 4.98942C4.90856 4.94773 4.93153 4.8922 4.93153 4.83281V3.13631C4.93153 3.06693 4.98777 3.01069 5.05714 3.01069C5.12652 3.01069 5.18276 3.06685 5.18276 3.13631L5.18268 5.21842C5.18268 5.3405 5.28203 5.43985 5.4041 5.43985C5.46341 5.43985 5.5191 5.41688 5.56087 5.37519C5.60256 5.33342 5.62553 5.27773 5.62553 5.21842V3.13631C5.62553 3.06693 5.68169 3.01069 5.75114 3.01069C5.82052 3.01069 5.87676 3.06685 5.87676 3.13631L5.87668 4.8133V4.8328C5.87668 4.9548 5.97603 5.05414 6.09819 5.05414C6.15742 5.05414 6.21295 5.0311 6.25495 4.98925C6.29664 4.94764 6.31961 4.89211 6.31961 4.83272V3.13622C6.31961 3.06684 6.37577 3.0106 6.44523 3.0106C6.5146 3.0106 6.57084 3.06677 6.57084 3.13622L6.57069 4.41678C6.57069 4.53894 6.67003 4.63828 6.79203 4.63828C6.85141 4.63828 6.90695 4.61524 6.94863 4.57363C6.99048 4.53178 7.01337 4.47609 7.01337 4.41678L7.01345 1.82118C7.01345 0.955556 6.3727 0.25116 5.58508 0.25116L5.58509 0.251134Z" fill="#4CAF4F"/>
<path d="M6.79203 4.88938V4.44422H8.36479L7.02534 5.2685L6.79203 4.88938ZM6.57069 4.83172H6.12554V4.08792L6.78105 4.43941L6.57069 4.83172ZM6.43233 5.16689L6.11756 4.85212L6.11798 4.8517L6.43233 5.16689ZM5.87393 5.2461L5.42953 5.22012L5.47049 4.51952L6.08683 4.85516L5.87393 5.2461ZM5.7384 5.55256L6.05334 5.86717L6.05317 5.86733L5.7384 5.55256ZM4.93427 5.24602L4.72261 4.85441L5.33721 4.52223L5.37864 5.21963L4.93427 5.24602ZM4.67807 5.30423L4.64953 5.74847L4.64894 5.74843L4.67807 5.30423ZM4.2375 2.6925L3.85197 2.46996L4.68266 1.03083V2.6925H4.2375ZM3.99546 3.11183L3.60952 2.88999L3.60993 2.88929L3.99546 3.11183ZM3.28573 3.30265L3.06441 3.68889L3.06246 3.68776L3.28573 3.30265ZM3.0872 3.04385L3.51713 2.92845L3.51727 2.92895L3.0872 3.04385ZM3.12999 2.72056L2.74475 2.4975L2.87335 2.27541H3.12999V2.72056ZM3.97022 1.26507L4.37565 1.4489L4.36691 1.46818L4.35638 1.48654L3.97022 1.26507ZM4.00625 1.18437L3.5995 1.00348L3.59951 1.00348L4.00625 1.18437ZM4.04188 1.09297L4.46149 1.2416L4.46145 1.24172L4.04188 1.09297ZM7.26451 1.82113L6.81935 1.82114V1.82113H7.26451ZM7.26459 4.41672L7.70974 4.41671V4.41672H7.26459ZM7.12639 4.75103L7.44145 5.06551L7.44116 5.0658L7.12639 4.75103ZM6.79202 4.88939V5.33454H5.21927L6.55871 4.51027L6.79202 4.88939ZM5.58509 0.251134V-0.194021H6.17525L6.01312 0.373428L5.58509 0.251134ZM4.27857 1.17695L4.69818 1.3256L4.69784 1.32656L4.27857 1.17695ZM4.23578 1.28644L4.64246 1.46749L4.64236 1.46772L4.23578 1.28644ZM4.1764 1.40529L4.51162 1.69819L4.22041 2.03149L3.88544 1.7422L4.1764 1.40529ZM4.17467 1.4038L3.78134 1.19534L4.0429 0.701809L4.46563 1.0669L4.17467 1.4038ZM3.34742 2.84624L3.7329 3.06888L3.73272 3.0692L3.34742 2.84624ZM3.32972 2.97878L2.89987 3.0945L2.8995 3.09311L3.32972 2.97878ZM3.41105 3.08489L3.18933 3.4709L3.1885 3.47042L3.41105 3.08489ZM3.77776 2.98641L3.39167 2.76482L3.39229 2.76376L3.77776 2.98641ZM4.25435 2.16127L3.86888 1.93863L3.86915 1.93816L4.25435 2.16127ZM4.39562 2.10291L4.28042 2.5329L4.27932 2.5326L4.39562 2.10291ZM4.69453 5.05368L4.67102 5.49825L4.6653 5.49788L4.69453 5.05368ZM4.86687 4.98942L5.18164 5.30419L5.18137 5.30447L4.86687 4.98942ZM5.18276 3.13631H5.62792V3.13633L5.18276 3.13631ZM5.18268 5.21842H4.73753V5.21841L5.18268 5.21842ZM5.56087 5.37519L5.87594 5.68967L5.87534 5.69027L5.56087 5.37519ZM5.87676 3.13631H6.32192V3.13633L5.87676 3.13631ZM5.87668 4.8133H5.43153V4.81328L5.87668 4.8133ZM6.25495 4.98925L6.56943 5.30432L6.56913 5.30461L6.25495 4.98925ZM6.57084 3.13622H7.016V3.13627L6.57084 3.13622ZM6.57069 4.41678H6.12553L6.12553 4.41673L6.57069 4.41678ZM6.94863 4.57363L7.26341 4.8884L7.26311 4.8887L6.94863 4.57363ZM7.01337 4.41678H6.56821V4.41677L7.01337 4.41678ZM7.01345 1.82118H7.4586V1.8212L7.01345 1.82118ZM5.58508 0.25116V0.696316H4.99493L5.15706 0.128867L5.58508 0.25116ZM6.79203 5.33453C6.62812 5.33453 6.48178 5.28916 6.36033 5.22404L6.78105 4.43941C6.7868 4.44249 6.79045 4.44367 6.79191 4.44406C6.79315 4.4444 6.79299 4.44422 6.79203 4.44422V5.33453ZM7.01585 4.83172V4.83267H6.12554V4.83172H7.01585ZM7.01585 4.83267C7.01585 5.07684 6.92003 5.3092 6.74669 5.48208L6.11798 4.8517C6.12116 4.84853 6.12274 4.84581 6.12365 4.84359C6.12458 4.84136 6.12554 4.83793 6.12554 4.83267H7.01585ZM6.74711 5.48166C6.57435 5.65442 6.34241 5.75041 6.09811 5.75041V4.8601C6.10321 4.8601 6.10658 4.85917 6.10886 4.85822C6.11114 4.85728 6.11408 4.8556 6.11756 4.85212L6.74711 5.48166ZM6.09811 5.75041C5.93205 5.75041 5.78388 5.70395 5.66103 5.63705L6.08683 4.85516C6.09262 4.85831 6.0963 4.85951 6.09776 4.85991C6.099 4.86025 6.0989 4.8601 6.09811 4.8601V5.75041ZM6.31833 5.27208C6.30551 5.49119 6.21663 5.7037 6.05334 5.86717L5.42346 5.23795C5.42512 5.2363 5.42607 5.23484 5.42688 5.233C5.42776 5.23099 5.42913 5.22691 5.42953 5.22012L6.31833 5.27208ZM6.05317 5.86733C5.88039 6.04011 5.64843 6.13607 5.40409 6.13607V5.24576C5.40927 5.24576 5.41266 5.24482 5.41494 5.24388C5.41721 5.24294 5.42015 5.24126 5.42363 5.23779L6.05317 5.86733ZM5.40409 6.13607C4.91264 6.13607 4.51829 5.75036 4.4899 5.27242L5.37864 5.21963C5.37909 5.2272 5.38219 5.23384 5.38767 5.23906C5.39034 5.24161 5.39305 5.24325 5.39541 5.24422C5.39748 5.24507 5.40012 5.24576 5.40409 5.24576V6.13607ZM5.14593 5.63764C5.00214 5.71535 4.83165 5.76017 4.64953 5.74847L4.70661 4.85999C4.70662 4.85999 4.70757 4.86008 4.70991 4.85954C4.71243 4.85895 4.71678 4.85756 4.72261 4.85441L5.14593 5.63764ZM4.64894 5.74843C4.15467 5.71601 3.79235 5.29568 3.79235 4.81811H4.68266C4.68266 4.83316 4.68812 4.84475 4.69498 4.85231C4.70165 4.85968 4.70618 4.85996 4.7072 4.86003L4.64894 5.74843ZM3.79235 4.81811V2.6925H4.68266V4.81811H3.79235ZM4.62304 2.91504L4.381 3.33436L3.60993 2.88929L3.85197 2.46996L4.62304 2.91504ZM4.38141 3.33366C4.2094 3.63292 3.88921 3.81694 3.54491 3.81694V2.92663C3.5722 2.92663 3.59716 2.9115 3.60952 2.88999L4.38141 3.33366ZM3.54491 3.81694C3.37657 3.81694 3.21086 3.7728 3.06442 3.68889L3.50705 2.91641C3.51902 2.92327 3.53218 2.92663 3.54491 2.92663V3.81694ZM3.06246 3.68776C2.8626 3.5719 2.71713 3.38334 2.65713 3.15876L3.51727 2.92895C3.51686 2.92743 3.51575 2.92474 3.51361 2.92195C3.51148 2.91917 3.50951 2.91783 3.509 2.91753L3.06246 3.68776ZM2.65726 3.15926C2.59702 2.93485 2.62856 2.69816 2.74475 2.4975L3.51522 2.94362C3.51586 2.94253 3.51697 2.93999 3.51745 2.93639C3.51793 2.93278 3.51753 2.9299 3.51713 2.92845L2.65726 3.15926ZM3.12999 2.27541C2.91162 2.33264 2.74818 2.49169 2.74695 2.49374C2.74655 2.49442 2.74594 2.49546 2.74575 2.49578C2.74564 2.49597 2.74545 2.4963 2.74539 2.49641C2.74535 2.49648 2.74527 2.49662 2.74525 2.49665C2.74518 2.49676 2.7452 2.49673 2.74537 2.49644C2.74567 2.49591 2.74618 2.49504 2.74692 2.49376C2.74838 2.49123 2.75058 2.48743 2.75348 2.48241C2.75928 2.47238 2.76779 2.45764 2.77867 2.43881C2.80041 2.40117 2.83153 2.34729 2.86903 2.28236C2.94402 2.1525 3.04451 1.97848 3.14651 1.80182C3.35085 1.44791 3.56034 1.08498 3.58407 1.04361L4.35638 1.48654C4.3318 1.5294 4.12121 1.89422 3.91753 2.24699C3.81552 2.42367 3.71501 2.59772 3.64 2.72761C3.6025 2.79255 3.57137 2.84646 3.5496 2.88414C3.53872 2.90297 3.53017 2.91777 3.52433 2.92787C3.52142 2.93291 3.51916 2.93682 3.51762 2.93949C3.51686 2.94081 3.51622 2.9419 3.51576 2.9427C3.51555 2.94307 3.51528 2.94353 3.51502 2.94397C3.51493 2.94413 3.51464 2.94462 3.5143 2.94521C3.51408 2.94558 3.51346 2.94664 3.51304 2.94735C3.51181 2.94942 3.34835 3.10848 3.12999 3.16572V2.27541ZM3.5648 1.08125C3.5697 1.07044 3.58522 1.03559 3.5995 1.00348L4.413 1.36526C4.39943 1.39576 4.38223 1.43438 4.37565 1.4489L3.5648 1.08125ZM3.59951 1.00348C3.60569 0.989567 3.61254 0.97179 3.62232 0.944218L4.46145 1.24172C4.44936 1.27582 4.4334 1.31939 4.413 1.36526L3.59951 1.00348ZM3.62227 0.944339C3.92377 0.0931525 4.68266 -0.445136 5.58508 -0.445136V0.445175C5.06128 0.445175 4.63759 0.744445 4.46149 1.2416L3.62227 0.944339ZM5.58508 -0.445136C6.79023 -0.445136 7.70966 0.605737 7.70966 1.82113H6.81935C6.81935 1.02818 6.23201 0.445175 5.58508 0.445175V-0.445136ZM7.70966 1.82111L7.70974 4.41671L6.81943 4.41674L6.81935 1.82114L7.70966 1.82111ZM7.70974 4.41672C7.70974 4.66083 7.61397 4.89267 7.44145 5.06551L6.81132 4.43655C6.81484 4.43302 6.81656 4.43002 6.81752 4.42769C6.81849 4.42535 6.81943 4.42191 6.81943 4.41672H7.70974ZM7.44116 5.0658C7.26835 5.2386 7.03639 5.33454 6.79202 5.33454V4.44423C6.79725 4.44423 6.80067 4.44328 6.80294 4.44234C6.80521 4.4414 6.80814 4.43973 6.81161 4.43626L7.44116 5.0658ZM6.55871 4.51027L6.55873 4.51026L7.02534 5.2685L7.02532 5.26851L6.55871 4.51027ZM5.58509 0.69629C5.16185 0.69629 4.84091 0.922702 4.69818 1.3256L3.85897 1.0283C4.12698 0.27178 4.78283 -0.194021 5.58509 -0.194021V0.69629ZM4.69784 1.32656C4.68378 1.36594 4.66553 1.41567 4.64246 1.46749L3.82911 1.1054C3.83798 1.08548 3.84709 1.06159 3.85931 1.02734L4.69784 1.32656ZM4.64236 1.46772C4.62197 1.51344 4.60489 1.55206 4.59182 1.57821C4.58371 1.59444 4.57058 1.61946 4.55154 1.64717C4.53224 1.67524 4.51317 1.69642 4.51162 1.69819L3.84117 1.1124C3.84222 1.1112 3.84188 1.11159 3.84135 1.1122C3.84067 1.11299 3.83894 1.11501 3.83667 1.11778C3.8316 1.12396 3.82497 1.13248 3.8178 1.1429C3.80388 1.16316 3.79609 1.17888 3.7954 1.18025C3.7949 1.18126 3.79521 1.18067 3.79673 1.17743C3.79819 1.17429 3.80027 1.16977 3.80325 1.16319C3.80933 1.14976 3.81741 1.13163 3.82921 1.10516L4.64236 1.46772ZM3.88544 1.7422L3.88371 1.7407L4.46563 1.0669L4.46736 1.06839L3.88544 1.7422ZM4.568 1.61226C4.49833 1.74372 4.29943 2.08797 3.7329 3.06888L2.96194 2.6236C3.53643 1.62891 3.72169 1.30788 3.78134 1.19534L4.568 1.61226ZM3.73272 3.0692C3.76834 3.00764 3.77826 2.93338 3.75994 2.86444L2.8995 3.09311C2.85727 2.9342 2.87962 2.76585 2.96212 2.62328L3.73272 3.0692ZM3.75957 2.86305C3.74125 2.79501 3.69623 2.73551 3.63361 2.69936L3.1885 3.47042C3.04549 3.38786 2.94242 3.25253 2.89987 3.0945L3.75957 2.86305ZM3.63278 2.69888C3.58211 2.66977 3.53282 2.66997 3.49879 2.67913C3.46489 2.68825 3.42143 2.71298 3.39167 2.76482L4.16385 3.20799C3.96984 3.54603 3.52646 3.66454 3.18933 3.47089L3.63278 2.69888ZM3.39229 2.76376L3.86888 1.93863L4.63983 2.38392L4.16324 3.20906L3.39229 2.76376ZM3.86915 1.93816C3.99773 1.71617 4.26017 1.60508 4.51192 1.67321L4.27932 2.5326C4.42064 2.57085 4.56793 2.50805 4.63956 2.38439L3.86915 1.93816ZM4.51082 1.67292C4.76056 1.73982 4.93383 1.96614 4.93383 2.2242H4.04352C4.04352 2.36868 4.14049 2.49541 4.28042 2.5329L4.51082 1.67292ZM4.93383 2.2242V4.81819H4.04352V2.2242H4.93383ZM4.93383 4.81819C4.93383 4.76746 4.91504 4.72135 4.88419 4.68605C4.85339 4.65082 4.79904 4.61444 4.72376 4.60949L4.6653 5.49788C4.29056 5.47321 4.04352 5.14678 4.04352 4.81819H4.93383ZM4.71804 4.60915C4.66545 4.60637 4.6012 4.62563 4.55237 4.67437L5.18137 5.30447C5.04082 5.44476 4.8545 5.50792 4.67102 5.49822L4.71804 4.60915ZM4.5521 4.67465C4.50985 4.71689 4.48637 4.77477 4.48637 4.83281H5.37668C5.37668 5.00962 5.30727 5.17857 5.18164 5.30419L4.5521 4.67465ZM4.48637 4.83281V3.13631H5.37668V4.83281H4.48637ZM4.48637 3.13631C4.48637 2.82108 4.74192 2.56554 5.05714 2.56554V3.45585C5.23362 3.45585 5.37668 3.31279 5.37668 3.13631H4.48637ZM5.05714 2.56554C5.37219 2.56554 5.62792 2.82082 5.62792 3.13631H4.73761C4.73761 3.31289 4.88085 3.45585 5.05714 3.45585V2.56554ZM5.62792 3.13633L5.62784 5.21844L4.73753 5.21841L4.73761 3.13629L5.62792 3.13633ZM5.62784 5.21842C5.62784 5.09465 5.52788 4.99469 5.4041 4.99469V5.885C5.03618 5.885 4.73753 5.58636 4.73753 5.21842H5.62784ZM5.4041 4.99469C5.34617 4.99469 5.28856 5.01803 5.2464 5.06011L5.87534 5.69027C5.74964 5.81572 5.58066 5.885 5.4041 5.885V4.99469ZM5.2458 5.06071C5.20371 5.10288 5.18037 5.16049 5.18037 5.21842H6.07068C6.07068 5.39498 6.00141 5.56396 5.87594 5.68967L5.2458 5.06071ZM5.18037 5.21842V3.13631H6.07068V5.21842H5.18037ZM5.18037 3.13631C5.18037 2.82126 5.43565 2.56553 5.75114 2.56553V3.45585C5.92773 3.45585 6.07068 3.3126 6.07068 3.13631H5.18037ZM5.75114 2.56553C6.06619 2.56553 6.32192 2.82082 6.32192 3.13631H5.43161C5.43161 3.31289 5.57485 3.45585 5.75114 3.45585V2.56553ZM6.32192 3.13633L6.32184 4.81332L5.43153 4.81328L5.43161 3.13629L6.32192 3.13633ZM6.32184 4.8133V4.8328H5.43153V4.8133H6.32184ZM6.32184 4.8328C6.32184 4.70873 6.22166 4.60899 6.09819 4.60899V5.4993C5.73039 5.4993 5.43153 5.20087 5.43153 4.8328H6.32184ZM6.09819 4.60899C6.03903 4.60899 5.98177 4.63304 5.94077 4.67389L6.56913 5.30461C6.44413 5.42915 6.2758 5.4993 6.09819 5.4993V4.60899ZM5.94048 4.67418C5.89789 4.71668 5.87445 4.77476 5.87445 4.83272H6.76476C6.76476 5.00946 6.69539 5.1786 6.56943 5.30432L5.94048 4.67418ZM5.87445 4.83272V3.13622H6.76476V4.83272H5.87445ZM5.87445 3.13622C5.87445 2.82117 6.12974 2.56545 6.44523 2.56545V3.45576C6.6218 3.45576 6.76476 3.31252 6.76476 3.13622H5.87445ZM6.44523 2.56545C6.76027 2.56545 7.016 2.82073 7.016 3.13622H6.12569C6.12569 3.3128 6.26893 3.45576 6.44523 3.45576V2.56545ZM7.016 3.13627L7.01584 4.41684L6.12553 4.41673L6.12569 3.13617L7.016 3.13627ZM7.01584 4.41678C7.01584 4.2933 6.91609 4.19313 6.79203 4.19313V5.08344C6.42397 5.08344 6.12553 4.78458 6.12553 4.41678H7.01584ZM6.79203 4.19313C6.73363 4.19313 6.67603 4.21677 6.63416 4.25856L7.26311 4.8887C7.13787 5.0137 6.96919 5.08344 6.79203 5.08344V4.19313ZM6.63386 4.25885C6.59147 4.30124 6.56821 4.35909 6.56821 4.41678H7.45852C7.45852 4.59308 7.38949 4.76232 7.26341 4.8884L6.63386 4.25885ZM6.56821 4.41677L6.56829 1.82117L7.4586 1.8212L7.45852 4.41679L6.56821 4.41677ZM6.56829 1.82118C6.56829 1.16084 6.08816 0.696316 5.58508 0.696316V-0.193995C6.65725 -0.193995 7.4586 0.750273 7.4586 1.82118H6.56829ZM5.15706 0.128867L5.15706 0.128841L6.01312 0.373428L6.01311 0.373454L5.15706 0.128867Z" fill="#4CAF4F" mask="url(#path-1-inside-1_212_1414)"/>
<path d="M1.33301 5.74744L1.30762 5.73376C1.30159 5.74463 1.28554 5.77385 1.26172 5.81677C1.27062 5.82124 1.27909 5.82608 1.28809 5.82947C1.30293 5.80272 1.31759 5.77521 1.33301 5.74744Z" fill="#4CAF4F" stroke="#4CAF4F" stroke-width="0.445155"/>
<mask id="path-4-inside-2_212_1414" fill="white">
<path d="M10.5668 9.23399C10.335 9.62059 9.95372 9.88521 9.49318 9.97928C9.03672 10.0723 8.55667 9.98652 8.14119 9.7374L5.9153 8.40211C5.80699 8.33714 5.73038 8.23394 5.6997 8.11138C5.66926 7.98907 5.6883 7.86203 5.75319 7.7538C5.7937 7.68615 5.85049 7.63282 5.91632 7.59341L5.9157 7.59302C5.80738 7.52805 5.73077 7.42485 5.70026 7.30245C5.66958 7.18006 5.68861 7.05294 5.75358 6.94456C5.79543 6.87495 5.85277 6.82052 5.91822 6.7819C5.8232 6.71653 5.75477 6.62159 5.72661 6.50895C5.69593 6.38648 5.71496 6.25944 5.77994 6.1512C5.84483 6.04289 5.94811 5.96636 6.07051 5.93576C6.10873 5.92617 6.14751 5.92145 6.1859 5.92145C6.26125 5.92153 6.33519 5.94064 6.40315 5.97619C6.40732 5.88818 6.43351 5.80173 6.48496 5.72755C6.62599 5.52407 6.90853 5.46775 7.12862 5.59981L8.95138 6.69316L8.71642 6.26997C8.62628 6.10841 8.62959 5.90908 8.72515 5.74972C8.77172 5.67216 8.83826 5.60774 8.91779 5.56315C8.98315 5.52696 9.05395 5.50982 9.12378 5.50982C9.27379 5.50989 9.41947 5.58903 9.49701 5.72912C9.76729 6.2161 10.2773 7.13451 10.3132 7.19863C10.3208 7.20972 10.3438 7.24275 10.3636 7.27083C10.3824 7.2975 10.4027 7.32298 10.4237 7.34831C10.8788 7.90001 10.9337 8.62249 10.5668 9.234L10.5668 9.23399ZM10.2299 7.50839C10.2049 7.47811 10.1803 7.4472 10.158 7.41534C10.09 7.3189 10.0883 7.31639 10.0832 7.29114C10.0038 7.1597 9.80994 6.81078 9.27719 5.85097C9.23047 5.76673 9.12428 5.73598 9.03972 5.7827C8.99811 5.80598 8.96468 5.83847 8.9403 5.87914C8.8909 5.96149 8.88901 6.06438 8.93566 6.14792L9.39801 6.98099C9.42562 7.0307 9.41642 7.09268 9.37559 7.13217C9.33485 7.17173 9.27255 7.17865 9.22363 7.14955L6.99935 5.81518C6.8945 5.75234 6.7563 5.77696 6.69148 5.87056C6.65419 5.92436 6.64232 5.98855 6.65789 6.05124C6.67221 6.1085 6.70815 6.1568 6.75904 6.18732C6.7592 6.1874 6.75928 6.18755 6.75944 6.18763L8.21376 7.06011C8.27322 7.09582 8.2925 7.1729 8.25678 7.23245C8.22107 7.29183 8.14406 7.31126 8.08444 7.27547L6.29898 6.20439C6.24832 6.17403 6.1887 6.16506 6.13144 6.17946C6.07402 6.19377 6.02572 6.22964 5.99528 6.28053C5.96476 6.33126 5.95595 6.39081 5.97011 6.44807C5.98442 6.50534 6.02037 6.55371 6.07118 6.58423L6.41862 6.7926L7.85657 7.65533C7.91603 7.69104 7.93531 7.76813 7.89959 7.82767C7.86388 7.88706 7.78688 7.90641 7.72725 7.8707L6.27263 6.99798C6.16802 6.93505 6.03178 6.96919 5.96885 7.07396C5.93833 7.12478 5.92952 7.18432 5.94368 7.24158C5.958 7.29885 5.99394 7.34714 6.04484 7.37774L6.40147 7.59169L7.49946 8.25046C7.55892 8.28617 7.5782 8.36325 7.54248 8.4228C7.50677 8.48218 7.42976 8.50169 7.37014 8.46582L6.27216 7.80706C6.2215 7.7767 6.16212 7.76773 6.10454 7.78212C6.04727 7.79644 5.99882 7.83231 5.96838 7.88304C5.93794 7.93385 5.92905 7.99348 5.94321 8.05066C5.95753 8.10793 5.99347 8.15622 6.04436 8.18682L8.27025 9.52211C8.63146 9.73882 9.04803 9.81385 9.44274 9.7333C9.83335 9.65354 10.156 9.43039 10.3512 9.1049C10.6667 8.5793 10.6214 7.98245 10.23 7.50838L10.2299 7.50839Z"/>
</mask>
<path d="M10.5668 9.23399C10.335 9.62059 9.95372 9.88521 9.49318 9.97928C9.03672 10.0723 8.55667 9.98652 8.14119 9.7374L5.9153 8.40211C5.80699 8.33714 5.73038 8.23394 5.6997 8.11138C5.66926 7.98907 5.6883 7.86203 5.75319 7.7538C5.7937 7.68615 5.85049 7.63282 5.91632 7.59341L5.9157 7.59302C5.80738 7.52805 5.73077 7.42485 5.70026 7.30245C5.66958 7.18006 5.68861 7.05294 5.75358 6.94456C5.79543 6.87495 5.85277 6.82052 5.91822 6.7819C5.8232 6.71653 5.75477 6.62159 5.72661 6.50895C5.69593 6.38648 5.71496 6.25944 5.77994 6.1512C5.84483 6.04289 5.94811 5.96636 6.07051 5.93576C6.10873 5.92617 6.14751 5.92145 6.1859 5.92145C6.26125 5.92153 6.33519 5.94064 6.40315 5.97619C6.40732 5.88818 6.43351 5.80173 6.48496 5.72755C6.62599 5.52407 6.90853 5.46775 7.12862 5.59981L8.95138 6.69316L8.71642 6.26997C8.62628 6.10841 8.62959 5.90908 8.72515 5.74972C8.77172 5.67216 8.83826 5.60774 8.91779 5.56315C8.98315 5.52696 9.05395 5.50982 9.12378 5.50982C9.27379 5.50989 9.41947 5.58903 9.49701 5.72912C9.76729 6.2161 10.2773 7.13451 10.3132 7.19863C10.3208 7.20972 10.3438 7.24275 10.3636 7.27083C10.3824 7.2975 10.4027 7.32298 10.4237 7.34831C10.8788 7.90001 10.9337 8.62249 10.5668 9.234L10.5668 9.23399ZM10.2299 7.50839C10.2049 7.47811 10.1803 7.4472 10.158 7.41534C10.09 7.3189 10.0883 7.31639 10.0832 7.29114C10.0038 7.1597 9.80994 6.81078 9.27719 5.85097C9.23047 5.76673 9.12428 5.73598 9.03972 5.7827C8.99811 5.80598 8.96468 5.83847 8.9403 5.87914C8.8909 5.96149 8.88901 6.06438 8.93566 6.14792L9.39801 6.98099C9.42562 7.0307 9.41642 7.09268 9.37559 7.13217C9.33485 7.17173 9.27255 7.17865 9.22363 7.14955L6.99935 5.81518C6.8945 5.75234 6.7563 5.77696 6.69148 5.87056C6.65419 5.92436 6.64232 5.98855 6.65789 6.05124C6.67221 6.1085 6.70815 6.1568 6.75904 6.18732C6.7592 6.1874 6.75928 6.18755 6.75944 6.18763L8.21376 7.06011C8.27322 7.09582 8.2925 7.1729 8.25678 7.23245C8.22107 7.29183 8.14406 7.31126 8.08444 7.27547L6.29898 6.20439C6.24832 6.17403 6.1887 6.16506 6.13144 6.17946C6.07402 6.19377 6.02572 6.22964 5.99528 6.28053C5.96476 6.33126 5.95595 6.39081 5.97011 6.44807C5.98442 6.50534 6.02037 6.55371 6.07118 6.58423L6.41862 6.7926L7.85657 7.65533C7.91603 7.69104 7.93531 7.76813 7.89959 7.82767C7.86388 7.88706 7.78688 7.90641 7.72725 7.8707L6.27263 6.99798C6.16802 6.93505 6.03178 6.96919 5.96885 7.07396C5.93833 7.12478 5.92952 7.18432 5.94368 7.24158C5.958 7.29885 5.99394 7.34714 6.04484 7.37774L6.40147 7.59169L7.49946 8.25046C7.55892 8.28617 7.5782 8.36325 7.54248 8.4228C7.50677 8.48218 7.42976 8.50169 7.37014 8.46582L6.27216 7.80706C6.2215 7.7767 6.16212 7.76773 6.10454 7.78212C6.04727 7.79644 5.99882 7.83231 5.96838 7.88304C5.93794 7.93385 5.92905 7.99348 5.94321 8.05066C5.95753 8.10793 5.99347 8.15622 6.04436 8.18682L8.27025 9.52211C8.63146 9.73882 9.04803 9.81385 9.44274 9.7333C9.83335 9.65354 10.156 9.43039 10.3512 9.1049C10.6667 8.5793 10.6214 7.98245 10.23 7.50838L10.2299 7.50839Z" fill="#4CAF4F"/>
<path d="M10.5668 9.23399L10.4231 8.81265L11.5736 8.42043L10.9486 9.46291L10.5668 9.23399ZM9.49318 9.97928L9.58227 10.4154L9.5821 10.4155L9.49318 9.97928ZM8.14119 9.7374L7.91228 10.1192L7.91219 10.1191L8.14119 9.7374ZM5.9153 8.40211L6.14429 8.02037L6.1443 8.02038L5.9153 8.40211ZM5.6997 8.11138L5.26787 8.21947L5.26772 8.21889L5.6997 8.11138ZM5.75319 7.7538L6.1351 7.9825L6.13498 7.9827L5.75319 7.7538ZM5.91632 7.59341L6.15226 7.21592L6.76938 7.60162L6.14495 7.97538L5.91632 7.59341ZM5.9157 7.59302L6.14473 7.21122L6.15163 7.21553L5.9157 7.59302ZM5.70026 7.30245L6.13206 7.19422L6.13219 7.19476L5.70026 7.30245ZM5.75358 6.94456L5.37178 6.71567L5.37206 6.71522L5.75358 6.94456ZM5.91822 6.7819L6.17051 6.41514L6.74543 6.81063L6.14446 7.16528L5.91822 6.7819ZM5.72661 6.50895L6.15842 6.40079L6.15847 6.40099L5.72661 6.50895ZM5.77994 6.1512L6.1618 6.37999L6.16161 6.38031L5.77994 6.1512ZM6.07051 5.93576L6.17889 6.36752L6.17845 6.36763L6.07051 5.93576ZM6.1859 5.92145V5.47629L6.18636 5.47629L6.1859 5.92145ZM6.40315 5.97619L6.84781 5.99725L6.81481 6.69396L6.19679 6.37063L6.40315 5.97619ZM6.48496 5.72755L6.85082 5.98113L6.85076 5.98122L6.48496 5.72755ZM7.12862 5.59981L6.89963 5.98155L6.89958 5.98152L7.12862 5.59981ZM8.95138 6.69316L9.34057 6.47708L10.1469 7.92935L8.72239 7.0749L8.95138 6.69316ZM8.71642 6.26997L9.10517 6.05307L9.10562 6.05389L8.71642 6.26997ZM8.72515 5.74972L8.34339 5.52077L8.3435 5.52058L8.72515 5.74972ZM8.91779 5.56315L8.70004 5.17488L8.7022 5.17368L8.91779 5.56315ZM9.12378 5.50982V5.06466L9.12402 5.06466L9.12378 5.50982ZM9.49701 5.72912L9.10779 5.94514L9.10754 5.9447L9.49701 5.72912ZM10.3132 7.19863L9.94642 7.45093L9.93473 7.43394L9.92466 7.41594L10.3132 7.19863ZM10.3636 7.27083L9.99976 7.52734L9.99944 7.52687L10.3636 7.27083ZM10.4237 7.34831L10.7664 7.06417L10.7671 7.06503L10.4237 7.34831ZM10.5668 9.234L10.7104 9.65534L9.55931 10.0478L10.1851 9.00495L10.5668 9.234ZM10.2299 7.50839L10.274 7.95136L10.0378 7.97487L9.88668 7.79188L10.2299 7.50839ZM10.158 7.41534L10.5219 7.15891L10.5225 7.15975L10.158 7.41534ZM10.0832 7.29114L10.4642 7.06087L10.5042 7.12703L10.5195 7.20279L10.0832 7.29114ZM9.27719 5.85097L8.88797 6.06701L8.8879 6.06688L9.27719 5.85097ZM9.03972 5.7827L8.82235 5.39421L8.82443 5.39307L9.03972 5.7827ZM8.9403 5.87914L9.32209 6.10805L9.32205 6.10811L8.9403 5.87914ZM8.93566 6.14792L9.32433 5.9309L9.32488 5.9319L8.93566 6.14792ZM9.39801 6.98099L9.00884 7.19712L9.00878 7.19701L9.39801 6.98099ZM9.37559 7.13217L9.06548 6.8128L9.06611 6.81219L9.37559 7.13217ZM9.22363 7.14955L8.99604 7.53214L8.99462 7.53128L9.22363 7.14955ZM6.99935 5.81518L7.22821 5.43337L7.22835 5.43345L6.99935 5.81518ZM6.69148 5.87056L7.05745 6.12399L7.05737 6.12411L6.69148 5.87056ZM6.65789 6.05124L6.22603 6.1592L6.22587 6.15856L6.65789 6.05124ZM6.75904 6.18732L6.55992 6.58545L6.5447 6.57784L6.5301 6.56909L6.75904 6.18732ZM6.75944 6.18763L6.95856 5.78949L6.97382 5.79712L6.98845 5.8059L6.75944 6.18763ZM8.21376 7.06011L8.44277 6.67837L8.44293 6.67848L8.21376 7.06011ZM8.25678 7.23245L8.63854 7.46141L8.63828 7.46185L8.25678 7.23245ZM8.08444 7.27547L8.31344 6.89374L8.31355 6.8938L8.08444 7.27547ZM6.29898 6.20439L6.52783 5.82257L6.52798 5.82265L6.29898 6.20439ZM6.13144 6.17946L6.23996 6.61118L6.23912 6.61139L6.13144 6.17946ZM5.99528 6.28053L6.37731 6.50904L6.37674 6.51L5.99528 6.28053ZM5.97011 6.44807L5.53824 6.55604L5.53797 6.55492L5.97011 6.44807ZM6.07118 6.58423L5.84223 6.96599L5.84198 6.96584L6.07118 6.58423ZM6.41862 6.7926L6.64758 6.41084L6.64764 6.41088L6.41862 6.7926ZM7.85657 7.65533L8.08559 7.27361L8.08574 7.2737L7.85657 7.65533ZM7.89959 7.82767L8.28135 8.05664L8.28109 8.05707L7.89959 7.82767ZM7.72725 7.8707L7.49851 8.25259L7.49823 8.25242L7.72725 7.8707ZM6.27263 6.99798L6.04361 7.3797L6.04318 7.37944L6.27263 6.99798ZM5.96885 7.07396L6.35047 7.30316L6.35047 7.30317L5.96885 7.07396ZM5.94368 7.24158L5.51182 7.34955L5.51154 7.34843L5.94368 7.24158ZM6.04484 7.37774L5.81583 7.75947L5.81546 7.75925L6.04484 7.37774ZM6.40147 7.59169L6.63048 7.20996L6.6305 7.20997L6.40147 7.59169ZM7.49946 8.25046L7.72848 7.86874L7.72863 7.86883L7.49946 8.25046ZM7.54248 8.4228L7.92424 8.65176L7.92398 8.6522L7.54248 8.4228ZM7.37014 8.46582L7.59917 8.0841L7.59962 8.08438L7.37014 8.46582ZM6.27216 7.80706L6.50102 7.42524L6.50118 7.42534L6.27216 7.80706ZM6.10454 7.78212L5.99657 7.35026L5.99658 7.35026L6.10454 7.78212ZM5.96838 7.88304L5.58651 7.65427L5.58666 7.65401L5.96838 7.88304ZM5.94321 8.05066L5.51135 8.15863L5.5111 8.15765L5.94321 8.05066ZM6.04436 8.18682L5.81536 8.56855L5.81499 8.56833L6.04436 8.18682ZM8.27025 9.52211L8.49925 9.14037L8.49927 9.14039L8.27025 9.52211ZM9.44274 9.7333L9.5318 10.1695L9.53175 10.1695L9.44274 9.7333ZM10.3512 9.1049L9.96949 8.87593L9.96957 8.8758L10.3512 9.1049ZM10.23 7.50838L10.1859 7.06541L10.4222 7.04189L10.5733 7.225L10.23 7.50838ZM10.9486 9.46291C10.6495 9.96168 10.1592 10.2976 9.58227 10.4154L9.40408 9.54314C9.74828 9.47282 10.0204 9.27951 10.185 9.00507L10.9486 9.46291ZM9.5821 10.4155C9.01199 10.5317 8.41905 10.423 7.91228 10.1192L8.37011 9.35562C8.69429 9.54999 9.06145 9.61298 9.40426 9.5431L9.5821 10.4155ZM7.91219 10.1191L5.6863 8.78385L6.1443 8.02038L8.37019 9.35567L7.91219 10.1191ZM5.68631 8.78385C5.47698 8.65828 5.32726 8.45675 5.26787 8.21947L6.13153 8.00329C6.13274 8.00812 6.13442 8.01112 6.13592 8.01313C6.13741 8.01515 6.13986 8.01771 6.14429 8.02037L5.68631 8.78385ZM5.26772 8.21889C5.20875 7.98193 5.24605 7.73395 5.37139 7.52489L6.13498 7.9827C6.13231 7.98715 6.13133 7.99062 6.13095 7.99319C6.13056 7.99575 6.13051 7.99918 6.13168 8.00387L5.26772 8.21889ZM5.37127 7.5251C5.45382 7.38725 5.5666 7.28394 5.6877 7.21145L6.14495 7.97538C6.13953 7.97862 6.13665 7.98114 6.13549 7.98227C6.13444 7.98328 6.1346 7.98334 6.1351 7.9825L5.37127 7.5251ZM5.68039 7.9709L5.67976 7.97051L6.15163 7.21553L6.15226 7.21592L5.68039 7.9709ZM5.6867 7.97476C5.47746 7.84925 5.32754 7.64767 5.26832 7.41014L6.13219 7.19476C6.13332 7.19929 6.1349 7.20213 6.13635 7.20408C6.13781 7.20605 6.14024 7.20861 6.14469 7.21128L5.6867 7.97476ZM5.26846 7.41068C5.20893 7.17319 5.24638 6.92486 5.37178 6.71567L6.13539 7.17345C6.13266 7.17799 6.1317 7.18147 6.13133 7.18394C6.13097 7.18639 6.13091 7.18967 6.13205 7.19423L5.26846 7.41068ZM5.37206 6.71522C5.45424 6.5785 5.56653 6.47255 5.69198 6.39852L6.14446 7.16528C6.14157 7.16698 6.1396 7.16859 6.13831 7.16986C6.13708 7.17106 6.13607 7.17232 6.13511 7.17391L5.37206 6.71522ZM5.66592 7.14866C5.48611 7.02496 5.35054 6.84012 5.29474 6.61691L6.15847 6.40099C6.159 6.40309 6.1597 6.40458 6.16085 6.40621C6.1621 6.40798 6.16489 6.41127 6.17051 6.41514L5.66592 7.14866ZM5.29479 6.61711C5.23531 6.37966 5.27267 6.13132 5.39827 5.92209L6.16161 6.38031C6.15896 6.38472 6.15804 6.38807 6.15768 6.39046C6.15733 6.39283 6.15725 6.39612 6.15842 6.40079L5.29479 6.61711ZM5.39807 5.92241C5.52371 5.71272 5.72554 5.56314 5.96256 5.50389L6.17845 6.36763C6.1737 6.36882 6.17074 6.37048 6.16876 6.37194C6.16679 6.37341 6.16433 6.37576 6.1618 6.37999L5.39807 5.92241ZM5.96212 5.504C6.03586 5.48549 6.11105 5.47629 6.1859 5.47629V6.3666C6.18398 6.3666 6.1816 6.36684 6.17889 6.36752L5.96212 5.504ZM6.18636 5.47629C6.33758 5.47645 6.48179 5.51494 6.60951 5.58176L6.19679 6.37063C6.19256 6.36841 6.18953 6.36743 6.18785 6.36701C6.18622 6.36659 6.18549 6.3666 6.18543 6.3666L6.18636 5.47629ZM5.95849 5.95513C5.96616 5.79324 6.01497 5.6241 6.11915 5.47387L6.85076 5.98122C6.85205 5.97936 6.84848 5.98311 6.84781 5.99725L5.95849 5.95513ZM6.11909 5.47396C6.40105 5.06716 6.94769 4.97211 7.35765 5.21809L6.89958 5.98152C6.88661 5.97374 6.87388 5.97249 6.86391 5.97447C6.85416 5.97641 6.85148 5.98018 6.85082 5.98113L6.11909 5.47396ZM7.3576 5.21806L9.18036 6.31141L8.72239 7.0749L6.89963 5.98155L7.3576 5.21806ZM8.56218 6.90924L8.32723 6.48605L9.10562 6.05389L9.34057 6.47708L8.56218 6.90924ZM8.32768 6.48687C8.15954 6.1855 8.16625 5.81615 8.34339 5.52077L9.10692 5.97867C9.09292 6.00201 9.09302 6.03131 9.10516 6.05307L8.32768 6.48687ZM8.3435 5.52058C8.43032 5.37598 8.55363 5.25699 8.70004 5.17488L9.13554 5.95141C9.1229 5.9585 9.11312 5.96835 9.1068 5.97887L8.3435 5.52058ZM8.7022 5.17368C8.83539 5.09995 8.98066 5.06466 9.12378 5.06466V5.95497C9.12723 5.95497 9.13091 5.95398 9.13338 5.95261L8.7022 5.17368ZM9.12402 5.06466C9.42822 5.06482 9.72695 5.22531 9.88649 5.51355L9.10754 5.9447C9.1093 5.94789 9.11245 5.95102 9.11564 5.95285C9.11816 5.9543 9.12067 5.95497 9.12355 5.95497L9.12402 5.06466ZM9.88624 5.5131C10.1568 6.00066 10.6663 6.91805 10.7017 6.98131L9.92466 7.41594C9.88832 7.35098 9.37774 6.43154 9.10779 5.94514L9.88624 5.5131ZM10.6799 6.94632C10.6862 6.95546 10.7082 6.98698 10.7277 7.01479L9.99944 7.52687C9.9795 7.49853 9.95539 7.46397 9.94642 7.45093L10.6799 6.94632ZM10.7274 7.01433C10.7366 7.02738 10.7486 7.04279 10.7664 7.06418L10.081 7.63245C10.0567 7.60318 10.0282 7.56761 9.99976 7.52734L10.7274 7.01433ZM10.7671 7.06503C11.3417 7.76154 11.4128 8.68919 10.9485 9.46304L10.1851 9.00495C10.4546 8.55579 10.416 8.03848 10.0803 7.63159L10.7671 7.06503ZM10.4231 8.81265L10.4231 8.81265L10.7104 9.65534L10.7104 9.65534L10.4231 8.81265ZM9.88668 7.79188C9.85854 7.75782 9.8256 7.71666 9.79353 7.67093L10.5225 7.15975C10.5351 7.17774 10.5512 7.1984 10.5731 7.2249L9.88668 7.79188ZM9.79412 7.67177C9.7661 7.63201 9.73598 7.5898 9.71598 7.55669C9.70261 7.53455 9.68471 7.50222 9.66959 7.46103C9.65487 7.42093 9.64833 7.38658 9.64689 7.37948L10.5195 7.20279C10.5206 7.20832 10.5162 7.18375 10.5054 7.15424C10.4941 7.12364 10.4819 7.1027 10.4781 7.0964C10.4763 7.0934 10.4756 7.09243 10.477 7.09454C10.4783 7.09656 10.4807 7.10007 10.4847 7.10587C10.493 7.11789 10.5044 7.1341 10.5219 7.15891L9.79412 7.67177ZM9.70222 7.52141C9.61718 7.3807 9.417 7.02011 8.88797 6.06701L9.66641 5.63493C10.2029 6.60145 10.3903 6.9387 10.4642 7.06087L9.70222 7.52141ZM8.8879 6.06688C8.95998 6.19685 9.12407 6.24468 9.25501 6.17233L8.82443 5.39307C9.12449 5.22727 9.50096 5.33662 9.66648 5.63507L8.8879 6.06688ZM9.25708 6.17118C9.28325 6.15654 9.30651 6.13402 9.32209 6.10805L8.55851 5.65022C8.62285 5.54291 8.71297 5.45542 8.82236 5.39422L9.25708 6.17118ZM9.32205 6.10811C9.35392 6.05497 9.35608 5.98776 9.32433 5.93091L8.54698 6.36493C8.42195 6.14099 8.42788 5.86801 8.55855 5.65016L9.32205 6.10811ZM9.32488 5.9319L9.78724 6.76496L9.00878 7.19701L8.54643 6.36394L9.32488 5.9319ZM9.78718 6.76485C9.91251 6.99052 9.87088 7.27243 9.68508 7.45214L9.06611 6.81219C8.96195 6.91293 8.93873 7.07088 9.00884 7.19712L9.78718 6.76485ZM9.68571 7.45153C9.49843 7.63338 9.21526 7.66254 8.99604 7.53213L9.45121 6.76697C9.32984 6.69477 9.17127 6.71008 9.06548 6.8128L9.68571 7.45153ZM8.99462 7.53128L6.77034 6.19692L7.22835 5.43345L9.45263 6.76782L8.99462 7.53128ZM6.77048 6.197C6.81391 6.22303 6.86296 6.23062 6.90898 6.22237C6.955 6.21411 7.01435 6.18623 7.05745 6.12399L6.32551 5.61713C6.53979 5.3077 6.94716 5.26491 7.22821 5.43337L6.77048 6.197ZM7.05737 6.12411C7.09211 6.07397 7.10556 6.0069 7.08992 5.94392L6.22587 6.15856C6.17907 5.9702 6.21627 5.77475 6.32559 5.617L7.05737 6.12411ZM7.08976 5.94327C7.07518 5.88497 7.03749 5.83523 6.98799 5.80555L6.5301 6.56909C6.37881 6.47836 6.26923 6.33204 6.22603 6.1592L7.08976 5.94327ZM6.95817 5.78918C6.99838 5.80929 7.02797 5.83171 7.04669 5.84756C7.0559 5.85535 7.06303 5.86203 7.06733 5.86616C7.06952 5.86826 7.07127 5.86998 7.07233 5.87103C7.07287 5.87156 7.07331 5.872 7.07358 5.87226C7.07371 5.8724 7.07382 5.87251 7.07389 5.87258C7.07392 5.87261 7.07395 5.87264 7.07397 5.87266C7.07398 5.87266 7.07398 5.87267 7.07399 5.87268C7.07399 5.87268 7.07399 5.87268 7.07399 5.87268C7.074 5.87268 7.074 5.87268 7.074 5.87268C7.07456 5.87324 7.07131 5.86997 7.06742 5.86624C7.06315 5.86215 7.05605 5.8555 7.04687 5.84773C7.02821 5.83194 6.99869 5.80956 6.95856 5.78949L6.56032 6.58577C6.5201 6.56566 6.49052 6.54323 6.47179 6.52739C6.46258 6.5196 6.45545 6.51292 6.45115 6.50879C6.44896 6.50669 6.44721 6.50497 6.44615 6.50392C6.44561 6.50338 6.44517 6.50295 6.44491 6.50268C6.44477 6.50255 6.44466 6.50244 6.44459 6.50237C6.44456 6.50234 6.44453 6.50231 6.44451 6.50229C6.44451 6.50228 6.4445 6.50228 6.44449 6.50227C6.44449 6.50227 6.44449 6.50227 6.44449 6.50227C6.44449 6.50226 6.44449 6.50226 6.44449 6.50226C6.44393 6.5017 6.44718 6.50498 6.45106 6.5087C6.45533 6.5128 6.46243 6.51945 6.47161 6.52722C6.49027 6.54301 6.51979 6.56538 6.55992 6.58545L6.95817 5.78918ZM6.98845 5.8059L8.44277 6.67837L7.98475 7.44184L6.53043 6.56936L6.98845 5.8059ZM8.44293 6.67848C8.71317 6.84076 8.80061 7.19119 8.63854 7.46141L7.87503 7.00348C7.78438 7.15461 7.83328 7.35088 7.98458 7.44174L8.44293 6.67848ZM8.63828 7.46185C8.47639 7.73107 8.12638 7.81985 7.85533 7.65714L8.31355 6.8938C8.16175 6.80268 7.96576 6.8526 7.87529 7.00305L8.63828 7.46185ZM7.85544 7.65721L6.06998 6.58613L6.52798 5.82265L8.31344 6.89374L7.85544 7.65721ZM6.07012 6.58621C6.12013 6.61618 6.18179 6.6258 6.23996 6.61118L6.02292 5.74773C6.19561 5.70432 6.37652 5.73187 6.52783 5.82257L6.07012 6.58621ZM6.23912 6.61139C6.29693 6.59698 6.34718 6.5594 6.37731 6.50904L5.61325 6.05202C5.70426 5.89988 5.8511 5.79057 6.02375 5.74752L6.23912 6.61139ZM6.37674 6.51C6.40731 6.45918 6.41621 6.3977 6.40225 6.34123L5.53797 6.55492C5.49569 6.38392 5.52221 6.20335 5.61382 6.05107L6.37674 6.51ZM6.40197 6.34011C6.38748 6.28212 6.35003 6.23243 6.30039 6.20262L5.84198 6.96584C5.69071 6.87499 5.58137 6.72856 5.53824 6.55604L6.40197 6.34011ZM6.30014 6.20247L6.64758 6.41084L6.18966 7.17436L5.84223 6.96599L6.30014 6.20247ZM6.64764 6.41088L8.08559 7.27361L7.62755 8.03705L6.1896 7.17432L6.64764 6.41088ZM8.08574 7.2737C8.35598 7.43598 8.44342 7.78642 8.28135 8.05664L7.51784 7.59871C7.42719 7.74984 7.47609 7.9461 7.62739 8.03696L8.08574 7.2737ZM8.28109 8.05707C8.11895 8.32671 7.76897 8.41459 7.49851 8.25259L7.956 7.48881C7.80478 7.39823 7.60882 7.44741 7.5181 7.59827L8.28109 8.05707ZM7.49823 8.25242L6.04361 7.3797L6.50165 6.61626L7.95627 7.48897L7.49823 8.25242ZM6.04318 7.37944C6.15008 7.44374 6.2872 7.40851 6.35047 7.30316L5.58724 6.84476C5.77636 6.52987 6.18596 6.42636 6.50208 6.61652L6.04318 7.37944ZM6.35047 7.30317C6.38082 7.25263 6.38981 7.19129 6.37582 7.13474L5.51154 7.34843C5.46924 7.17735 5.49585 6.99692 5.58724 6.84476L6.35047 7.30317ZM6.37555 7.13362C6.36096 7.07526 6.3233 7.02574 6.27421 6.99623L5.81546 7.75925C5.66459 7.66854 5.55504 7.52244 5.51182 7.34955L6.37555 7.13362ZM6.27384 6.99601L6.63048 7.20996L6.17247 7.97342L5.81583 7.75947L6.27384 6.99601ZM6.6305 7.20997L7.72848 7.86874L7.27043 8.63218L6.17245 7.97341L6.6305 7.20997ZM7.72863 7.86883C7.99887 8.03111 8.08631 8.38154 7.92424 8.65176L7.16073 8.19383C7.07008 8.34496 7.11898 8.54123 7.27028 8.63209L7.72863 7.86883ZM7.92398 8.6522C7.76234 8.921 7.41229 9.01068 7.14066 8.84727L7.59962 8.08438C7.44724 7.9927 7.2512 8.04337 7.16099 8.1934L7.92398 8.6522ZM7.14112 8.84754L6.04313 8.18878L6.50118 7.42534L7.59917 8.0841L7.14112 8.84754ZM6.0433 8.18888C6.09344 8.21893 6.15514 8.22833 6.2125 8.21399L5.99658 7.35026C6.16909 7.30713 6.34957 7.33446 6.50102 7.42524L6.0433 8.18888ZM6.2125 8.21399C6.26978 8.19967 6.3198 8.16257 6.3501 8.11207L5.58666 7.65401C5.67784 7.50204 5.82477 7.39321 5.99657 7.35026L6.2125 8.21399ZM6.35026 8.11181C6.38017 8.06188 6.38947 8.00081 6.37532 7.94368L5.5111 8.15765C5.46864 7.98614 5.49571 7.80583 5.58651 7.65427L6.35026 8.11181ZM6.37508 7.9427C6.36049 7.88434 6.32283 7.83482 6.27374 7.80531L5.81499 8.56833C5.66412 8.47762 5.55457 8.33152 5.51135 8.15863L6.37508 7.9427ZM6.27336 7.80508L8.49925 9.14037L8.04125 9.90385L5.81536 8.56855L6.27336 7.80508ZM8.49927 9.14039C8.7698 9.30269 9.07345 9.35433 9.35374 9.29714L9.53175 10.1695C9.0226 10.2734 8.49313 10.175 8.04124 9.90384L8.49927 9.14039ZM9.35368 9.29715C9.62898 9.24093 9.84205 9.08841 9.96949 8.87593L10.733 9.33387C10.47 9.77237 10.0377 10.0662 9.5318 10.1695L9.35368 9.29715ZM9.96957 8.8758C10.1876 8.51258 10.1585 8.12099 9.88673 7.79176L10.5733 7.225C11.0842 7.84392 11.1459 8.64602 10.7329 9.33401L9.96957 8.8758ZM10.2741 7.95134L10.274 7.95136L10.1858 7.06543L10.1859 7.06541L10.2741 7.95134Z" fill="#4CAF4F" mask="url(#path-4-inside-2_212_1414)"/>
</svg>
