<svg width="17" height="17" viewBox="0 0 17 17" fill="none" xmlns="http://www.w3.org/2000/svg">
<mask id="path-1-inside-1_212_1413" fill="white">
<path d="M9.45231 7.89414C9.37192 7.89414 9.29728 7.87204 9.23097 7.83648V7.83743C9.23097 7.96391 9.18181 8.08269 9.09261 8.17165C9.00341 8.26085 8.88472 8.31001 8.75839 8.31001C8.67682 8.31001 8.60123 8.28736 8.53421 8.25086C8.52744 8.36657 8.48119 8.47472 8.39868 8.55732C8.30948 8.64652 8.19079 8.69568 8.06437 8.69568C7.81321 8.69568 7.60925 8.49825 7.59455 8.25078C7.51683 8.29279 7.42897 8.31481 7.33835 8.30899C7.09127 8.29279 6.89778 8.07931 6.89778 7.82287V5.69726L6.65574 6.11659C6.56356 6.27697 6.39099 6.37655 6.20519 6.37655C6.11465 6.37655 6.02522 6.35279 5.94601 6.30741C5.84737 6.25022 5.77682 6.15843 5.74748 6.04861C5.71798 5.93873 5.73324 5.82381 5.79027 5.72532C5.79035 5.72532 6.5822 4.35406 6.6305 4.26983C6.63624 4.25717 6.65261 4.22044 6.66653 4.18913C6.67982 4.15924 6.69123 4.12856 6.70216 4.09773C6.94096 3.42356 7.53225 3.00478 8.24536 3.00478C9.1714 3.00478 9.92479 3.82172 9.92479 4.82589L9.92487 7.42148C9.92487 7.54781 9.87578 7.6665 9.78666 7.75579C9.69746 7.84499 9.57877 7.89415 9.4523 7.89415L9.45231 7.89414ZM8.24537 3.2559C7.63262 3.2559 7.14423 3.602 6.93885 4.18171C6.92572 4.21852 6.91203 4.25533 6.89606 4.2912C6.84973 4.39511 6.84973 4.39511 6.83668 4.41006L6.83495 4.40856C6.77029 4.53056 6.57821 4.8632 6.0077 5.851C5.98426 5.89151 5.97804 5.93855 5.99 5.98354C6.00211 6.02853 6.03114 6.06644 6.07133 6.08965C6.19608 6.16131 6.36694 6.11505 6.43804 5.99117L6.91463 5.16603C6.94311 5.11687 7.00068 5.09273 7.0559 5.10767C7.1108 5.12238 7.14895 5.17217 7.14895 5.22896V7.82295C7.14895 7.94534 7.2413 8.05097 7.35481 8.05844C7.42025 8.0619 7.48129 8.03996 7.52715 7.99418C7.56884 7.95249 7.5918 7.89696 7.5918 7.83757V6.14107C7.5918 6.07169 7.64805 6.01545 7.71742 6.01545C7.7868 6.01545 7.84304 6.07162 7.84304 6.14107L7.84296 8.22319C7.84296 8.34526 7.94231 8.44461 8.06438 8.44461C8.12369 8.44461 8.17938 8.42164 8.22115 8.37995C8.26284 8.33818 8.28581 8.28249 8.28581 8.22318V6.14107C8.28581 6.07169 8.34197 6.01545 8.41142 6.01545C8.4808 6.01545 8.53704 6.07161 8.53704 6.14107L8.53696 7.81806V7.83756C8.53696 7.95956 8.63631 8.0589 8.75846 8.0589C8.81769 8.0589 8.87323 8.03586 8.91523 7.99401C8.95692 7.9524 8.97989 7.89687 8.97989 7.83748V6.14098C8.97989 6.0716 9.03605 6.01536 9.1055 6.01536C9.17488 6.01536 9.23112 6.07153 9.23112 6.14098L9.23096 7.42154C9.23096 7.5437 9.33031 7.64304 9.45231 7.64304C9.51169 7.64304 9.56722 7.62 9.60891 7.57839C9.65076 7.53654 9.67365 7.48085 9.67365 7.42154L9.67373 4.82595C9.67373 3.96032 9.03298 3.25592 8.24536 3.25592L8.24537 3.2559Z"/>
</mask>
<path d="M9.45231 7.89414C9.37192 7.89414 9.29728 7.87204 9.23097 7.83648V7.83743C9.23097 7.96391 9.18181 8.08269 9.09261 8.17165C9.00341 8.26085 8.88472 8.31001 8.75839 8.31001C8.67682 8.31001 8.60123 8.28736 8.53421 8.25086C8.52744 8.36657 8.48119 8.47472 8.39868 8.55732C8.30948 8.64652 8.19079 8.69568 8.06437 8.69568C7.81321 8.69568 7.60925 8.49825 7.59455 8.25078C7.51683 8.29279 7.42897 8.31481 7.33835 8.30899C7.09127 8.29279 6.89778 8.07931 6.89778 7.82287V5.69726L6.65574 6.11659C6.56356 6.27697 6.39099 6.37655 6.20519 6.37655C6.11465 6.37655 6.02522 6.35279 5.94601 6.30741C5.84737 6.25022 5.77682 6.15843 5.74748 6.04861C5.71798 5.93873 5.73324 5.82381 5.79027 5.72532C5.79035 5.72532 6.5822 4.35406 6.6305 4.26983C6.63624 4.25717 6.65261 4.22044 6.66653 4.18913C6.67982 4.15924 6.69123 4.12856 6.70216 4.09773C6.94096 3.42356 7.53225 3.00478 8.24536 3.00478C9.1714 3.00478 9.92479 3.82172 9.92479 4.82589L9.92487 7.42148C9.92487 7.54781 9.87578 7.6665 9.78666 7.75579C9.69746 7.84499 9.57877 7.89415 9.4523 7.89415L9.45231 7.89414ZM8.24537 3.2559C7.63262 3.2559 7.14423 3.602 6.93885 4.18171C6.92572 4.21852 6.91203 4.25533 6.89606 4.2912C6.84973 4.39511 6.84973 4.39511 6.83668 4.41006L6.83495 4.40856C6.77029 4.53056 6.57821 4.8632 6.0077 5.851C5.98426 5.89151 5.97804 5.93855 5.99 5.98354C6.00211 6.02853 6.03114 6.06644 6.07133 6.08965C6.19608 6.16131 6.36694 6.11505 6.43804 5.99117L6.91463 5.16603C6.94311 5.11687 7.00068 5.09273 7.0559 5.10767C7.1108 5.12238 7.14895 5.17217 7.14895 5.22896V7.82295C7.14895 7.94534 7.2413 8.05097 7.35481 8.05844C7.42025 8.0619 7.48129 8.03996 7.52715 7.99418C7.56884 7.95249 7.5918 7.89696 7.5918 7.83757V6.14107C7.5918 6.07169 7.64805 6.01545 7.71742 6.01545C7.7868 6.01545 7.84304 6.07162 7.84304 6.14107L7.84296 8.22319C7.84296 8.34526 7.94231 8.44461 8.06438 8.44461C8.12369 8.44461 8.17938 8.42164 8.22115 8.37995C8.26284 8.33818 8.28581 8.28249 8.28581 8.22318V6.14107C8.28581 6.07169 8.34197 6.01545 8.41142 6.01545C8.4808 6.01545 8.53704 6.07161 8.53704 6.14107L8.53696 7.81806V7.83756C8.53696 7.95956 8.63631 8.0589 8.75846 8.0589C8.81769 8.0589 8.87323 8.03586 8.91523 7.99401C8.95692 7.9524 8.97989 7.89687 8.97989 7.83748V6.14098C8.97989 6.0716 9.03605 6.01536 9.1055 6.01536C9.17488 6.01536 9.23112 6.07153 9.23112 6.14098L9.23096 7.42154C9.23096 7.5437 9.33031 7.64304 9.45231 7.64304C9.51169 7.64304 9.56722 7.62 9.60891 7.57839C9.65076 7.53654 9.67365 7.48085 9.67365 7.42154L9.67373 4.82595C9.67373 3.96032 9.03298 3.25592 8.24536 3.25592L8.24537 3.2559Z" fill="#4CAF4F"/>
<path d="M9.45231 7.89414V7.44898H11.0251L9.68562 8.27326L9.45231 7.89414ZM9.23097 7.83648H8.78582V7.09268L9.44133 7.44417L9.23097 7.83648ZM9.09261 8.17165L8.77784 7.85688L8.77826 7.85646L9.09261 8.17165ZM8.53421 8.25086L8.08981 8.22488L8.13077 7.52428L8.7471 7.85992L8.53421 8.25086ZM8.39868 8.55732L8.71362 8.87193L8.71345 8.87209L8.39868 8.55732ZM7.59455 8.25078L7.38289 7.85917L7.99749 7.52699L8.03892 8.22439L7.59455 8.25078ZM7.33835 8.30899L7.30981 8.75323L7.30922 8.75319L7.33835 8.30899ZM6.89778 5.69726L6.51224 5.47472L7.34294 4.03559V5.69726H6.89778ZM6.65574 6.11659L6.2698 5.89475L6.2702 5.89405L6.65574 6.11659ZM5.94601 6.30741L5.72469 6.69365L5.72274 6.69252L5.94601 6.30741ZM5.74748 6.04861L6.17741 5.93321L6.17755 5.93371L5.74748 6.04861ZM5.79027 5.72532L5.40503 5.50226L5.53363 5.28017H5.79027V5.72532ZM6.6305 4.26983L7.03593 4.45366L7.02719 4.47294L7.01666 4.4913L6.6305 4.26983ZM6.66653 4.18913L6.25978 4.00824L6.25978 4.00824L6.66653 4.18913ZM6.70216 4.09773L7.12177 4.24636L7.12173 4.24648L6.70216 4.09773ZM9.92479 4.82589L9.47963 4.8259V4.82589H9.92479ZM9.92487 7.42148L10.37 7.42147V7.42148H9.92487ZM9.78666 7.75579L10.1017 8.07027L10.1014 8.07056L9.78666 7.75579ZM9.4523 7.89415V8.3393H7.87954L9.21899 7.51503L9.4523 7.89415ZM8.24537 3.2559V2.81074H8.83553L8.6734 3.37819L8.24537 3.2559ZM6.93885 4.18171L7.35846 4.33036L7.35811 4.33132L6.93885 4.18171ZM6.89606 4.2912L7.30274 4.47225L7.30264 4.47248L6.89606 4.2912ZM6.83668 4.41006L7.1719 4.70295L6.88068 5.03625L6.54571 4.74696L6.83668 4.41006ZM6.83495 4.40856L6.44161 4.20011L6.70318 3.70657L7.12591 4.07166L6.83495 4.40856ZM6.0077 5.851L6.39318 6.07364L6.39299 6.07396L6.0077 5.851ZM5.99 5.98354L5.56015 6.09927L5.55978 6.09787L5.99 5.98354ZM6.07133 6.08965L5.84961 6.47566L5.84878 6.47518L6.07133 6.08965ZM6.43804 5.99117L6.05195 5.76958L6.05256 5.76852L6.43804 5.99117ZM6.91463 5.16603L6.52915 4.94339L6.52943 4.94292L6.91463 5.16603ZM7.0559 5.10767L6.9407 5.53766L6.9396 5.53737L7.0559 5.10767ZM7.35481 8.05844L7.3313 8.50301L7.32557 8.50264L7.35481 8.05844ZM7.52715 7.99418L7.84192 8.30895L7.84165 8.30923L7.52715 7.99418ZM7.84304 6.14107H8.2882V6.14109L7.84304 6.14107ZM7.84296 8.22319H7.39781V8.22317L7.84296 8.22319ZM8.22115 8.37995L8.53622 8.69443L8.53562 8.69503L8.22115 8.37995ZM8.53704 6.14107H8.9822V6.14109L8.53704 6.14107ZM8.53696 7.81806H8.09181V7.81804L8.53696 7.81806ZM8.91523 7.99401L9.22971 8.30908L9.22941 8.30937L8.91523 7.99401ZM9.23112 6.14098H9.67628V6.14104L9.23112 6.14098ZM9.23096 7.42154H8.78581L8.78581 7.42149L9.23096 7.42154ZM9.60891 7.57839L9.92369 7.89316L9.92339 7.89346L9.60891 7.57839ZM9.67365 7.42154H9.22849V7.42153L9.67365 7.42154ZM9.67373 4.82595H10.1189V4.82596L9.67373 4.82595ZM8.24536 3.25592V3.70108H7.65521L7.81734 3.13363L8.24536 3.25592ZM9.45231 8.33929C9.2884 8.33929 9.14206 8.29392 9.02061 8.2288L9.44133 7.44417C9.44708 7.44725 9.45073 7.44843 9.45219 7.44882C9.45343 7.44916 9.45327 7.44898 9.45231 7.44898V8.33929ZM9.67613 7.83648V7.83743H8.78582V7.83648H9.67613ZM9.67613 7.83743C9.67613 8.0816 9.58031 8.31396 9.40697 8.48684L8.77826 7.85646C8.78144 7.85329 8.78301 7.85057 8.78393 7.84835C8.78486 7.84612 8.78582 7.84269 8.78582 7.83743H9.67613ZM9.40738 8.48642C9.23463 8.65918 9.00268 8.75517 8.75839 8.75517V7.86486C8.76349 7.86486 8.76686 7.86393 8.76914 7.86299C8.77142 7.86204 8.77436 7.86036 8.77784 7.85688L9.40738 8.48642ZM8.75839 8.75517C8.59233 8.75517 8.44416 8.70871 8.32131 8.64181L8.7471 7.85992C8.7529 7.86307 8.75658 7.86427 8.75803 7.86467C8.75928 7.86501 8.75918 7.86486 8.75839 7.86486V8.75517ZM8.9786 8.27684C8.96579 8.49595 8.87691 8.70846 8.71362 8.87193L8.08374 8.24271C8.08539 8.24106 8.08635 8.2396 8.08716 8.23776C8.08803 8.23575 8.08941 8.23168 8.08981 8.22488L8.9786 8.27684ZM8.71345 8.87209C8.54067 9.04487 8.30871 9.14083 8.06437 9.14083V8.25052C8.06955 8.25052 8.07294 8.24958 8.07522 8.24864C8.07749 8.2477 8.08043 8.24602 8.08391 8.24255L8.71345 8.87209ZM8.06437 9.14083C7.57292 9.14083 7.17856 8.75512 7.15017 8.27718L8.03892 8.22439C8.03937 8.23196 8.04247 8.2386 8.04795 8.24383C8.05062 8.24638 8.05333 8.24801 8.05569 8.24898C8.05776 8.24983 8.06039 8.25052 8.06437 8.25052V9.14083ZM7.8062 8.6424C7.66242 8.72011 7.49193 8.76493 7.30981 8.75323L7.36689 7.86475C7.3669 7.86475 7.36785 7.86484 7.37019 7.8643C7.3727 7.86371 7.37706 7.86232 7.38289 7.85917L7.8062 8.6424ZM7.30922 8.75319C6.81495 8.72078 6.45263 8.30044 6.45263 7.82287H7.34294C7.34294 7.83792 7.3484 7.84951 7.35525 7.85707C7.36193 7.86444 7.36646 7.86472 7.36748 7.86479L7.30922 8.75319ZM6.45263 7.82287V5.69726H7.34294V7.82287H6.45263ZM7.28332 5.9198L7.04128 6.33913L6.2702 5.89405L6.51224 5.47472L7.28332 5.9198ZM7.04168 6.33842C6.86967 6.63768 6.54949 6.8217 6.20519 6.8217V5.93139C6.23248 5.93139 6.25744 5.91626 6.2698 5.89475L7.04168 6.33842ZM6.20519 6.8217C6.03685 6.8217 5.87114 6.77756 5.72469 6.69365L6.16733 5.92117C6.1793 5.92803 6.19246 5.93139 6.20519 5.93139V6.8217ZM5.72274 6.69252C5.52288 6.57666 5.37741 6.3881 5.31741 6.16352L6.17755 5.93371C6.17714 5.93219 6.17603 5.9295 6.17389 5.92671C6.17176 5.92393 6.16979 5.92259 6.16928 5.92229L5.72274 6.69252ZM5.31754 6.16402C5.2573 5.93961 5.28884 5.70293 5.40503 5.50226L6.1755 5.94838C6.17614 5.94729 6.17725 5.94475 6.17773 5.94115C6.1782 5.93754 6.1778 5.93467 6.17741 5.93321L5.31754 6.16402ZM5.79027 5.28017C5.5719 5.3374 5.40845 5.49645 5.40723 5.4985C5.40683 5.49919 5.40622 5.50022 5.40603 5.50054C5.40592 5.50073 5.40573 5.50106 5.40566 5.50117C5.40562 5.50124 5.40554 5.50138 5.40552 5.50141C5.40546 5.50152 5.40548 5.50149 5.40565 5.5012C5.40595 5.50067 5.40646 5.4998 5.4072 5.49852C5.40866 5.49599 5.41086 5.49219 5.41376 5.48717C5.41955 5.47714 5.42807 5.4624 5.43895 5.44357C5.46069 5.40593 5.49181 5.35205 5.5293 5.28712C5.6043 5.15727 5.70479 4.98324 5.80679 4.80658C6.01113 4.45267 6.22062 4.08974 6.24435 4.04837L7.01666 4.4913C6.99208 4.53416 6.78149 4.89898 6.57781 5.25175C6.4758 5.42843 6.37529 5.60248 6.30028 5.73237C6.26278 5.79731 6.23164 5.85122 6.20988 5.8889C6.199 5.90773 6.19045 5.92253 6.18461 5.93263C6.1817 5.93768 6.17944 5.94158 6.1779 5.94425C6.17713 5.94557 6.1765 5.94666 6.17604 5.94746C6.17583 5.94783 6.17556 5.94829 6.1753 5.94873C6.17521 5.94889 6.17492 5.94939 6.17458 5.94997C6.17436 5.95034 6.17374 5.95141 6.17332 5.95211C6.17208 5.95418 6.00863 6.11324 5.79027 6.17048V5.28017ZM6.22508 4.08601C6.22998 4.0752 6.2455 4.04036 6.25978 4.00824L7.07328 4.37002C7.05971 4.40052 7.04251 4.43914 7.03593 4.45366L6.22508 4.08601ZM6.25978 4.00824C6.26597 3.99433 6.27282 3.97655 6.28259 3.94898L7.12173 4.24648C7.10964 4.28058 7.09367 4.32415 7.07327 4.37002L6.25978 4.00824ZM6.28255 3.9491C6.58405 3.09791 7.34293 2.55962 8.24536 2.55962V3.44994C7.72156 3.44994 7.29787 3.74921 7.12177 4.24636L6.28255 3.9491ZM8.24536 2.55962C9.45051 2.55962 10.3699 3.6105 10.3699 4.82589H9.47963C9.47963 4.03294 8.89229 3.44994 8.24536 3.44994V2.55962ZM10.3699 4.82587L10.37 7.42147L9.47971 7.4215L9.47963 4.8259L10.3699 4.82587ZM10.37 7.42148C10.37 7.66559 10.2742 7.89743 10.1017 8.07027L9.4716 7.44131C9.47512 7.43778 9.47683 7.43479 9.4778 7.43245C9.47877 7.43011 9.47971 7.42667 9.47971 7.42148H10.37ZM10.1014 8.07056C9.92863 8.24336 9.69667 8.3393 9.4523 8.3393V7.44899C9.45753 7.44899 9.46094 7.44804 9.46322 7.4471C9.46549 7.44616 9.46842 7.44449 9.47189 7.44102L10.1014 8.07056ZM9.21899 7.51503L9.21901 7.51502L9.68562 8.27326L9.6856 8.27327L9.21899 7.51503ZM8.24537 3.70105C7.82213 3.70105 7.50119 3.92746 7.35846 4.33036L6.51925 4.03306C6.78726 3.27654 7.4431 2.81074 8.24537 2.81074V3.70105ZM7.35811 4.33132C7.34406 4.3707 7.32581 4.42043 7.30274 4.47225L6.48939 4.11016C6.49825 4.09024 6.50737 4.06635 6.51959 4.0321L7.35811 4.33132ZM7.30264 4.47248C7.28225 4.5182 7.26517 4.55682 7.2521 4.58297C7.24399 4.5992 7.23086 4.62422 7.21182 4.65193C7.19252 4.68 7.17345 4.70118 7.1719 4.70295L6.50145 4.11716C6.5025 4.11596 6.50216 4.11635 6.50163 4.11696C6.50095 4.11775 6.49922 4.11977 6.49695 4.12254C6.49188 4.12872 6.48524 4.13724 6.47808 4.14766C6.46416 4.16792 6.45637 4.18364 6.45568 4.18501C6.45518 4.18603 6.45549 4.18543 6.45701 4.18219C6.45847 4.17905 6.46055 4.17453 6.46352 4.16795C6.46961 4.15452 6.47769 4.13639 6.48949 4.10992L7.30264 4.47248ZM6.54571 4.74696L6.54398 4.74546L7.12591 4.07166L7.12764 4.07315L6.54571 4.74696ZM7.22828 4.61702C7.15861 4.74848 6.95971 5.09273 6.39318 6.07364L5.62222 5.62836C6.1967 4.63368 6.38197 4.31264 6.44161 4.20011L7.22828 4.61702ZM6.39299 6.07396C6.42861 6.0124 6.43854 5.93814 6.42022 5.8692L5.55978 6.09787C5.51754 5.93896 5.5399 5.77061 5.6224 5.62804L6.39299 6.07396ZM6.41985 5.86781C6.40153 5.79977 6.35651 5.74027 6.29389 5.70412L5.84878 6.47518C5.70577 6.39262 5.60269 6.25729 5.56015 6.09927L6.41985 5.86781ZM6.29306 5.70364C6.24239 5.67453 6.1931 5.67473 6.15907 5.68389C6.12517 5.69302 6.08171 5.71774 6.05195 5.76958L6.82412 6.21275C6.63012 6.55079 6.18673 6.6693 5.84961 6.47566L6.29306 5.70364ZM6.05256 5.76852L6.52915 4.94339L7.30011 5.38868L6.82351 6.21382L6.05256 5.76852ZM6.52943 4.94292C6.658 4.72093 6.92045 4.60984 7.1722 4.67798L6.9396 5.53737C7.08091 5.57561 7.22821 5.51281 7.29983 5.38915L6.52943 4.94292ZM7.1711 4.67768C7.42084 4.74458 7.59411 4.9709 7.59411 5.22896H6.7038C6.7038 5.37344 6.80077 5.50017 6.9407 5.53766L7.1711 4.67768ZM7.59411 5.22896V7.82295H6.7038V5.22896H7.59411ZM7.59411 7.82295C7.59411 7.77222 7.57532 7.72611 7.54447 7.69081C7.51367 7.65558 7.45932 7.6192 7.38404 7.61425L7.32557 8.50264C6.95084 8.47797 6.7038 8.15154 6.7038 7.82295H7.59411ZM7.37832 7.61391C7.32573 7.61113 7.26148 7.63039 7.21265 7.67913L7.84165 8.30923C7.7011 8.44953 7.51478 8.51268 7.3313 8.50298L7.37832 7.61391ZM7.21238 7.67941C7.17013 7.72165 7.14665 7.77954 7.14665 7.83757H8.03696C8.03696 8.01438 7.96754 8.18333 7.84192 8.30895L7.21238 7.67941ZM7.14665 7.83757V6.14107H8.03696V7.83757H7.14665ZM7.14665 6.14107C7.14665 5.82584 7.40219 5.5703 7.71742 5.5703V6.46061C7.8939 6.46061 8.03696 6.31755 8.03696 6.14107H7.14665ZM7.71742 5.5703C8.03247 5.5703 8.2882 5.82558 8.2882 6.14107H7.39788C7.39788 6.31765 7.54112 6.46061 7.71742 6.46061V5.5703ZM8.2882 6.14109L8.28812 8.2232L7.39781 8.22317L7.39788 6.14105L8.2882 6.14109ZM8.28812 8.22319C8.28812 8.09941 8.18816 7.99945 8.06438 7.99945V8.88976C7.69646 8.88976 7.39781 8.59112 7.39781 8.22319H8.28812ZM8.06438 7.99945C8.00644 7.99945 7.94884 8.0228 7.90668 8.06487L8.53562 8.69503C8.40992 8.82048 8.24094 8.88976 8.06438 8.88976V7.99945ZM7.90608 8.06547C7.86399 8.10764 7.84065 8.16525 7.84065 8.22318H8.73096C8.73096 8.39974 8.66168 8.56872 8.53622 8.69443L7.90608 8.06547ZM7.84065 8.22318V6.14107H8.73096V8.22318H7.84065ZM7.84065 6.14107C7.84065 5.82602 8.09593 5.5703 8.41142 5.5703V6.46061C8.58801 6.46061 8.73096 6.31736 8.73096 6.14107H7.84065ZM8.41142 5.5703C8.72647 5.5703 8.9822 5.82558 8.9822 6.14107H8.09189C8.09189 6.31765 8.23513 6.46061 8.41142 6.46061V5.5703ZM8.9822 6.14109L8.98212 7.81808L8.09181 7.81804L8.09189 6.14105L8.9822 6.14109ZM8.98212 7.81806V7.83756H8.09181V7.81806H8.98212ZM8.98212 7.83756C8.98212 7.71349 8.88194 7.61375 8.75846 7.61375V8.50406C8.39067 8.50406 8.09181 8.20563 8.09181 7.83756H8.98212ZM8.75846 7.61375C8.69931 7.61375 8.64205 7.6378 8.60105 7.67865L9.22941 8.30937C9.1044 8.43391 8.93607 8.50406 8.75846 8.50406V7.61375ZM8.60075 7.67894C8.55817 7.72144 8.53473 7.77952 8.53473 7.83748H9.42504C9.42504 8.01422 9.35567 8.18336 9.22971 8.30908L8.60075 7.67894ZM8.53473 7.83748V6.14098H9.42504V7.83748H8.53473ZM8.53473 6.14098C8.53473 5.82593 8.79002 5.57021 9.1055 5.57021V6.46052C9.28208 6.46052 9.42504 6.31728 9.42504 6.14098H8.53473ZM9.1055 5.57021C9.42055 5.57021 9.67628 5.82549 9.67628 6.14098H8.78597C8.78597 6.31756 8.92921 6.46052 9.1055 6.46052V5.57021ZM9.67628 6.14104L9.67612 7.4216L8.78581 7.42149L8.78597 6.14093L9.67628 6.14104ZM9.67612 7.42154C9.67612 7.29806 9.57637 7.19789 9.45231 7.19789V8.0882C9.08425 8.0882 8.78581 7.78934 8.78581 7.42154H9.67612ZM9.45231 7.19789C9.39391 7.19789 9.3363 7.22153 9.29444 7.26332L9.92339 7.89346C9.79814 8.01846 9.62947 8.0882 9.45231 8.0882V7.19789ZM9.29414 7.26362C9.25175 7.306 9.22849 7.36386 9.22849 7.42154H10.1188C10.1188 7.59784 10.0498 7.76708 9.92369 7.89316L9.29414 7.26362ZM9.22849 7.42153L9.22857 4.82593L10.1189 4.82596L10.1188 7.42156L9.22849 7.42153ZM9.22857 4.82595C9.22857 4.1656 8.74843 3.70108 8.24536 3.70108V2.81077C9.31753 2.81077 10.1189 3.75503 10.1189 4.82595H9.22857ZM7.81734 3.13363L7.81734 3.1336L8.6734 3.37819L8.67339 3.37821L7.81734 3.13363Z" fill="#4CAF4F" mask="url(#path-1-inside-1_212_1413)"/>
<path d="M3.99329 8.7522L3.9679 8.73853C3.96187 8.74939 3.94582 8.77861 3.922 8.82153C3.9309 8.826 3.93937 8.83084 3.94836 8.83423C3.96321 8.80748 3.97787 8.77997 3.99329 8.7522Z" fill="#4CAF4F" stroke="#4CAF4F" stroke-width="0.445155"/>
<mask id="path-4-inside-2_212_1413" fill="white">
<path d="M13.2271 12.2388C12.9952 12.6254 12.614 12.89 12.1535 12.984C11.697 13.0771 11.2169 12.9913 10.8015 12.7422L8.57558 11.4069C8.46727 11.3419 8.39066 11.2387 8.35998 11.1161C8.32954 10.9938 8.34857 10.8668 8.41347 10.7586C8.45397 10.6909 8.51076 10.6376 8.5766 10.5982L8.57597 10.5978C8.46766 10.5328 8.39105 10.4296 8.36053 10.3072C8.32986 10.1848 8.34889 10.0577 8.41386 9.94932C8.45571 9.87971 8.51305 9.82528 8.5785 9.78666C8.48348 9.72129 8.41504 9.62636 8.38688 9.51371C8.35621 9.39124 8.37524 9.2642 8.44021 9.15596C8.50511 9.04765 8.60839 8.97112 8.73078 8.94052C8.76901 8.93093 8.80779 8.92621 8.84618 8.92621C8.92153 8.92629 8.99547 8.9454 9.06343 8.98096C9.0676 8.89294 9.09379 8.80649 9.14523 8.73231C9.28627 8.52883 9.56881 8.47251 9.7889 8.60457L11.6117 9.69792L11.3767 9.27473C11.2866 9.11317 11.2899 8.91384 11.3854 8.75448C11.432 8.67693 11.4985 8.6125 11.5781 8.56791C11.6434 8.53172 11.7142 8.51458 11.7841 8.51458C11.9341 8.51466 12.0797 8.59379 12.1573 8.73388C12.4276 9.22087 12.9376 10.1393 12.9734 10.2034C12.9811 10.2145 13.0041 10.2475 13.0239 10.2756C13.0427 10.3023 13.063 10.3277 13.084 10.3531C13.5391 10.9048 13.594 11.6273 13.227 12.2388L13.2271 12.2388ZM12.8902 10.5132C12.8652 10.4829 12.8406 10.452 12.8183 10.4201C12.7503 10.3237 12.7486 10.3211 12.7435 10.2959C12.664 10.1645 12.4702 9.81554 11.9375 8.85574C11.8907 8.77149 11.7846 8.74074 11.7 8.78746C11.6584 8.81074 11.625 8.84323 11.6006 8.8839C11.5512 8.96625 11.5493 9.06914 11.5959 9.15268L12.0583 9.98575C12.0859 10.0355 12.0767 10.0974 12.0359 10.1369C11.9951 10.1765 11.9328 10.1834 11.8839 10.1543L9.65962 8.81994C9.55477 8.7571 9.41658 8.78172 9.35176 8.87532C9.31447 8.92912 9.3026 8.99331 9.31817 9.056C9.33249 9.11326 9.36843 9.16156 9.41932 9.19208C9.41948 9.19216 9.41956 9.19231 9.41972 9.19239L10.874 10.0649C10.9335 10.1006 10.9528 10.1777 10.9171 10.2372C10.8814 10.2966 10.8043 10.316 10.7447 10.2802L8.95926 9.20915C8.9086 9.17879 8.84898 9.16982 8.79172 9.18422C8.73429 9.19853 8.686 9.2344 8.65556 9.28529C8.62504 9.33603 8.61623 9.39557 8.63039 9.45283C8.6447 9.5101 8.68065 9.55847 8.73146 9.58899L9.0789 9.79736L10.5168 10.6601C10.5763 10.6958 10.5956 10.7729 10.5599 10.8324C10.5242 10.8918 10.4472 10.9112 10.3875 10.8755L8.93291 10.0027C8.8283 9.93981 8.69206 9.97395 8.62913 10.0787C8.59861 10.1295 8.5898 10.1891 8.60396 10.2463C8.61828 10.3036 8.65422 10.3519 8.70511 10.3825L9.06175 10.5965L10.1597 11.2552C10.2192 11.2909 10.2385 11.368 10.2028 11.4276C10.1671 11.4869 10.09 11.5065 10.0304 11.4706L8.93244 10.8118C8.88178 10.7815 8.82239 10.7725 8.76482 10.7869C8.70755 10.8012 8.6591 10.8371 8.62866 10.8878C8.59822 10.9386 8.58933 10.9982 8.60349 11.0554C8.6178 11.1127 8.65375 11.161 8.70464 11.1916L10.9305 12.5269C11.2917 12.7436 11.7083 12.8186 12.103 12.7381C12.4936 12.6583 12.8163 12.4351 13.0115 12.1097C13.327 11.5841 13.2816 10.9872 12.8903 10.5131L12.8902 10.5132Z"/>
</mask>
<path d="M13.2271 12.2388C12.9952 12.6254 12.614 12.89 12.1535 12.984C11.697 13.0771 11.2169 12.9913 10.8015 12.7422L8.57558 11.4069C8.46727 11.3419 8.39066 11.2387 8.35998 11.1161C8.32954 10.9938 8.34857 10.8668 8.41347 10.7586C8.45397 10.6909 8.51076 10.6376 8.5766 10.5982L8.57597 10.5978C8.46766 10.5328 8.39105 10.4296 8.36053 10.3072C8.32986 10.1848 8.34889 10.0577 8.41386 9.94932C8.45571 9.87971 8.51305 9.82528 8.5785 9.78666C8.48348 9.72129 8.41504 9.62636 8.38688 9.51371C8.35621 9.39124 8.37524 9.2642 8.44021 9.15596C8.50511 9.04765 8.60839 8.97112 8.73078 8.94052C8.76901 8.93093 8.80779 8.92621 8.84618 8.92621C8.92153 8.92629 8.99547 8.9454 9.06343 8.98096C9.0676 8.89294 9.09379 8.80649 9.14523 8.73231C9.28627 8.52883 9.56881 8.47251 9.7889 8.60457L11.6117 9.69792L11.3767 9.27473C11.2866 9.11317 11.2899 8.91384 11.3854 8.75448C11.432 8.67693 11.4985 8.6125 11.5781 8.56791C11.6434 8.53172 11.7142 8.51458 11.7841 8.51458C11.9341 8.51466 12.0797 8.59379 12.1573 8.73388C12.4276 9.22087 12.9376 10.1393 12.9734 10.2034C12.9811 10.2145 13.0041 10.2475 13.0239 10.2756C13.0427 10.3023 13.063 10.3277 13.084 10.3531C13.5391 10.9048 13.594 11.6273 13.227 12.2388L13.2271 12.2388ZM12.8902 10.5132C12.8652 10.4829 12.8406 10.452 12.8183 10.4201C12.7503 10.3237 12.7486 10.3211 12.7435 10.2959C12.664 10.1645 12.4702 9.81554 11.9375 8.85574C11.8907 8.77149 11.7846 8.74074 11.7 8.78746C11.6584 8.81074 11.625 8.84323 11.6006 8.8839C11.5512 8.96625 11.5493 9.06914 11.5959 9.15268L12.0583 9.98575C12.0859 10.0355 12.0767 10.0974 12.0359 10.1369C11.9951 10.1765 11.9328 10.1834 11.8839 10.1543L9.65962 8.81994C9.55477 8.7571 9.41658 8.78172 9.35176 8.87532C9.31447 8.92912 9.3026 8.99331 9.31817 9.056C9.33249 9.11326 9.36843 9.16156 9.41932 9.19208C9.41948 9.19216 9.41956 9.19231 9.41972 9.19239L10.874 10.0649C10.9335 10.1006 10.9528 10.1777 10.9171 10.2372C10.8814 10.2966 10.8043 10.316 10.7447 10.2802L8.95926 9.20915C8.9086 9.17879 8.84898 9.16982 8.79172 9.18422C8.73429 9.19853 8.686 9.2344 8.65556 9.28529C8.62504 9.33603 8.61623 9.39557 8.63039 9.45283C8.6447 9.5101 8.68065 9.55847 8.73146 9.58899L9.0789 9.79736L10.5168 10.6601C10.5763 10.6958 10.5956 10.7729 10.5599 10.8324C10.5242 10.8918 10.4472 10.9112 10.3875 10.8755L8.93291 10.0027C8.8283 9.93981 8.69206 9.97395 8.62913 10.0787C8.59861 10.1295 8.5898 10.1891 8.60396 10.2463C8.61828 10.3036 8.65422 10.3519 8.70511 10.3825L9.06175 10.5965L10.1597 11.2552C10.2192 11.2909 10.2385 11.368 10.2028 11.4276C10.1671 11.4869 10.09 11.5065 10.0304 11.4706L8.93244 10.8118C8.88178 10.7815 8.82239 10.7725 8.76482 10.7869C8.70755 10.8012 8.6591 10.8371 8.62866 10.8878C8.59822 10.9386 8.58933 10.9982 8.60349 11.0554C8.6178 11.1127 8.65375 11.161 8.70464 11.1916L10.9305 12.5269C11.2917 12.7436 11.7083 12.8186 12.103 12.7381C12.4936 12.6583 12.8163 12.4351 13.0115 12.1097C13.327 11.5841 13.2816 10.9872 12.8903 10.5131L12.8902 10.5132Z" fill="#4CAF4F"/>
<path d="M13.2271 12.2388L13.0834 11.8174L14.2339 11.4252L13.6088 12.4677L13.2271 12.2388ZM12.1535 12.984L12.2426 13.4202L12.2424 13.4202L12.1535 12.984ZM10.8015 12.7422L10.5726 13.124L10.5725 13.1239L10.8015 12.7422ZM8.57558 11.4069L8.80457 11.0251L8.80458 11.0251L8.57558 11.4069ZM8.35998 11.1161L7.92814 11.2242L7.928 11.2236L8.35998 11.1161ZM8.41347 10.7586L8.79538 10.9873L8.79526 10.9875L8.41347 10.7586ZM8.5766 10.5982L8.81254 10.2207L9.42966 10.6064L8.80522 10.9801L8.5766 10.5982ZM8.57597 10.5978L8.805 10.216L8.81191 10.2203L8.57597 10.5978ZM8.36053 10.3072L8.79233 10.199L8.79247 10.1995L8.36053 10.3072ZM8.41386 9.94932L8.03206 9.72043L8.03234 9.71998L8.41386 9.94932ZM8.5785 9.78666L8.83079 9.4199L9.40571 9.81539L8.80474 10.17L8.5785 9.78666ZM8.38688 9.51371L8.8187 9.40555L8.81875 9.40575L8.38688 9.51371ZM8.44021 9.15596L8.82208 9.38475L8.82188 9.38507L8.44021 9.15596ZM8.73078 8.94052L8.83917 9.37228L8.83873 9.37239L8.73078 8.94052ZM8.84618 8.92621V8.48105L8.84664 8.48105L8.84618 8.92621ZM9.06343 8.98096L9.50809 9.00202L9.47509 9.69872L8.85707 9.37539L9.06343 8.98096ZM9.14523 8.73231L9.5111 8.9859L9.51104 8.98599L9.14523 8.73231ZM9.7889 8.60457L9.55991 8.98631L9.55986 8.98628L9.7889 8.60457ZM11.6117 9.69792L12.0008 9.48184L12.8071 10.9341L11.3827 10.0797L11.6117 9.69792ZM11.3767 9.27473L11.7654 9.05783L11.7659 9.05865L11.3767 9.27473ZM11.3854 8.75448L11.0037 8.52553L11.0038 8.52534L11.3854 8.75448ZM11.5781 8.56791L11.3603 8.17964L11.3625 8.17844L11.5781 8.56791ZM11.7841 8.51458V8.06942L11.7843 8.06942L11.7841 8.51458ZM12.1573 8.73388L11.7681 8.9499L11.7678 8.94946L12.1573 8.73388ZM12.9734 10.2034L12.6067 10.4557L12.595 10.4387L12.5849 10.4207L12.9734 10.2034ZM13.0239 10.2756L12.66 10.5321L12.6597 10.5316L13.0239 10.2756ZM13.084 10.3531L13.4266 10.0689L13.4274 10.0698L13.084 10.3531ZM13.227 12.2388L13.3707 12.6601L12.2196 13.0525L12.8453 12.0097L13.227 12.2388ZM12.8902 10.5132L12.9343 10.9561L12.6981 10.9796L12.547 10.7966L12.8902 10.5132ZM12.8183 10.4201L13.1822 10.1637L13.1827 10.1645L12.8183 10.4201ZM12.7435 10.2959L13.1244 10.0656L13.1644 10.1318L13.1798 10.2076L12.7435 10.2959ZM11.9375 8.85574L11.5483 9.07177L11.5482 9.07164L11.9375 8.85574ZM11.7 8.78746L11.4826 8.39898L11.4847 8.39783L11.7 8.78746ZM11.6006 8.8839L11.9824 9.11281L11.9823 9.11287L11.6006 8.8839ZM11.5959 9.15268L11.9846 8.93567L11.9852 8.93666L11.5959 9.15268ZM12.0583 9.98575L11.6691 10.2019L11.6691 10.2018L12.0583 9.98575ZM12.0359 10.1369L11.7258 9.81756L11.7264 9.81695L12.0359 10.1369ZM11.8839 10.1543L11.6563 10.5369L11.6549 10.536L11.8839 10.1543ZM9.65962 8.81994L9.88849 8.43813L9.88863 8.43821L9.65962 8.81994ZM9.35176 8.87532L9.71773 9.12875L9.71764 9.12888L9.35176 8.87532ZM9.31817 9.056L8.8863 9.16396L8.88614 9.16332L9.31817 9.056ZM9.41932 9.19208L9.2202 9.59022L9.20498 9.5826L9.19038 9.57385L9.41932 9.19208ZM9.41972 9.19239L9.61884 8.79425L9.6341 8.80188L9.64872 8.81066L9.41972 9.19239ZM10.874 10.0649L11.103 9.68314L11.1032 9.68324L10.874 10.0649ZM10.9171 10.2372L11.2988 10.4662L11.2986 10.4666L10.9171 10.2372ZM10.7447 10.2802L10.9737 9.8985L10.9738 9.89856L10.7447 10.2802ZM8.95926 9.20915L9.18811 8.82733L9.18826 8.82741L8.95926 9.20915ZM8.79172 9.18422L8.90023 9.61594L8.8994 9.61615L8.79172 9.18422ZM8.65556 9.28529L9.03759 9.5138L9.03701 9.51476L8.65556 9.28529ZM8.63039 9.45283L8.19852 9.5608L8.19824 9.55968L8.63039 9.45283ZM8.73146 9.58899L8.5025 9.97075L8.50226 9.9706L8.73146 9.58899ZM9.0789 9.79736L9.30786 9.4156L9.30792 9.41564L9.0789 9.79736ZM10.5168 10.6601L10.7459 10.2784L10.746 10.2785L10.5168 10.6601ZM10.5599 10.8324L10.9416 11.0614L10.9414 11.0618L10.5599 10.8324ZM10.3875 10.8755L10.1588 11.2573L10.1585 11.2572L10.3875 10.8755ZM8.93291 10.0027L8.70389 10.3845L8.70346 10.3842L8.93291 10.0027ZM8.62913 10.0787L9.01075 10.3079L9.01074 10.3079L8.62913 10.0787ZM8.60396 10.2463L8.17209 10.3543L8.17182 10.3532L8.60396 10.2463ZM8.70511 10.3825L8.47611 10.7642L8.47574 10.764L8.70511 10.3825ZM9.06175 10.5965L9.29076 10.2147L9.29078 10.2147L9.06175 10.5965ZM10.1597 11.2552L10.3888 10.8735L10.3889 10.8736L10.1597 11.2552ZM10.2028 11.4276L10.5845 11.6565L10.5843 11.657L10.2028 11.4276ZM10.0304 11.4706L10.2594 11.0889L10.2599 11.0891L10.0304 11.4706ZM8.93244 10.8118L9.16129 10.43L9.16146 10.4301L8.93244 10.8118ZM8.76482 10.7869L8.65685 10.355L8.65686 10.355L8.76482 10.7869ZM8.62866 10.8878L8.24679 10.659L8.24694 10.6588L8.62866 10.8878ZM8.60349 11.0554L8.17162 11.1634L8.17138 11.1624L8.60349 11.0554ZM8.70464 11.1916L8.47564 11.5733L8.47527 11.5731L8.70464 11.1916ZM10.9305 12.5269L11.1595 12.1451L11.1596 12.1451L10.9305 12.5269ZM12.103 12.7381L12.1921 13.1742L12.192 13.1742L12.103 12.7381ZM13.0115 12.1097L12.6298 11.8807L12.6298 11.8806L13.0115 12.1097ZM12.8903 10.5131L12.8462 10.0702L13.0825 10.0467L13.2336 10.2298L12.8903 10.5131ZM13.6088 12.4677C13.3098 12.9664 12.8194 13.3023 12.2426 13.4202L12.0644 12.5479C12.4086 12.4776 12.6807 12.2843 12.8453 12.0098L13.6088 12.4677ZM12.2424 13.4202C11.6723 13.5364 11.0793 13.4278 10.5726 13.124L11.0304 12.3604C11.3546 12.5548 11.7217 12.6177 12.0645 12.5479L12.2424 13.4202ZM10.5725 13.1239L8.34658 11.7886L8.80458 11.0251L11.0305 12.3604L10.5725 13.1239ZM8.34659 11.7886C8.13725 11.663 7.98754 11.4615 7.92814 11.2242L8.79181 11.0081C8.79302 11.0129 8.7947 11.0159 8.79619 11.0179C8.79769 11.0199 8.80014 11.0225 8.80457 11.0251L8.34659 11.7886ZM7.928 11.2236C7.86903 10.9867 7.90633 10.7387 8.03167 10.5297L8.79526 10.9875C8.79259 10.9919 8.79161 10.9954 8.79123 10.998C8.79084 11.0005 8.79079 11.0039 8.79196 11.0086L7.928 11.2236ZM8.03155 10.5299C8.11409 10.392 8.22688 10.2887 8.34798 10.2162L8.80522 10.9801C8.79981 10.9834 8.79692 10.9859 8.79576 10.987C8.79472 10.988 8.79488 10.9881 8.79538 10.9873L8.03155 10.5299ZM8.34067 10.9757L8.34004 10.9753L8.81191 10.2203L8.81254 10.2207L8.34067 10.9757ZM8.34698 10.9795C8.13774 10.854 7.98782 10.6524 7.9286 10.4149L8.79247 10.1995C8.7936 10.204 8.79518 10.2069 8.79663 10.2088C8.79809 10.2108 8.80052 10.2134 8.80497 10.216L8.34698 10.9795ZM7.92873 10.4154C7.86921 10.1779 7.90665 9.92962 8.03206 9.72043L8.79566 10.1782C8.79294 10.1828 8.79198 10.1862 8.79161 10.1887C8.79125 10.1912 8.79119 10.1944 8.79233 10.199L7.92873 10.4154ZM8.03234 9.71998C8.11452 9.58326 8.22681 9.47731 8.35226 9.40328L8.80474 10.17C8.80184 10.1717 8.79988 10.1734 8.79859 10.1746C8.79736 10.1758 8.79635 10.1771 8.79539 10.1787L8.03234 9.71998ZM8.3262 10.1534C8.14639 10.0297 8.01082 9.84488 7.95502 9.62167L8.81875 9.40575C8.81928 9.40785 8.81998 9.40934 8.82113 9.41097C8.82238 9.41274 8.82517 9.41604 8.83079 9.4199L8.3262 10.1534ZM7.95507 9.62187C7.89559 9.38442 7.93295 9.13608 8.05854 8.92685L8.82188 9.38507C8.81924 9.38948 8.81832 9.39283 8.81796 9.39522C8.8176 9.39759 8.81753 9.40088 8.8187 9.40555L7.95507 9.62187ZM8.05835 8.92718C8.18399 8.71748 8.38582 8.5679 8.62284 8.50865L8.83873 9.37239C8.83398 9.37358 8.83102 9.37524 8.82904 9.3767C8.82707 9.37817 8.82461 9.38052 8.82208 9.38475L8.05835 8.92718ZM8.6224 8.50876C8.69614 8.49025 8.77133 8.48105 8.84618 8.48105V9.37136C8.84425 9.37136 8.84188 9.3716 8.83917 9.37228L8.6224 8.50876ZM8.84664 8.48105C8.99786 8.48121 9.14206 8.5197 9.26979 8.58652L8.85707 9.37539C8.85283 9.37317 8.84981 9.37219 8.84813 9.37177C8.8465 9.37136 8.84576 9.37136 8.84571 9.37136L8.84664 8.48105ZM8.61877 8.95989C8.62644 8.798 8.67525 8.62886 8.77943 8.47863L9.51104 8.98599C9.51233 8.98412 9.50876 8.98787 9.50809 9.00202L8.61877 8.95989ZM8.77937 8.47872C9.06133 8.07192 9.60797 7.97687 10.0179 8.22285L9.55986 8.98628C9.54689 8.9785 9.53416 8.97725 9.52419 8.97923C9.51444 8.98117 9.51176 8.98494 9.5111 8.9859L8.77937 8.47872ZM10.0179 8.22282L11.8406 9.31617L11.3827 10.0797L9.55991 8.98631L10.0179 8.22282ZM11.2225 9.914L10.9875 9.49081L11.7659 9.05865L12.0008 9.48184L11.2225 9.914ZM10.988 9.49163C10.8198 9.19026 10.8265 8.82091 11.0037 8.52553L11.7672 8.98343C11.7532 9.00677 11.7533 9.03607 11.7654 9.05783L10.988 9.49163ZM11.0038 8.52534C11.0906 8.38074 11.2139 8.26175 11.3603 8.17964L11.7958 8.95617C11.7832 8.96326 11.7734 8.97311 11.7671 8.98363L11.0038 8.52534ZM11.3625 8.17844C11.4957 8.10471 11.6409 8.06942 11.7841 8.06942V8.95973C11.7875 8.95973 11.7912 8.95874 11.7937 8.95737L11.3625 8.17844ZM11.7843 8.06942C12.0885 8.06958 12.3872 8.23007 12.5468 8.51831L11.7678 8.94946C11.7696 8.95265 11.7727 8.95578 11.7759 8.95761C11.7784 8.95906 11.781 8.95973 11.7838 8.95973L11.7843 8.06942ZM12.5465 8.51786C12.8171 9.00543 13.3266 9.92281 13.362 9.98607L12.5849 10.4207C12.5486 10.3557 12.038 9.43631 11.7681 8.9499L12.5465 8.51786ZM13.3402 9.95108C13.3465 9.96022 13.3685 9.99174 13.388 10.0196L12.6597 10.5316C12.6398 10.5033 12.6157 10.4687 12.6067 10.4557L13.3402 9.95108ZM13.3877 10.0191C13.3969 10.0321 13.4089 10.0475 13.4266 10.0689L12.7413 10.6372C12.717 10.6079 12.6884 10.5724 12.66 10.5321L13.3877 10.0191ZM13.4274 10.0698C14.0019 10.7663 14.0731 11.6939 13.6087 12.4678L12.8453 12.0097C13.1149 11.5606 13.0762 11.0432 12.7406 10.6364L13.4274 10.0698ZM13.0834 11.8174L13.0834 11.8174L13.3707 12.6601L13.3707 12.6601L13.0834 11.8174ZM12.547 10.7966C12.5188 10.7626 12.4859 10.7214 12.4538 10.6757L13.1827 10.1645C13.1954 10.1825 13.2115 10.2032 13.2334 10.2297L12.547 10.7966ZM12.4544 10.6765C12.4264 10.6368 12.3963 10.5946 12.3763 10.5614C12.3629 10.5393 12.345 10.507 12.3299 10.4658C12.3152 10.4257 12.3086 10.3913 12.3072 10.3842L13.1798 10.2076C13.1809 10.2131 13.1765 10.1885 13.1657 10.159C13.1544 10.1284 13.1422 10.1075 13.1384 10.1012C13.1365 10.0982 13.1358 10.0972 13.1372 10.0993C13.1386 10.1013 13.141 10.1048 13.145 10.1106C13.1533 10.1227 13.1647 10.1389 13.1822 10.1637L12.4544 10.6765ZM12.3625 10.5262C12.2775 10.3855 12.0773 10.0249 11.5483 9.07177L12.3267 8.6397C12.8632 9.60621 13.0506 9.94346 13.1244 10.0656L12.3625 10.5262ZM11.5482 9.07164C11.6203 9.20161 11.7843 9.24944 11.9153 9.17709L11.4847 8.39783C11.7848 8.23203 12.1612 8.34138 12.3268 8.63983L11.5482 9.07164ZM11.9174 9.17594C11.9435 9.1613 11.9668 9.13878 11.9824 9.11281L11.2188 8.65498C11.2831 8.54768 11.3733 8.46018 11.4826 8.39898L11.9174 9.17594ZM11.9823 9.11287C12.0142 9.05973 12.0164 8.99252 11.9846 8.93567L11.2073 9.36969C11.0822 9.14575 11.0882 8.87277 11.2188 8.65492L11.9823 9.11287ZM11.9852 8.93666L12.4475 9.76972L11.6691 10.2018L11.2067 9.3687L11.9852 8.93666ZM12.4475 9.76961C12.5728 9.99528 12.5312 10.2772 12.3454 10.4569L11.7264 9.81695C11.6222 9.91769 11.599 10.0756 11.6691 10.2019L12.4475 9.76961ZM12.346 10.4563C12.1587 10.6381 11.8755 10.6673 11.6563 10.5369L12.1115 9.77173C11.9901 9.69953 11.8315 9.71484 11.7258 9.81756L12.346 10.4563ZM11.6549 10.536L9.43062 9.20168L9.88863 8.43821L12.1129 9.77258L11.6549 10.536ZM9.43076 9.20176C9.47419 9.22779 9.52324 9.23538 9.56926 9.22713C9.61528 9.21888 9.67463 9.19099 9.71773 9.12875L8.98579 8.62189C9.20006 8.31246 9.60744 8.26967 9.88849 8.43813L9.43076 9.20176ZM9.71764 9.12888C9.75239 9.07873 9.76584 9.01166 9.75019 8.94868L8.88614 9.16332C8.83935 8.97496 8.87655 8.77951 8.98587 8.62176L9.71764 9.12888ZM9.75003 8.94803C9.73546 8.88973 9.69777 8.84 9.64827 8.81031L9.19038 9.57385C9.03909 9.48312 8.92951 9.3368 8.8863 9.16396L9.75003 8.94803ZM9.61844 8.79394C9.65866 8.81405 9.68824 8.83648 9.70697 8.85232C9.71618 8.86011 9.72331 8.86679 9.72761 8.87092C9.7298 8.87302 9.73155 8.87474 9.73261 8.87579C9.73315 8.87632 9.73359 8.87676 9.73385 8.87702C9.73399 8.87716 9.7341 8.87727 9.73417 8.87734C9.7342 8.87737 9.73423 8.8774 9.73425 8.87742C9.73426 8.87743 9.73426 8.87743 9.73427 8.87744C9.73427 8.87744 9.73427 8.87744 9.73427 8.87744C9.73427 8.87744 9.73428 8.87744 9.73428 8.87745C9.73484 8.87801 9.73159 8.87473 9.7277 8.871C9.72343 8.86691 9.71633 8.86026 9.70715 8.85249C9.68849 8.8367 9.65897 8.81433 9.61884 8.79425L9.2206 9.59053C9.18038 9.57042 9.1508 9.54799 9.13207 9.53215C9.12286 9.52436 9.11573 9.51768 9.11143 9.51355C9.10924 9.51145 9.10749 9.50973 9.10643 9.50868C9.10589 9.50814 9.10545 9.50771 9.10519 9.50744C9.10505 9.50731 9.10494 9.5072 9.10487 9.50713C9.10484 9.5071 9.10481 9.50707 9.10479 9.50705C9.10478 9.50704 9.10478 9.50704 9.10477 9.50703C9.10477 9.50703 9.10477 9.50703 9.10477 9.50703C9.10477 9.50702 9.10476 9.50702 9.10476 9.50702C9.1042 9.50646 9.10745 9.50974 9.11134 9.51346C9.11561 9.51756 9.12271 9.52421 9.13189 9.53198C9.15055 9.54777 9.18007 9.57014 9.2202 9.59022L9.61844 8.79394ZM9.64872 8.81066L11.103 9.68314L10.645 10.4466L9.19071 9.57412L9.64872 8.81066ZM11.1032 9.68324C11.3734 9.84552 11.4609 10.196 11.2988 10.4662L10.5353 10.0082C10.4447 10.1594 10.4936 10.3556 10.6449 10.4465L11.1032 9.68324ZM11.2986 10.4666C11.1367 10.7358 10.7867 10.8246 10.5156 10.6619L10.9738 9.89856C10.822 9.80744 10.626 9.85736 10.5356 10.0078L11.2986 10.4666ZM10.5157 10.662L8.73026 9.59089L9.18826 8.82741L10.9737 9.8985L10.5157 10.662ZM8.7304 9.59097C8.78041 9.62095 8.84207 9.63056 8.90023 9.61594L8.6832 8.75249C8.85589 8.70908 9.0368 8.73663 9.18811 8.82733L8.7304 9.59097ZM8.8994 9.61615C8.95721 9.60174 9.00746 9.56416 9.03759 9.5138L8.27353 9.05678C8.36453 8.90464 8.51137 8.79533 8.68403 8.75228L8.8994 9.61615ZM9.03701 9.51476C9.06759 9.46394 9.07649 9.40246 9.06253 9.34599L8.19824 9.55968C8.15597 9.38868 8.18249 9.20812 8.2741 9.05583L9.03701 9.51476ZM9.06225 9.34487C9.04775 9.28688 9.01031 9.23719 8.96067 9.20738L8.50226 9.9706C8.35099 9.87975 8.24165 9.73332 8.19852 9.5608L9.06225 9.34487ZM8.96042 9.20723L9.30786 9.4156L8.84994 10.1791L8.5025 9.97075L8.96042 9.20723ZM9.30792 9.41564L10.7459 10.2784L10.2878 11.0418L8.84988 10.1791L9.30792 9.41564ZM10.746 10.2785C11.0163 10.4407 11.1037 10.7912 10.9416 11.0614L10.1781 10.6035C10.0875 10.7546 10.1364 10.9509 10.2877 11.0417L10.746 10.2785ZM10.9414 11.0618C10.7792 11.3315 10.4293 11.4193 10.1588 11.2573L10.6163 10.4936C10.4651 10.403 10.2691 10.4522 10.1784 10.603L10.9414 11.0618ZM10.1585 11.2572L8.70389 10.3845L9.16193 9.62102L10.6166 10.4937L10.1585 11.2572ZM8.70346 10.3842C8.81035 10.4485 8.94747 10.4133 9.01075 10.3079L8.24752 9.84952C8.43664 9.53463 8.84624 9.43113 9.16236 9.62128L8.70346 10.3842ZM9.01074 10.3079C9.0411 10.2574 9.05009 10.1961 9.0361 10.1395L8.17182 10.3532C8.12952 10.1821 8.15613 10.0017 8.24752 9.84952L9.01074 10.3079ZM9.03582 10.1384C9.02123 10.08 8.98358 10.0305 8.93449 10.001L8.47574 10.764C8.32487 10.6733 8.21532 10.5272 8.1721 10.3543L9.03582 10.1384ZM8.93412 10.0008L9.29076 10.2147L8.83275 10.9782L8.47611 10.7642L8.93412 10.0008ZM9.29078 10.2147L10.3888 10.8735L9.93071 11.6369L8.83273 10.9782L9.29078 10.2147ZM10.3889 10.8736C10.6591 11.0359 10.7466 11.3863 10.5845 11.6565L9.821 11.1986C9.73036 11.3497 9.77926 11.546 9.93056 11.6368L10.3889 10.8736ZM10.5843 11.657C10.4226 11.9258 10.0726 12.0154 9.80094 11.852L10.2599 11.0891C10.1075 10.9975 9.91148 11.0481 9.82127 11.1982L10.5843 11.657ZM9.8014 11.8523L8.70341 11.1935L9.16146 10.4301L10.2594 11.0889L9.8014 11.8523ZM8.70358 11.1936C8.75372 11.2237 8.81542 11.2331 8.87278 11.2187L8.65686 10.355C8.82937 10.3119 9.00985 10.3392 9.16129 10.43L8.70358 11.1936ZM8.87278 11.2187C8.93006 11.2044 8.98008 11.1673 9.01038 11.1168L8.24694 10.6588C8.33812 10.5068 8.48504 10.398 8.65685 10.355L8.87278 11.2187ZM9.01053 11.1166C9.04045 11.0666 9.04974 11.0056 9.0356 10.9484L8.17138 11.1624C8.12892 10.9909 8.15599 10.8106 8.24679 10.659L9.01053 11.1166ZM9.03535 10.9475C9.02076 10.8891 8.98311 10.8396 8.93402 10.8101L8.47527 11.5731C8.3244 11.4824 8.21485 11.3363 8.17162 11.1634L9.03535 10.9475ZM8.93364 10.8098L11.1595 12.1451L10.7015 12.9086L8.47564 11.5733L8.93364 10.8098ZM11.1596 12.1451C11.4301 12.3074 11.7337 12.3591 12.014 12.3019L12.192 13.1742C11.6829 13.2781 11.1534 13.1797 10.7015 12.9086L11.1596 12.1451ZM12.014 12.3019C12.2893 12.2457 12.5023 12.0932 12.6298 11.8807L13.3933 12.3386C13.1303 12.7771 12.698 13.0709 12.1921 13.1742L12.014 12.3019ZM12.6298 11.8806C12.8479 11.5173 12.8188 11.1257 12.547 10.7965L13.2336 10.2298C13.7445 10.8487 13.8062 11.6508 13.3932 12.3388L12.6298 11.8806ZM12.9344 10.9561L12.9343 10.9561L12.8461 10.0702L12.8462 10.0702L12.9344 10.9561Z" fill="#4CAF4F" mask="url(#path-4-inside-2_212_1413)"/>
</svg>
