<svg width="12" height="9" viewBox="0 0 12 9" fill="none" xmlns="http://www.w3.org/2000/svg">
<path d="M6.27217 4.38501L4.47231 7.46756L2.67247 4.38501H6.27217ZM6.75434 4.1095H2.18835L4.47231 8.0128L6.75434 4.1095Z" fill="#263238"/>
<path d="M9.40141 0.551006L11.2012 3.63356H7.60155L9.40141 0.551006ZM9.40141 0L7.11743 3.90328H11.6854L9.40141 0Z" fill="#263238"/>
<path d="M0 0L1.91503 3.45247L4.00768 0.0866921L0 0Z" fill="#4CAF4F"/>
<path d="M4.47234 0.30249L6.48107 3.73569H2.45972L4.47234 0.30249Z" fill="#4CAF4F"/>
<path d="M6.9983 4.48523L9.00898 8.01285H4.89197L6.93582 4.48523H6.9983Z" fill="#4CAF4F"/>
<path d="M7.43359 4.27136L9.40132 7.74502L11.3964 4.27136H7.43359Z" fill="#4CAF4F"/>
</svg>
