<svg width="17" height="17" viewBox="0 0 17 17" fill="none" xmlns="http://www.w3.org/2000/svg">
<rect width="16.0256" height="16.0256" rx="2.67093" fill="#E8F5E9"/>
<g clip-path="url(#clip0_212_1586)">
<path fill-rule="evenodd" clip-rule="evenodd" d="M3.45659 0.0649414C5.30046 0.0649414 6.79525 1.55971 6.79525 3.40361V0.0649414H10.1339C11.9778 0.0649414 13.4726 1.55971 13.4726 3.40361C13.4726 5.24748 11.9778 6.74227 10.1339 6.74227C11.9778 6.74227 13.4726 8.23706 13.4726 10.0809C13.4726 10.9965 13.104 11.826 12.5072 12.4292L12.4947 12.4417L12.4836 12.4528C11.8803 13.0504 11.0502 13.4196 10.1339 13.4196C9.22383 13.4196 8.39878 13.0555 7.79652 12.4649C7.7887 12.4572 7.78089 12.4495 7.77311 12.4417C7.7658 12.4344 7.75852 12.4271 7.75128 12.4197C7.15997 11.8173 6.79525 10.9917 6.79525 10.0809C6.79525 11.9248 5.30046 13.4196 3.45659 13.4196C1.61269 13.4196 0.11792 11.9248 0.11792 10.0809V6.74227H3.45659C1.61269 6.74227 0.11792 5.24748 0.11792 3.40361C0.11792 1.55971 1.61269 0.0649414 3.45659 0.0649414ZM6.12752 3.40361C6.12752 4.87873 4.93171 6.07454 3.45659 6.07454V0.732674C4.93171 0.732674 6.12752 1.92849 6.12752 3.40361ZM12.8048 10.0809C12.8048 8.60581 11.609 7.41001 10.1339 7.41001C8.65879 7.41001 7.46298 8.60581 7.46298 10.0809H12.8048ZM0.785653 7.41001V10.0809C0.785653 11.5561 1.98147 12.7519 3.45659 12.7519C4.93171 12.7519 6.12752 11.5561 6.12752 10.0809V7.41001H0.785653ZM7.46298 6.07454V0.732674H10.1339C11.609 0.732674 12.8048 1.92849 12.8048 3.40361C12.8048 4.87873 11.609 6.07454 10.1339 6.07454H7.46298Z" fill="#5417D7"/>
</g>
<defs>
<clipPath id="clip0_212_1586">
<rect width="13.3547" height="13.3547" fill="white" transform="translate(0.11792 0.0649414)"/>
</clipPath>
</defs>
</svg>
