<svg width="17" height="17" viewBox="0 0 17 17" fill="none" xmlns="http://www.w3.org/2000/svg">
<g clip-path="url(#clip0_212_1147)">
<path d="M14.1685 3.90316C14.1685 4.05874 14.2961 4.18486 14.4536 4.18486H14.7388C14.8963 4.18486 15.024 4.05874 15.024 3.90316C15.024 3.74758 14.8963 3.62146 14.7388 3.62146H14.4536C14.2961 3.62146 14.1685 3.74758 14.1685 3.90316Z" fill="#212326"/>
<path d="M5.89841 12.6359H7.28376L6.88045 12.2375C6.7735 12.1318 6.62842 12.0725 6.47717 12.0725H5.89841C3.69342 12.0725 1.90593 10.3068 1.90593 8.12866C1.90593 5.95055 3.69342 4.18486 5.89841 4.18486H10.4613C12.6663 4.18486 14.4537 5.95055 14.4537 8.12866C14.4537 10.3068 12.6663 12.0725 10.4613 12.0725H8.75439C8.52748 12.0725 8.30988 11.9834 8.14942 11.8249L7.67694 11.3582C7.40954 11.0941 7.04684 10.9457 6.66867 10.9457H5.89841C4.32341 10.9457 3.04664 9.68445 3.04664 8.12866C3.04664 6.57286 4.32341 5.31166 5.89841 5.31166H10.4613C12.0363 5.31166 13.313 6.57286 13.313 8.12866C13.313 9.68445 12.0363 10.9457 10.4613 10.9457H9.36528C9.13837 10.9457 8.92077 10.8566 8.76032 10.6981L8.28782 10.2314C8.02041 9.96726 7.65773 9.81886 7.27956 9.81886H5.89841C4.95343 9.81886 4.18735 9.06212 4.18735 8.12866C4.18735 7.19519 4.95343 6.43846 5.89841 6.43846H10.4613C11.4062 6.43846 12.1723 7.19519 12.1723 8.12866C12.1723 9.05074 11.4248 9.80038 10.4958 9.81852L10.4956 9.81886H10.0782C9.85132 9.81886 9.63372 9.72982 9.47326 9.57134L9.00076 9.1046C8.78136 8.88785 8.4978 8.74905 8.19416 8.70621L8.17984 8.69206H5.89841C5.58342 8.69206 5.32806 8.43981 5.32806 8.12866C5.32806 7.8175 5.58342 7.56526 5.89841 7.56526H10.4613C10.7763 7.56526 11.0316 7.8175 11.0316 8.12866C11.0316 8.43981 10.7763 8.69206 10.4613 8.69206H9.32055L9.72386 9.09045C9.83081 9.1961 9.97589 9.25546 10.1271 9.25546H10.4613C11.0912 9.25546 11.602 8.75097 11.602 8.12866C11.602 7.50635 11.0912 7.00186 10.4613 7.00186H5.89841C5.26842 7.00186 4.7577 7.50635 4.7577 8.12866C4.7577 8.75097 5.26842 9.25546 5.89841 9.25546H7.99251C8.21942 9.25546 8.43702 9.3445 8.59747 9.50297L9.06998 9.96971C9.33738 10.2339 9.70006 10.3823 10.0782 10.3823H10.6038V10.3779C11.7974 10.3052 12.7427 9.32597 12.7427 8.12866C12.7427 6.88404 11.7212 5.87506 10.4613 5.87506H5.89841C4.63843 5.87506 3.61699 6.88404 3.61699 8.12866C3.61699 9.3733 4.63843 10.3823 5.89841 10.3823H7.27956C7.50647 10.3823 7.72408 10.4713 7.88453 10.6298L8.35703 11.0965C8.62444 11.3607 8.98712 11.5091 9.36528 11.5091H10.4613C12.3513 11.5091 13.8834 9.99561 13.8834 8.12866C13.8834 6.26171 12.3513 4.74826 10.4613 4.74826H5.89841C4.00842 4.74826 2.47628 6.26171 2.47628 8.12866C2.47628 9.99561 4.00842 11.5091 5.89841 11.5091H6.66867C6.89558 11.5091 7.11318 11.5981 7.27363 11.7566L7.74614 12.2233C8.01354 12.4875 8.37622 12.6359 8.75439 12.6359H10.4613C12.9812 12.6359 15.0241 10.6179 15.0241 8.12866C15.0241 5.6394 12.9812 3.62146 10.4613 3.62146L5.89841 3.62146C3.37842 3.62146 1.33557 5.6394 1.33557 8.12866C1.33557 10.6179 3.37843 12.6359 5.89841 12.6359Z" fill="#212326"/>
</g>
<defs>
<clipPath id="clip0_212_1147">
<rect width="13.6885" height="9.0144" fill="white" transform="translate(1.33557 3.62146)"/>
</clipPath>
</defs>
</svg>
