<svg width="17" height="17" viewBox="0 0 17 17" fill="none" xmlns="http://www.w3.org/2000/svg">
<g clip-path="url(#clip0_212_1124)">
<path fill-rule="evenodd" clip-rule="evenodd" d="M4.66937 4.66133L1.33545 7.96173C2.00229 8.62188 2.76406 9.17824 3.5946 9.6135C3.82417 10.2163 4.18401 10.7817 4.67411 11.2668C6.51803 13.0922 9.50757 13.0922 11.3514 11.2668C11.8416 10.7817 12.2014 10.2163 12.431 9.61347C13.2615 9.17824 14.0233 8.62188 14.6901 7.96173L11.3589 4.66402C11.3564 4.66155 11.3539 4.65908 11.3514 4.65662C9.50757 2.83126 6.51803 2.83126 4.67411 4.65662C4.67254 4.65819 4.67095 4.65976 4.66937 4.66133ZM11.0324 10.209C10.0609 10.5335 9.04099 10.6998 8.01278 10.6998C6.98457 10.6998 5.96471 10.5335 4.99316 10.209C5.09843 10.3472 5.21464 10.4799 5.34185 10.6058C6.81697 12.0661 9.20859 12.0661 10.6837 10.6058C10.8109 10.4799 10.9272 10.3472 11.0324 10.209ZM5.41032 5.25153C5.66082 5.41537 5.92718 5.55556 6.20589 5.66985C6.77874 5.90475 7.39272 6.02565 8.01278 6.02565C8.63284 6.02565 9.24682 5.90475 9.81967 5.66985C10.0984 5.55556 10.3647 5.41536 10.6153 5.25153C9.15854 3.87939 6.86702 3.87939 5.41032 5.25153Z" fill="#3B4158"/>
</g>
<defs>
<clipPath id="clip0_212_1124">
<rect width="13.3547" height="9.34826" fill="white" transform="translate(1.33545 3.2876)"/>
</clipPath>
</defs>
</svg>
