<svg width="17" height="17" viewBox="0 0 17 17" fill="none" xmlns="http://www.w3.org/2000/svg">
<g clip-path="url(#clip0_212_1121)">
<path fill-rule="evenodd" clip-rule="evenodd" d="M4.67411 1.33545C6.51799 1.33545 8.01278 2.83022 8.01278 4.67411V1.33545H11.3514C13.1953 1.33545 14.6901 2.83022 14.6901 4.67411C14.6901 6.51799 13.1953 8.01278 11.3514 8.01278C13.1953 8.01278 14.6901 9.50757 14.6901 11.3514C14.6901 12.267 14.3216 13.0965 13.7247 13.6997L13.7122 13.7122L13.7012 13.7233C13.0979 14.321 12.2678 14.6901 11.3514 14.6901C10.4414 14.6901 9.61631 14.326 9.01405 13.7354C9.00623 13.7277 8.99842 13.72 8.99064 13.7122C8.98333 13.7049 8.97605 13.6976 8.96881 13.6902C8.3775 13.0879 8.01278 12.2622 8.01278 11.3514C8.01278 13.1953 6.51799 14.6901 4.67411 14.6901C2.83022 14.6901 1.33545 13.1953 1.33545 11.3514V8.01278H4.67411C2.83022 8.01278 1.33545 6.51799 1.33545 4.67411C1.33545 2.83022 2.83022 1.33545 4.67411 1.33545ZM7.34505 4.67411C7.34505 6.14924 6.14924 7.34505 4.67411 7.34505V2.00318C6.14924 2.00318 7.34505 3.199 7.34505 4.67411ZM14.0224 11.3514C14.0224 9.87632 12.8266 8.68051 11.3514 8.68051C9.87632 8.68051 8.68051 9.87632 8.68051 11.3514H14.0224ZM2.00318 8.68051V11.3514C2.00318 12.8266 3.199 14.0224 4.67411 14.0224C6.14924 14.0224 7.34505 12.8266 7.34505 11.3514V8.68051H2.00318ZM8.68051 7.34505V2.00318H11.3514C12.8266 2.00318 14.0224 3.199 14.0224 4.67411C14.0224 6.14924 12.8266 7.34505 11.3514 7.34505H8.68051Z" fill="#263238"/>
</g>
<defs>
<clipPath id="clip0_212_1121">
<rect width="13.3547" height="13.3547" fill="white" transform="translate(1.33545 1.33545)"/>
</clipPath>
</defs>
</svg>
