<svg width="18" height="17" viewBox="0 0 18 17" fill="none" xmlns="http://www.w3.org/2000/svg">
<g clip-path="url(#clip0_212_1151)">
<path d="M4.12096 4.62305C3.44297 4.62305 2.79275 4.89238 2.31334 5.37179L0.748743 6.93639C0.26933 7.4158 0 8.06601 0 8.74401C0 10.1559 1.14453 11.3004 2.55637 11.3004C3.23437 11.3004 3.88458 11.031 4.36399 10.5516L5.44623 9.46939C5.44623 9.46937 5.44625 9.46941 5.44623 9.46939L8.59951 6.31611C8.82848 6.08714 9.13902 5.95851 9.46282 5.95851C10.0049 5.95851 10.4645 6.31184 10.6239 6.80076L11.619 5.80559C11.1651 5.09454 10.369 4.62305 9.46282 4.62305C8.78483 4.62305 8.13461 4.89238 7.6552 5.37179L3.41968 9.60732C3.19072 9.83628 2.88018 9.96491 2.55637 9.96491C1.88208 9.96491 1.33547 9.41831 1.33547 8.74401C1.33547 8.4202 1.4641 8.10966 1.69306 7.88069L3.25765 6.31611C3.48661 6.08714 3.79715 5.95851 4.12096 5.95851C4.66309 5.95851 5.12267 6.31185 5.28201 6.80079L6.2772 5.80562C5.82321 5.09456 5.02716 4.62305 4.12096 4.62305Z" fill="#394149"/>
<path d="M8.76151 9.60732C8.53254 9.83628 8.222 9.96491 7.8982 9.96491C7.35615 9.96491 6.8966 9.61168 6.73721 9.12283L5.74207 10.118C6.19608 10.8289 6.99208 11.3004 7.8982 11.3004C8.57619 11.3004 9.22641 11.031 9.70582 10.5516L13.9413 6.31611C14.1703 6.08714 14.4808 5.95851 14.8047 5.95851C15.4789 5.95851 16.0256 6.50513 16.0256 7.17942C16.0256 7.50322 15.8969 7.81377 15.668 8.04273L14.1034 9.60732C13.8744 9.83628 13.5639 9.96491 13.2401 9.96491C12.698 9.96491 12.2384 9.61161 12.079 9.12272L11.0839 10.1179C11.5379 10.8289 12.3339 11.3004 13.2401 11.3004C13.9181 11.3004 14.5683 11.031 15.0477 10.5516L16.6123 8.98704C17.0917 8.50763 17.361 7.85741 17.361 7.17942C17.361 5.76757 16.2165 4.62305 14.8047 4.62305C14.1267 4.62305 13.4764 4.89238 12.997 5.37179L8.76151 9.60732Z" fill="#394149"/>
</g>
<defs>
<clipPath id="clip0_212_1151">
<rect width="17.3611" height="6.67733" fill="white" transform="translate(0 4.62305)"/>
</clipPath>
</defs>
</svg>
