<svg width="17" height="17" viewBox="0 0 17 17" fill="none" xmlns="http://www.w3.org/2000/svg">
<g clip-path="url(#clip0_212_1131)">
<path d="M15.0228 4.4777C15.0228 4.48899 15.0228 4.5031 15.0198 4.51157C15.0051 4.62164 15.0051 4.73171 15.0139 4.8446C15.0198 4.87283 15.0257 4.90105 15.0492 4.92363C15.0875 4.96596 15.1463 4.9575 15.1698 4.90669C15.1816 4.88129 15.1816 4.85589 15.1757 4.83049C15.1463 4.72324 15.1404 4.61035 15.1375 4.50028C15.1375 4.49463 15.1375 4.48617 15.1375 4.4777C15.1698 4.47488 15.1992 4.47205 15.2257 4.47205C15.2463 4.46923 15.2639 4.46641 15.2786 4.45794C15.3227 4.43536 15.3227 4.38739 15.2757 4.36481C15.258 4.35634 15.2345 4.35352 15.2139 4.35352C15.1404 4.35634 15.0669 4.35634 14.9934 4.35634C14.9669 4.35634 14.9404 4.35916 14.914 4.36198C14.8993 4.36481 14.8816 4.36481 14.8699 4.37327C14.8493 4.38174 14.8375 4.39585 14.8375 4.41561C14.8405 4.43536 14.8493 4.44665 14.8699 4.45512C14.8816 4.46359 14.8963 4.46641 14.911 4.46641C14.9463 4.46923 14.9846 4.47488 15.0228 4.4777ZM15.8314 4.60753C15.8314 4.61035 15.8344 4.61317 15.8344 4.61317C15.8461 4.68937 15.8579 4.76275 15.8667 4.83613C15.8697 4.86153 15.8726 4.88411 15.8903 4.90387C15.9285 4.95185 15.9873 4.9462 16.0138 4.8954C16.0255 4.87 16.0285 4.8446 16.0226 4.81638C16.0049 4.73171 15.9961 4.64704 15.9785 4.56519C15.9667 4.51439 15.952 4.46641 15.9373 4.42125C15.9285 4.39303 15.9079 4.37327 15.8726 4.37045C15.8373 4.36481 15.8109 4.38174 15.7962 4.40714C15.7785 4.42972 15.7638 4.4523 15.752 4.4777C15.7315 4.52286 15.7138 4.56801 15.6903 4.61035C15.6873 4.62164 15.6844 4.63011 15.6785 4.63857C15.6756 4.63293 15.6727 4.63011 15.6727 4.63011C15.6344 4.55955 15.5991 4.48899 15.5609 4.42125C15.555 4.41561 15.5521 4.40996 15.5491 4.40432C15.5315 4.37892 15.5109 4.36481 15.4786 4.36481C15.4492 4.36763 15.4256 4.38456 15.4109 4.40996C15.405 4.42125 15.405 4.42972 15.4021 4.44101C15.3903 4.53132 15.3756 4.62164 15.3639 4.71195C15.358 4.76276 15.3551 4.81356 15.3551 4.86436C15.3521 4.87565 15.3551 4.88976 15.3609 4.90105C15.3668 4.92363 15.3845 4.93774 15.408 4.94056C15.4374 4.94338 15.458 4.93492 15.4668 4.91234C15.4756 4.8954 15.4786 4.88129 15.4815 4.86718C15.4933 4.81638 15.5021 4.7684 15.5109 4.72042C15.5168 4.6922 15.5197 4.66962 15.5286 4.63857C15.5344 4.64986 15.5403 4.65833 15.5462 4.66679C15.5727 4.70066 15.5991 4.73453 15.6315 4.76275C15.6638 4.78533 15.6903 4.78251 15.7168 4.75711C15.7226 4.75146 15.7256 4.74864 15.7315 4.743C15.7579 4.70348 15.7903 4.66397 15.8167 4.62446C15.8226 4.61881 15.8256 4.61317 15.8314 4.60753Z" fill="#3A3B7B"/>
<path d="M9.05591 4.53311C9.03547 4.58675 9.03157 4.62539 9.04101 4.65751C9.05143 4.70118 9.07849 4.71548 9.11521 4.70437C9.4606 4.6224 10.218 4.85508 10.4984 4.91993C10.5645 4.93355 10.6183 4.85161 10.5732 4.77815C10.5074 4.70701 9.7503 4.40242 9.46143 4.38582C9.34821 4.37967 9.14578 4.35181 9.05591 4.53311Z" fill="#3A3B7B"/>
<path d="M12.0159 3.54714C12.0527 3.56753 12.0733 3.58698 12.0835 3.60871C12.0986 3.63722 12.0906 3.65695 12.0652 3.66701C11.8369 3.77396 11.5331 4.23439 11.4104 4.39319C11.3807 4.42972 11.3121 4.40849 11.3018 4.34842C11.3039 4.2805 11.5732 3.78083 11.7235 3.64473C11.7826 3.5916 11.8802 3.48734 12.0159 3.54714Z" fill="#3A3B7B"/>
<path d="M10.1978 3.32056C10.242 3.28857 10.2879 3.27736 10.3114 3.29815C10.6559 3.5809 10.8386 4.02866 10.9517 4.43858C10.9559 4.44813 10.9562 4.46183 10.9528 4.47613C10.9514 4.48835 10.9421 4.50125 10.9273 4.51124C10.9115 4.52227 10.8979 4.52563 10.8916 4.51613C10.7406 4.31903 9.87827 3.55219 10.1978 3.32056Z" fill="#3A3B7B"/>
<path d="M2.90305 8.22275C2.98561 8.16375 3.07536 8.11464 3.17034 8.07653C3.26972 8.04926 3.37564 8.05377 3.4721 8.08942C3.56853 8.12507 3.65029 8.18987 3.70494 8.27406C3.75383 8.35804 3.77295 8.45499 3.75946 8.55031C3.74596 8.64562 3.70057 8.73414 3.63009 8.80255C3.57546 8.85801 3.51343 8.90631 3.44567 8.94622C3.14362 9.13351 2.83889 9.31051 2.53417 9.4978C2.47182 9.54467 2.40567 9.58672 2.33637 9.62351C2.23095 9.67397 2.11047 9.68748 1.99577 9.66171C1.88107 9.63597 1.77935 9.57253 1.70822 9.48242C1.65504 9.4186 1.61016 9.34883 1.57456 9.2746C1.28588 8.69224 0.986508 8.11244 0.708516 7.51981C0.580211 7.26327 0.475965 6.96823 0.374391 6.68347C0.330446 6.60073 0.321864 6.50481 0.350474 6.41609C0.379084 6.32736 0.442627 6.25285 0.527588 6.2084C0.61255 6.16395 0.712224 6.15308 0.805414 6.17808C0.898605 6.20308 0.977961 6.26199 1.0266 6.34226C1.17611 6.53295 1.30846 6.73551 1.4222 6.94772C1.71089 7.46081 1.98621 7.9739 2.2642 8.4716C2.28039 8.49911 2.29823 8.52565 2.31766 8.55113C2.52689 8.4667 2.72369 8.3563 2.90305 8.22275Z" fill="#3A3B7B"/>
<path d="M5.88782 8.04376C5.2276 8.78517 4.12098 8.59789 3.565 7.64354C3.16938 6.96625 3.09989 5.8477 3.96061 5.14219C4.1444 4.99449 4.36418 4.89387 4.59944 4.84973C4.8879 4.81004 5.18205 4.85888 5.43984 4.98928C5.69764 5.11967 5.90589 5.32495 6.03485 5.57576C6.50529 6.39672 6.43846 7.44342 5.88782 8.04376ZM5.62052 6.31462C5.55038 6.11288 5.40967 5.94065 5.22224 5.82717C5.11619 5.75462 4.98732 5.71934 4.85734 5.72729C4.72735 5.73523 4.60419 5.78591 4.50856 5.87078C4.12633 6.19661 4.04613 6.96882 4.32412 7.42804C4.35956 7.50292 4.41159 7.56947 4.47662 7.62303C4.54165 7.67659 4.61809 7.71587 4.70058 7.73809C4.78308 7.76034 4.86963 7.765 4.95421 7.75178C5.03878 7.73853 5.11931 7.70772 5.19019 7.66149C5.39739 7.5073 5.54939 7.295 5.62507 7.05409C5.70077 6.81316 5.69638 6.55559 5.61252 6.31719L5.62052 6.31462Z" fill="#3A3B7B"/>
<path d="M8.58225 6.63781C8.51466 6.65177 8.44483 6.6526 8.37689 6.64026C8.30897 6.62791 8.24427 6.60267 8.18666 6.56599C8.13624 6.53831 8.09285 6.50026 8.05958 6.45456C8.02634 6.40885 8.00405 6.35666 7.99435 6.30169C7.98462 6.24674 7.98773 6.19041 8.0034 6.13674C8.01909 6.08307 8.047 6.03341 8.08509 5.99131C8.15144 5.90673 8.24564 5.84617 8.35239 5.81943C8.63109 5.7418 8.91801 5.69447 9.20774 5.67834C9.27141 5.67123 9.3359 5.6764 9.39743 5.69354C9.45899 5.71071 9.51633 5.73947 9.56614 5.7782C9.61593 5.8169 9.65718 5.86478 9.68744 5.919C9.71768 5.97322 9.73635 6.0327 9.74234 6.09394C9.82586 6.39475 9.83501 6.71014 9.76906 7.01496C9.5285 8.00009 8.69987 8.33872 7.76966 8.02317C7.50855 7.93881 7.27961 7.7816 7.11211 7.57166C6.88871 7.31882 6.73031 7.01918 6.64968 6.69683C6.58436 6.40978 6.59151 6.11192 6.67057 5.82808C6.74961 5.54424 6.89826 5.28266 7.10409 5.06518C7.29943 4.82881 7.55296 4.64279 7.84185 4.52387C8.02439 4.4273 8.23799 4.39984 8.4406 4.4469C8.48655 4.45911 8.52827 4.4829 8.56142 4.5158C8.59458 4.5487 8.61796 4.58951 8.62914 4.63401C8.64033 4.6785 8.6389 4.72506 8.62502 4.76885C8.61112 4.81263 8.5853 4.85206 8.55019 4.88303C8.48344 4.94103 8.41092 4.99259 8.33367 5.03696C8.09603 5.18221 7.88923 5.36937 7.72422 5.58854C7.61606 5.73036 7.54157 5.89321 7.50602 6.06562C7.47044 6.23803 7.47468 6.41583 7.51842 6.58652C7.57903 6.81924 7.71355 7.02814 7.90331 7.18426C8.49137 7.69737 9.25585 7.20222 9.1222 6.50185C8.92709 6.54803 8.756 6.59678 8.58225 6.63781Z" fill="#3A3B7B"/>
<path d="M12.1747 8.08474C11.306 8.59785 10.317 8.08474 10.1005 7.00726C9.94276 6.23761 10.2421 5.16011 11.29 4.74963C11.5129 4.66418 11.7547 4.63417 11.9929 4.6624C12.2792 4.7127 12.5418 4.84794 12.7437 5.04908C12.9455 5.25022 13.0766 5.5071 13.1183 5.78352C13.2947 6.69939 12.8937 7.67684 12.1747 8.08474ZM12.4768 6.35818C12.4765 6.14506 12.398 5.93883 12.2549 5.77582C12.1784 5.67499 12.0679 5.60275 11.9422 5.5714C11.8164 5.54006 11.6832 5.55155 11.5653 5.60394C11.0948 5.7989 10.7634 6.50698 10.8837 7.02779C10.8928 7.10951 10.9205 7.18833 10.9647 7.25873C11.009 7.32912 11.0687 7.38939 11.1397 7.43534C11.2107 7.48126 11.2914 7.51176 11.3759 7.52468C11.4606 7.53757 11.5471 7.5326 11.6294 7.51009C11.8781 7.42671 12.0934 7.2709 12.2453 7.06438C12.3972 6.85786 12.4781 6.61097 12.4768 6.35818Z" fill="#3A3B7B"/>
<path d="M13.9968 8.30032C13.9837 8.39422 13.9322 8.47927 13.8538 8.53677C13.7753 8.59424 13.6763 8.61948 13.5785 8.6069C13.4806 8.59431 13.392 8.54493 13.3321 8.46963C13.2722 8.39435 13.2459 8.29929 13.259 8.2054C13.2722 8.1115 13.3236 8.02645 13.402 7.96895C13.4805 7.91146 13.5795 7.88624 13.6774 7.89882C13.7752 7.91141 13.8638 7.96077 13.9237 8.03607C13.9836 8.11137 14.0099 8.20643 13.9968 8.30032ZM13.7642 4.83948C13.8151 4.76497 13.8896 4.70822 13.9768 4.6777C14.064 4.64719 14.1592 4.64454 14.248 4.67016C14.3384 4.69186 14.4182 4.7427 14.4742 4.81415C14.5302 4.88561 14.5588 4.97335 14.5554 5.06268C14.5437 5.20597 14.5213 5.34828 14.4886 5.48855C14.4004 5.96317 14.3149 6.43777 14.2213 6.90726C14.1786 7.09455 14.1224 7.27413 14.0609 7.46396C14.0395 7.52331 14.0038 7.57694 13.9567 7.62046C13.9274 7.65321 13.89 7.67831 13.8479 7.69348C13.8058 7.70866 13.7604 7.71339 13.7159 7.70725C13.6714 7.70111 13.6292 7.6843 13.5933 7.65838C13.5573 7.63243 13.5288 7.59822 13.5103 7.55889C13.4785 7.48835 13.4613 7.41254 13.4595 7.3357C13.4595 7.01757 13.4595 6.6969 13.4809 6.3762C13.5172 5.91854 13.5887 5.46407 13.6947 5.0165C13.7072 4.95654 13.7307 4.8992 13.7642 4.84718V4.83948Z" fill="#3A3B7B"/>
<path fill-rule="evenodd" clip-rule="evenodd" d="M1.7737 10.3619C1.74214 10.4295 1.73348 10.5049 1.7489 10.5774C1.75916 10.673 1.7817 10.7671 1.816 10.8575C1.85882 10.9681 1.90673 11.0775 1.96581 11.2124C1.9794 11.2434 1.9936 11.2758 2.00846 11.3099C2.08813 11.4926 2.1881 11.726 2.32145 12.0639C2.35919 12.1599 2.39271 12.2567 2.42646 12.3541C2.44009 12.3935 2.45377 12.433 2.46778 12.4726C2.51798 12.6133 2.60437 12.7397 2.71887 12.84C2.7675 12.895 2.83199 12.9352 2.90431 12.9552C2.97803 12.9757 3.05645 12.9744 3.12939 12.9515C3.20234 12.9286 3.2664 12.8852 3.31328 12.8268C3.35923 12.7696 3.38656 12.7007 3.39187 12.6287C3.42168 12.4885 3.41151 12.343 3.36237 12.2078C3.28438 11.9833 3.19554 11.7585 3.0931 11.5385L3.09263 11.5376C2.9241 11.1935 2.75279 10.8518 2.57338 10.51L2.57203 10.5076C2.51951 10.4185 2.45125 10.3389 2.37033 10.2723C2.31779 10.2129 2.24533 10.1728 2.1653 10.159C2.08357 10.1449 1.99927 10.1591 1.92746 10.1991C1.85953 10.2364 1.80568 10.2933 1.7737 10.3619Z" fill="#3A3B7B"/>
<path fill-rule="evenodd" clip-rule="evenodd" d="M4.3477 9.51468C4.08346 9.449 3.80748 9.43943 3.53902 9.48665C3.33108 9.5063 3.12657 9.55233 2.98456 9.64352C2.91234 9.68993 2.85394 9.74952 2.82146 9.82526C2.7888 9.90142 2.78463 9.98851 2.81139 10.0856C2.86026 10.2633 2.92373 10.4361 2.98696 10.6084L2.99721 10.6363L2.99745 10.6369C3.18786 11.1374 3.38009 11.6362 3.57406 12.1333C3.59668 12.2116 3.62866 12.2872 3.66937 12.3584L3.67014 12.3598C3.72391 12.4483 3.79289 12.5275 3.87415 12.594C3.91479 12.6306 3.96505 12.6559 4.01955 12.6672C4.07458 12.6786 4.13181 12.6753 4.185 12.6576C4.23822 12.6399 4.28534 12.6086 4.32125 12.567C4.35658 12.526 4.37972 12.4767 4.38821 12.4242C4.42327 12.2815 4.41204 12.132 4.356 11.9957C4.33851 11.9498 4.32479 11.9029 4.31034 11.8535C4.30552 11.8371 4.30063 11.8203 4.29547 11.8033C4.73948 11.6367 5.21192 11.4127 5.37805 10.8916C5.4431 10.7116 5.44852 10.5166 5.39356 10.3334C5.33855 10.1501 5.22568 9.98752 5.07051 9.86821C4.85932 9.7012 4.61263 9.58052 4.3477 9.51468ZM3.61524 10.1538C3.62398 10.1514 3.63279 10.1491 3.64162 10.1471C3.93069 10.1034 4.22643 10.1616 4.4744 10.3107C4.58369 10.3836 4.62845 10.4647 4.63614 10.5426C4.64408 10.6229 4.61366 10.7099 4.55255 10.7936C4.43708 10.9516 4.22636 11.078 4.03602 11.1016C3.89726 10.7949 3.75635 10.4758 3.61524 10.1538Z" fill="#3A3B7B"/>
<path d="M6.10948 8.95325C6.42416 8.81376 6.81397 8.78967 7.11899 8.88774C7.19581 8.90922 7.26246 8.95567 7.30754 9.01916C7.35233 9.08224 7.373 9.15827 7.36609 9.23427C7.36564 9.28361 7.35302 9.33215 7.32928 9.37594C7.30512 9.42052 7.27013 9.45886 7.22727 9.48773C7.1844 9.51657 7.13493 9.53512 7.08304 9.54175C7.03112 9.54839 6.97833 9.54294 6.92908 9.52584L6.92533 9.52454L6.92181 9.52276C6.89662 9.51011 6.86985 9.50058 6.84217 9.49437L6.84042 9.494C6.62585 9.43929 6.42345 9.52993 6.34951 9.6413C6.31425 9.6944 6.30988 9.748 6.33925 9.79676C6.3707 9.84898 6.44784 9.90758 6.60392 9.94934C6.64685 9.96065 6.69085 9.97157 6.73549 9.98266C6.85891 10.0133 6.98718 10.0452 7.11121 10.0894L7.11168 10.0895C7.68389 10.2985 7.89697 10.7313 7.82402 11.1383C7.75186 11.5408 7.4016 11.9072 6.87487 11.9936C6.68321 12.0344 6.48375 12.0264 6.29623 11.9706C6.10824 11.9145 5.9388 11.8123 5.80472 11.6739L5.80122 11.6703C5.7589 11.6181 5.73043 11.5569 5.71781 11.4919C5.7062 11.4333 5.71232 11.3727 5.73541 11.3173C5.75836 11.2622 5.79719 11.2145 5.84729 11.1797C5.90022 11.1403 5.96401 11.1167 6.03079 11.1118C6.09735 11.1069 6.16395 11.1207 6.22239 11.1517C6.28076 11.1788 6.33506 11.2133 6.38379 11.2543L6.38471 11.2551C6.47092 11.3308 6.57523 11.3505 6.67525 11.3322C6.77673 11.3137 6.87216 11.2561 6.93354 11.1796C6.99451 11.1036 7.01899 11.0133 6.98994 10.9257C6.96071 10.8375 6.87281 10.7386 6.67969 10.6559C6.62921 10.6353 6.57687 10.6187 6.52242 10.6026C6.50773 10.5982 6.4928 10.5939 6.47769 10.5895C6.43743 10.5778 6.39601 10.5657 6.35539 10.5524C6.32741 10.5432 6.29966 10.5345 6.27218 10.5259C6.19706 10.5025 6.12382 10.4796 6.05334 10.4489C5.89995 10.3987 5.76742 10.3025 5.67549 10.1744C5.58318 10.0457 5.53673 9.89189 5.54305 9.73583C5.54354 9.35552 5.79311 9.09351 6.10948 8.95325Z" fill="#3A3B7B"/>
<path d="M10.099 8.91265C10.0379 8.88405 9.97047 8.87047 9.90264 8.87313C9.83478 8.87582 9.7687 8.89465 9.71035 8.92799C9.65236 8.96108 9.6038 9.00743 9.56901 9.0629C9.53711 9.10962 9.51503 9.16186 9.50402 9.21671C9.49302 9.27153 9.49329 9.32786 9.50479 9.38254C9.51615 9.45283 9.52875 9.52117 9.54119 9.58857C9.56179 9.70012 9.58183 9.80915 9.59506 9.92032L9.59555 9.92314C9.62566 10.0975 9.64142 10.2738 9.64283 10.4505L9.64296 10.453C9.65325 10.6438 9.58551 10.8309 9.45426 10.9746L9.45217 10.9772C9.40947 11.0297 9.35237 11.0698 9.28725 11.093C9.22216 11.1161 9.15163 11.1215 9.08355 11.1084C9.01547 11.0952 8.95255 11.0642 8.9018 11.0187C8.85105 10.9733 8.81444 10.9149 8.79617 10.8507C8.75717 10.7152 8.73459 10.5758 8.72885 10.4354L8.79548 9.41738C8.79646 9.40409 8.79758 9.39044 8.79873 9.37667C8.80126 9.34575 8.80386 9.31426 8.80494 9.28489C8.8065 9.24167 8.80516 9.19722 8.79467 9.15514C8.78393 9.11215 8.76351 9.07124 8.72728 9.03641C8.69142 9.00193 8.643 8.97649 8.58207 8.95917C8.47189 8.92856 8.37873 8.92953 8.3011 8.96115C8.22342 8.99277 8.17021 9.05148 8.13254 9.1193C8.09518 9.18655 8.07117 9.26616 8.05301 9.3459C8.03954 9.40508 8.02871 9.4672 8.01842 9.52632C8.01486 9.5467 8.01138 9.5667 8.00786 9.58613L8.00777 9.5867C7.95272 9.91097 7.93633 10.2402 7.95893 10.568C7.96314 10.7452 8.00163 10.9201 8.07247 11.0837C8.15238 11.2949 8.29713 11.4778 8.4876 11.6084C8.67848 11.7393 8.90626 11.8114 9.14078 11.8152C9.37531 11.819 9.60551 11.7543 9.80089 11.6298C9.99596 11.5054 10.1471 11.3271 10.2344 11.1185C10.3565 10.8528 10.4139 10.5638 10.402 10.2736C10.3949 10.0618 10.3829 9.84828 10.3709 9.63586C10.365 9.53167 10.3592 9.4277 10.3539 9.32436C10.3513 9.22074 10.3157 9.12038 10.2519 9.03674C10.2124 8.98386 10.1599 8.94121 10.099 8.91265Z" fill="#3A3B7B"/>
<path d="M12.2587 10.509C12.2525 10.5166 12.246 10.5244 12.2391 10.5325C12.1895 10.2577 12.1435 9.98299 12.0974 9.70787C12.0809 9.60915 12.0643 9.51002 12.0476 9.41118L12.0457 9.40015L12.0396 9.39062C12.0281 9.37269 12.027 9.35511 12.027 9.31761V9.31328L12.0263 9.30899C12.0138 9.23155 11.9773 9.15948 11.9216 9.10223C11.866 9.04513 11.7938 9.00538 11.7144 8.98813C11.6351 8.96936 11.5518 8.9735 11.4749 9.00004C11.3982 9.02651 11.3314 9.07408 11.2828 9.1368C11.2423 9.18492 11.2092 9.23831 11.1843 9.29534C11.1279 9.41822 11.0711 9.5414 11.014 9.66491L11.0131 9.66705C10.8707 9.9754 10.7274 10.2858 10.5882 10.5987L10.5878 10.5997C10.5023 10.8026 10.4318 11.0163 10.3615 11.2294C10.3475 11.2719 10.3335 11.3145 10.3193 11.3569C10.294 11.4241 10.2829 11.4955 10.2867 11.5669C10.2821 11.6309 10.298 11.6946 10.3324 11.7496C10.3674 11.8057 10.42 11.8499 10.4825 11.8759C10.5488 11.9038 10.623 11.9097 10.6932 11.8927C10.7633 11.8757 10.8255 11.8369 10.8701 11.7824C10.927 11.7151 10.976 11.6418 11.016 11.5641C11.1338 11.3327 11.2465 11.0984 11.3587 10.8652C11.4021 10.7749 11.4442 10.6941 11.4922 10.6061C11.4955 10.617 11.4989 10.6276 11.5023 10.6382C11.5526 10.8506 11.6375 11.0541 11.7538 11.2412C11.7758 11.2809 11.8065 11.3155 11.8437 11.3428C11.8814 11.3704 11.9248 11.3897 11.9711 11.3996C12.0173 11.4094 12.0652 11.4094 12.1115 11.3997C12.1577 11.39 12.2013 11.3706 12.239 11.3431L12.3136 11.2895L12.8924 10.8216L12.8582 11.0309C12.8112 11.3187 12.7646 11.6041 12.7151 11.8896C12.6826 12.0161 12.6827 12.1483 12.7152 12.2748C12.7293 12.346 12.7651 12.4115 12.8182 12.463C12.8717 12.515 12.9403 12.5503 13.015 12.5644C13.0897 12.5784 13.1671 12.5706 13.2371 12.542C13.3061 12.5137 13.3648 12.4665 13.4058 12.4063C13.5012 12.2927 13.5606 12.1551 13.577 12.0099C13.6015 11.8049 13.6293 11.5971 13.6571 11.3894C13.689 11.15 13.721 10.9106 13.748 10.6758L13.7481 10.6751C13.7741 10.4181 13.7867 10.16 13.7858 9.90184C13.7915 9.82025 13.7704 9.73896 13.7253 9.66949C13.68 9.59978 13.613 9.54558 13.5338 9.51458C13.4514 9.47862 13.3591 9.469 13.2706 9.48718C13.1826 9.50522 13.103 9.54972 13.0433 9.61417C12.9366 9.70895 12.8364 9.81037 12.7435 9.91777L12.7429 9.9185C12.6414 10.0398 12.5407 10.1635 12.4406 10.2864C12.3797 10.3611 12.319 10.4356 12.2587 10.509Z" fill="#3A3B7B"/>
</g>
<defs>
<clipPath id="clip0_212_1131">
<rect width="15.6917" height="9.68213" fill="white" transform="translate(0.333862 3.2876)"/>
</clipPath>
</defs>
</svg>
