<svg width="19" height="17" viewBox="0 0 19 17" fill="none" xmlns="http://www.w3.org/2000/svg">
<g clip-path="url(#clip0_212_1127)">
<path d="M18.3612 6.51597C18.3631 6.50205 18.3631 6.48798 18.3612 6.47406C18.363 6.46271 18.363 6.45115 18.3612 6.43978L18.2252 5.46066C18.2056 5.34352 18.1531 5.23404 18.0737 5.14445L18.0503 5.11778L18.0076 5.07587L15.6526 3.08717L15.7187 3.15194C15.6646 3.08855 15.5968 3.03784 15.5201 3.00356C15.4435 2.96927 15.3599 2.95228 15.2757 2.95383H14.5606C14.4444 2.95158 14.3308 2.98782 14.2381 3.0567C14.1408 2.98823 14.0237 2.95218 13.9039 2.95383H13.1889C13.0951 2.95234 13.0026 2.97516 12.9207 3.01998C12.8388 3.06481 12.7704 3.13004 12.7225 3.20909C12.6487 3.32199 12.6209 3.45801 12.6448 3.59007L12.7342 4.20725C12.675 4.17434 12.608 4.15726 12.5399 4.15773H9.0774C8.95317 4.15849 8.8318 4.19419 8.72764 4.26058C8.62693 4.32239 8.54608 4.41088 8.49449 4.51584L8.22634 4.29106C8.12081 4.19533 7.98151 4.14345 7.83774 4.14629H2.40502C2.28035 4.14852 2.15845 4.18267 2.0514 4.24535C1.90494 4.32939 1.79761 4.46603 1.75216 4.62632L0.0267483 10.2838C-0.00549049 10.3771 -0.0086619 10.4776 0.0176402 10.5726C0.0439424 10.6676 0.0985269 10.7528 0.174421 10.8172C0.194196 10.8336 0.21496 10.8489 0.236599 10.8629C0.236599 10.8629 0.201619 10.8401 0.182188 10.821L2.53716 12.8135C2.63678 12.9035 2.76702 12.9537 2.90242 12.9545H8.37791C8.50296 12.9513 8.62494 12.9158 8.73155 12.8516C8.79184 12.8193 8.84578 12.7767 8.89087 12.7259L8.9103 12.6992L8.94139 12.6611L8.9647 12.6192L9.22119 12.8364C9.31938 12.9227 9.4468 12.9702 9.5787 12.9697H15.0658C15.1907 12.9656 15.3125 12.9302 15.4195 12.8669C15.4784 12.8326 15.532 12.7902 15.5788 12.7411L15.5982 12.7145L15.6293 12.6764C15.6458 12.6523 15.6602 12.6268 15.672 12.6002C15.6847 12.5771 15.6952 12.5528 15.7031 12.5278L17.277 7.36175V7.31603C17.2789 7.2983 17.2789 7.28042 17.277 7.26269V7.22841C17.2789 7.21704 17.2789 7.20548 17.277 7.19411C17.2788 7.17002 17.2788 7.14583 17.277 7.12172H17.7822C17.8261 7.12567 17.8704 7.12567 17.9143 7.12172H17.9493C17.9777 7.1134 18.0051 7.10188 18.0309 7.08744H18.0698L18.1397 7.0341L18.1708 7.01124L18.2252 6.94266V6.91982L18.2641 6.85504C18.2619 6.84245 18.2619 6.82955 18.2641 6.81695C18.262 6.81077 18.262 6.80408 18.2641 6.7979C18.2723 6.77556 18.2788 6.75263 18.2835 6.72932C18.2817 6.7218 18.2817 6.71397 18.2835 6.70645C18.2816 6.69511 18.2816 6.68352 18.2835 6.67217C18.2835 6.67217 18.3612 6.52359 18.3612 6.51597Z" fill="black"/>
<path d="M7.99703 4.58061C8.01767 4.59889 8.03208 4.62294 8.03832 4.64951C8.0446 4.67608 8.04238 4.70388 8.03202 4.72919L6.3105 10.3829C6.28882 10.4446 6.24447 10.4962 6.18614 10.5277C6.13868 10.5588 6.08375 10.5772 6.0268 10.581H0.555226C0.508498 10.5788 0.464229 10.5598 0.43087 10.5277C0.411025 10.5097 0.397098 10.4863 0.390867 10.4605C0.384637 10.4347 0.386391 10.4077 0.395897 10.3829L2.12131 4.72919C2.14119 4.66668 2.18415 4.6137 2.24178 4.58061C2.29002 4.55171 2.3447 4.53472 2.40111 4.53108H7.87268C7.91904 4.53151 7.9635 4.54922 7.99703 4.58061ZM5.14077 9.24377L6.17059 5.8683H3.28714L2.2612 9.24377H5.14077ZM13.2199 4.63775C13.2386 4.65902 13.2619 4.67589 13.2882 4.6871C13.3144 4.69831 13.3429 4.70358 13.3715 4.70252H14.0826C14.1097 4.70278 14.1364 4.69627 14.1602 4.6836C14.184 4.67093 14.2041 4.65253 14.2186 4.63013C14.2313 4.61263 14.2402 4.59282 14.2449 4.57188C14.2495 4.55094 14.2499 4.52929 14.2458 4.50822L14.1059 3.50244C14.0926 3.45589 14.0687 3.41291 14.036 3.37672C14.0173 3.35545 13.994 3.33858 13.9678 3.32737C13.9415 3.31615 13.913 3.31088 13.8844 3.31195H13.1733C13.1462 3.31169 13.1195 3.3182 13.0957 3.33087C13.0719 3.34353 13.0518 3.36193 13.0373 3.38434C13.0101 3.43767 12.9984 3.47196 13.0101 3.50244L13.1539 4.50822C13.1612 4.55719 13.1844 4.60257 13.2199 4.63775ZM15.4777 3.49482C15.4644 3.44827 15.4405 3.40528 15.4078 3.3691C15.3899 3.3479 15.3672 3.33104 15.3416 3.31981C15.316 3.30858 15.2881 3.30328 15.2601 3.30433H14.5451C14.5184 3.30359 14.4921 3.30992 14.4688 3.32266C14.4456 3.33541 14.4263 3.35409 14.4129 3.37672C14.3871 3.41051 14.3759 3.45297 14.3819 3.49482L14.5256 4.5006C14.5347 4.54905 14.5576 4.59399 14.5917 4.63013C14.6107 4.65098 14.6341 4.66757 14.6603 4.67874C14.6864 4.68992 14.7147 4.69543 14.7432 4.69489H15.4583C15.4849 4.69524 15.511 4.68874 15.5342 4.67603C15.5574 4.66332 15.5768 4.64487 15.5904 4.62251C15.6039 4.60547 15.6134 4.58567 15.6181 4.56457C15.6228 4.54348 15.6226 4.52162 15.6176 4.5006L15.4777 3.49482ZM12.5943 5.01873L12.5243 4.52346H9.07737C9.02325 4.52638 8.97089 4.54349 8.9258 4.57298C8.89719 4.58829 8.87227 4.60949 8.85281 4.63514C8.83338 4.6608 8.81983 4.69028 8.81313 4.72157L8.52555 5.66638C8.51407 5.68999 8.51014 5.71649 8.5143 5.74233C8.51848 5.76817 8.53052 5.79216 8.54886 5.81116C8.58163 5.84136 8.6244 5.85896 8.66934 5.86069H12.8585L11.8287 9.23616H7.65118C7.59731 9.23736 7.54485 9.25319 7.49963 9.28186C7.44467 9.31609 7.40453 9.369 7.38693 9.43044L7.09548 10.3753C7.08597 10.3995 7.08347 10.4259 7.08826 10.4514C7.09308 10.477 7.10497 10.5007 7.12266 10.52C7.15442 10.5523 7.19752 10.5713 7.24314 10.5734H12.7303C12.787 10.5686 12.8417 10.5503 12.8896 10.52C12.947 10.4884 12.99 10.4367 13.0101 10.3753L14.5878 5.20922H12.8119C12.7837 5.20976 12.7557 5.20463 12.7297 5.19415C12.7036 5.18366 12.68 5.16804 12.6603 5.14826C12.6282 5.11371 12.6055 5.07178 12.5943 5.02635V5.01873Z" fill="white"/>
</g>
<defs>
<clipPath id="clip0_212_1127">
<rect width="18.3627" height="10.016" fill="white" transform="translate(0 2.95374)"/>
</clipPath>
</defs>
</svg>
