<svg width="17" height="17" viewBox="0 0 17 17" fill="none" xmlns="http://www.w3.org/2000/svg">
<g clip-path="url(#clip0_212_1407)">
<path d="M10.61 2.92163H10.611C11.3989 2.91934 12.1688 3.1594 12.8151 3.61011C13.4613 4.06082 13.9531 4.70004 14.2233 5.44019C14.4934 6.18043 14.5289 6.98669 14.3248 7.7478C14.1207 8.50877 13.6868 9.18839 13.0826 9.69409L12.8785 9.86499L13.1207 9.97437C14.1133 10.4235 14.9674 11.1302 15.5944 12.0212L15.5953 12.0222C15.6399 12.0845 15.672 12.1555 15.6891 12.2302C15.7061 12.3048 15.708 12.3824 15.6949 12.4578C15.6818 12.5331 15.654 12.6052 15.6129 12.6697C15.5717 12.7342 15.5177 12.7901 15.4547 12.8337L15.4528 12.8347C15.3554 12.9043 15.2385 12.9415 15.1188 12.9412L15.0485 12.9373C14.9792 12.9285 14.9115 12.9072 14.8492 12.8748C14.7664 12.8316 14.6954 12.7692 14.6412 12.6931C14.186 12.0472 13.5818 11.5202 12.8805 11.156C12.267 10.8375 11.5946 10.6512 10.9069 10.6091L10.611 10.6003L10.4957 10.5886C10.3837 10.5661 10.2799 10.5113 10.1979 10.4294C10.0884 10.3199 10.0261 10.1712 10.026 10.0164C10.026 9.8614 10.0883 9.71284 10.1979 9.60327C10.3074 9.49371 10.456 9.4314 10.611 9.4314C11.3192 9.4313 11.9988 9.14999 12.4996 8.64917C13.0003 8.14831 13.2819 7.46871 13.2819 6.7605C13.2818 6.05225 13.0004 5.37264 12.4996 4.87183C11.9988 4.37101 11.3192 4.08969 10.611 4.0896C10.3667 4.08914 10.1232 4.12318 9.88831 4.19019L9.88635 4.19116C9.81233 4.21317 9.73463 4.21986 9.65784 4.21167C9.58078 4.20342 9.50599 4.17971 9.43811 4.14233C9.37026 4.10496 9.31049 4.05457 9.26233 3.9939C9.21418 3.93321 9.17882 3.86339 9.15784 3.78882C9.13689 3.71428 9.13081 3.63617 9.14026 3.55933C9.14973 3.48263 9.17424 3.40868 9.21252 3.34155C9.25096 3.27426 9.30245 3.21495 9.36389 3.16772C9.42522 3.1206 9.4952 3.086 9.56995 3.06616L9.57288 3.06519C9.91004 2.9692 10.2594 2.92108 10.61 2.92163ZM5.50842 2.91675C6.2958 2.91675 7.06443 3.15877 7.70959 3.61011C8.35484 4.06161 8.84603 4.7013 9.11584 5.44116C9.38552 6.18091 9.42145 6.98609 9.21838 7.74683C9.01523 8.50755 8.58264 9.18721 7.9801 9.69409L7.77795 9.86499L8.01917 9.97437C8.88775 10.3675 9.65063 10.9575 10.2477 11.696L10.4928 12.0212L10.4977 12.0281C10.5464 12.0905 10.582 12.1625 10.6022 12.239C10.6223 12.3154 10.6265 12.3952 10.6149 12.4734C10.6032 12.5516 10.5763 12.6268 10.5348 12.6941C10.4933 12.7614 10.4383 12.8194 10.3737 12.865C10.3089 12.9106 10.2353 12.9424 10.1578 12.9587C10.0806 12.9751 10.0009 12.9761 9.92346 12.9607C9.84583 12.9452 9.77192 12.9137 9.70667 12.8689C9.67411 12.8465 9.64408 12.821 9.61682 12.7927L9.54358 12.7L9.5387 12.6931C9.08442 12.0462 8.48131 11.5176 7.77991 11.1531C7.07842 10.7885 6.29899 10.5984 5.50842 10.5984C4.71807 10.5984 3.93923 10.7886 3.23792 11.1531C2.53641 11.5177 1.93245 12.0461 1.47815 12.6931V12.6941C1.42475 12.7707 1.35301 12.8336 1.27014 12.8767C1.18735 12.9197 1.09488 12.9414 1.00159 12.9412H1.00061C0.880878 12.9415 0.764042 12.9043 0.666626 12.8347H0.665649C0.539256 12.7455 0.453838 12.6092 0.427368 12.4568C0.400965 12.3044 0.436151 12.1478 0.525024 12.0212C1.15195 11.1302 2.00609 10.4235 2.99866 9.97437L3.23987 9.86499L3.03674 9.69409C2.43437 9.18726 2.00257 8.5074 1.79944 7.74683C1.59636 6.98604 1.63226 6.18094 1.90198 5.44116C2.17179 4.70132 2.66203 4.06161 3.30725 3.61011C3.95241 3.15866 4.721 2.91681 5.50842 2.91675ZM6.02991 4.14136C5.51184 4.03831 4.97495 4.09159 4.48694 4.2937C3.99889 4.49586 3.58121 4.83787 3.28772 5.2771C2.99438 5.71619 2.8376 6.23244 2.83752 6.7605C2.83752 7.46872 3.11906 8.1483 3.61975 8.64917C4.12058 9.15 4.80015 9.43132 5.50842 9.4314C6.03668 9.4314 6.55356 9.27469 6.9928 8.9812C7.43186 8.68773 7.77409 8.27087 7.9762 7.78296C8.17832 7.29499 8.23153 6.75803 8.12854 6.23999C8.02548 5.72188 7.77063 5.24536 7.39709 4.87183C7.02364 4.4985 6.54781 4.2444 6.02991 4.14136Z" fill="#4CAF4F" stroke="#4CAF4F" stroke-width="0.333867"/>
</g>
<defs>
<clipPath id="clip0_212_1407">
<rect width="16.0256" height="16.0256" fill="white"/>
</clipPath>
</defs>
</svg>
