<svg width="148" height="145" viewBox="0 0 148 145" fill="none" xmlns="http://www.w3.org/2000/svg">
<path d="M73.7066 127.201C105.277 127.201 130.87 125.707 130.87 123.864C130.87 122.021 105.277 120.527 73.7066 120.527C42.1358 120.527 16.5427 122.021 16.5427 123.864C16.5427 125.707 42.1358 127.201 73.7066 127.201Z" fill="#F5F5F5"/>
<path d="M102.968 49.3291L100.043 48.1498C100.043 48.1498 96.1841 55.1873 95.0785 55.544C93.5749 56.0275 90.4615 57.3719 88.6159 57.6078C88.3653 57.9026 87.9555 58.8195 87.9938 59.1527C90.4733 59.9812 95.9217 58.8815 97.0892 58.0147C99.7456 56.0482 102.968 49.3291 102.968 49.3291Z" fill="#E58A7B"/>
<path d="M103.867 47.7282C104.413 49.7419 101.459 53.7928 101.459 53.7928L97.5875 51.6228C97.5875 51.6228 98.3128 49.9571 99.1973 48.2618C100.615 45.5229 103.245 45.4315 103.867 47.7282Z" fill="#4CAF4F"/>
<path opacity="0.2" d="M103.867 47.7282C104.413 49.7419 101.459 53.7928 101.459 53.7928L97.5875 51.6228C97.5875 51.6228 98.3128 49.9571 99.1973 48.2618C100.615 45.5229 103.245 45.4315 103.867 47.7282Z" fill="black"/>
<path opacity="0.2" d="M99.1235 52.4895L100.648 53.3445L100.916 48.6656C100.029 49.3467 99.4036 51.3987 99.1235 52.4895Z" fill="black"/>
<path d="M101.32 46.2128C101.32 46.2128 98.3069 52.9171 100.064 65.4H111.937C112.125 63.578 111.5 54.6861 113.762 46.1007C112.459 45.8462 111.141 45.6778 109.817 45.5966C108.137 45.4992 106.453 45.4992 104.772 45.5966C103.608 45.7148 102.454 45.9208 101.32 46.2128Z" fill="#4CAF4F"/>
<path opacity="0.2" d="M101.32 46.2128C101.32 46.2128 98.3069 52.9171 100.064 65.4H111.937C112.125 63.578 111.5 54.6861 113.762 46.1007C112.459 45.8462 111.141 45.6778 109.817 45.5966C108.137 45.4992 106.453 45.4992 104.772 45.5966C103.608 45.7148 102.454 45.9208 101.32 46.2128Z" fill="black"/>
<path d="M98.5663 124.129C98.5486 124.448 103.051 124.704 108.62 124.704C114.189 124.704 118.724 124.448 118.741 124.129C118.759 123.811 114.26 123.557 108.688 123.557C103.115 123.557 98.587 123.814 98.5663 124.129Z" fill="#E8ECF1"/>
<path d="M106.491 115.763L104.386 116.578L106.2 121.264L108.305 120.449L106.491 115.763Z" fill="#E58A7B"/>
<path d="M115.881 121.862H113.661L112.848 116.723H115.068L115.881 121.862Z" fill="#E58A7B"/>
<path d="M113.508 121.606H116.002C116.046 121.606 116.088 121.621 116.12 121.649C116.153 121.677 116.175 121.716 116.182 121.759L116.504 123.731C116.51 123.781 116.506 123.831 116.492 123.879C116.478 123.927 116.453 123.971 116.42 124.009C116.387 124.046 116.346 124.076 116.301 124.096C116.255 124.117 116.206 124.127 116.156 124.126C115.286 124.112 114.867 124.059 113.771 124.059C113.095 124.059 111.707 124.129 110.769 124.129C109.832 124.129 109.77 123.21 110.156 123.124C111.89 122.75 112.562 122.24 113.14 121.744C113.242 121.655 113.373 121.606 113.508 121.606Z" fill="#263238"/>
<path d="M106.138 120.845L108.496 120.155C108.538 120.143 108.583 120.146 108.623 120.163C108.664 120.18 108.697 120.211 108.717 120.249L109.602 122.018C109.622 122.063 109.633 122.112 109.632 122.161C109.632 122.211 109.621 122.26 109.6 122.304C109.579 122.349 109.548 122.388 109.511 122.42C109.473 122.452 109.428 122.475 109.381 122.487C108.523 122.723 107.948 122.868 106.875 123.18C106.135 123.395 105.38 123.746 104.649 123.979C104.142 124.141 102.95 124.147 102.334 124.147C101.423 124.147 101.22 123.186 101.612 123.142C102.6 123.033 102.732 123.083 103.278 122.809C104.17 122.418 104.979 121.86 105.66 121.163C105.788 121.017 105.953 120.907 106.138 120.845Z" fill="#263238"/>
<path d="M88.9874 57.5959L86.5462 56.5729L85.5409 59.2794C86.5415 59.4318 87.5593 59.4318 88.5599 59.2794L88.9874 57.5959Z" fill="#E58A7B"/>
<path d="M84.7301 56.5022L84.6653 58.3006L85.5409 59.2736L86.5463 56.5671L84.7301 56.5022Z" fill="#E58A7B"/>
<path d="M106.78 116.161L104.668 116.976L105.603 119.4L107.716 118.584L106.78 116.161Z" fill="#CF6F64"/>
<path d="M115.068 116.723H112.848L113.269 119.374H115.489L115.068 116.723Z" fill="#CF6F64"/>
<path opacity="0.2" d="M99.6866 62.0243C99.7309 62.5579 99.781 63.1033 99.8459 63.6635L108.673 60.7978C110.051 60.3893 111.249 59.523 112.069 58.3419C112.105 57.5547 112.149 56.7262 112.217 55.8624C112.246 55.4438 112.282 55.0133 112.32 54.577C112.358 54.1406 112.411 53.6571 112.467 53.1913L99.6866 62.0243Z" fill="black"/>
<path d="M102.57 52.354L102.275 52.3186C102.449 50.8445 103.549 49.6829 104.708 49.7123V50.0072C103.693 49.9865 102.726 51.0332 102.57 52.354Z" fill="white"/>
<path d="M104.142 55.0752H104.091V54.7804C105.106 54.8187 106.058 53.7603 106.214 52.4424L106.509 52.4778C106.353 53.9195 105.288 55.0752 104.142 55.0752Z" fill="white"/>
<path d="M109.652 39.9153C109.236 41.5398 108.747 44.5146 109.817 45.5966C109.817 45.5966 109.068 47.2447 106.052 47.2447C103.295 47.2447 104.772 45.5966 104.772 45.5966C106.606 45.1661 106.639 43.8276 106.397 42.5599L109.652 39.9153Z" fill="#E58A7B"/>
<path d="M108.325 40.9944L106.4 42.5599C106.46 42.8512 106.494 43.1472 106.503 43.4444C107.066 44.0046 108.195 42.5864 108.31 41.8612C108.369 41.5756 108.374 41.2817 108.325 40.9944Z" fill="#CF6F64"/>
<path d="M103.089 39.8946C103.223 40.1268 103.403 40.3288 103.619 40.4881C103.835 40.6474 104.081 40.7605 104.342 40.8203C105.05 40.9766 105.403 40.325 105.209 39.6705C105.035 39.0809 104.454 38.2878 103.735 38.4234C103.581 38.4552 103.436 38.5234 103.314 38.6223C103.192 38.7213 103.095 38.8481 103.032 38.9921C102.968 39.1362 102.941 39.2933 102.951 39.4503C102.961 39.6074 103.008 39.7597 103.089 39.8946Z" fill="#CF6F64"/>
<path d="M104.259 34.6968C103.157 35.2009 102.768 39.5821 104.153 40.2307C105.539 40.8793 106.347 33.7386 104.259 34.6968Z" fill="#263238"/>
<path d="M109.988 37.4712C109.723 39.6706 109.693 40.9649 108.514 42.0911C108.148 42.4648 107.687 42.7303 107.18 42.8582C106.673 42.9861 106.141 42.9715 105.642 42.8159C105.143 42.6604 104.696 42.3699 104.352 41.9767C104.008 41.5834 103.779 41.1027 103.69 40.5875C103.334 38.6122 103.826 35.3484 106.031 34.4728C106.495 34.2684 107.004 34.1917 107.507 34.2506C108.01 34.3095 108.488 34.5018 108.892 34.8077C109.296 35.1136 109.61 35.5218 109.803 35.9901C109.995 36.4585 110.059 36.9698 109.988 37.4712Z" fill="#E58A7B"/>
<path d="M106.365 35.8349C107.998 35.4192 109.198 35.1362 108.767 36.4953C108.198 38.3115 107.514 40.0686 108.431 40.1482C108.991 40.1983 111.468 39.1488 111.153 38.0844C110.878 37.1587 112.037 36.9051 112.243 36.4364C113.007 34.7382 110.822 34.9622 111.211 33.9303C111.601 32.8984 109.443 31.2356 108.263 32.0641C106.344 33.4026 103.051 33.382 104.781 31.1796C106.023 29.6082 103.808 29.9295 103.808 29.9295C103.808 29.9295 105.147 30.7226 102.894 31.9491C100.512 33.2581 102.697 36.7754 106.365 35.8349Z" fill="#263238"/>
<path d="M110.855 39.8946C110.532 40.3612 110.048 40.6911 109.495 40.8203C108.767 40.9766 108.487 40.325 108.761 39.6705C109.006 39.0809 109.678 38.2878 110.374 38.4234C111.07 38.559 111.229 39.3167 110.855 39.8946Z" fill="#E58A7B"/>
<path d="M100.064 65.4C100.064 65.4 98.071 83.237 97.9147 90.0062C97.7555 97.0467 104.669 119.014 104.669 119.014L108.207 117.54C108.207 117.54 104.08 97.4683 104.669 90.5546C105.294 83.0159 107.877 65.4118 107.877 65.4118L100.064 65.4Z" fill="#4CAF4F"/>
<path opacity="0.2" d="M105.017 70.2971C103.428 73.5933 104.498 80.1119 105.359 83.9741C105.686 81.2469 106.076 78.2869 106.444 75.548C106.409 71.3378 106.082 68.0859 105.017 70.2971Z" fill="black"/>
<path d="M108.051 116.373C108.069 116.373 108.47 117.499 108.47 117.499L104.389 119.215L103.746 118.018L108.051 116.373Z" fill="#4CAF4F"/>
<path d="M104.277 65.4C104.277 65.4 105.801 82.3643 106.81 88.7178C107.918 95.6787 112.264 118.861 112.264 118.861H116.33C116.33 118.861 113.894 96.2418 113.434 89.3488C112.933 81.872 111.937 65.4 111.937 65.4H104.277Z" fill="#4CAF4F"/>
<path d="M116.391 117.802C116.409 117.802 116.527 118.938 116.527 118.938H112.058L111.739 117.634L116.391 117.802Z" fill="#4CAF4F"/>
<path opacity="0.2" d="M114.835 116.458C114.826 116.458 114.817 116.455 114.81 116.449C114.803 116.443 114.798 116.435 114.797 116.426C114.773 116.219 112.576 95.7878 112.164 89.5965C111.716 82.8803 110.813 67.9828 110.805 67.8324C110.804 67.8275 110.805 67.8226 110.806 67.818C110.808 67.8133 110.811 67.8091 110.814 67.8054C110.817 67.8018 110.821 67.799 110.826 67.797C110.83 67.7951 110.835 67.7941 110.84 67.7941C110.85 67.794 110.859 67.7977 110.866 67.8042C110.873 67.8108 110.878 67.8198 110.878 67.8294C110.878 67.9798 111.789 82.8656 112.237 89.5935C112.65 95.7849 114.847 116.202 114.867 116.423C114.868 116.428 114.868 116.433 114.867 116.437C114.865 116.442 114.863 116.447 114.86 116.451C114.857 116.454 114.853 116.458 114.849 116.46C114.845 116.462 114.84 116.464 114.835 116.464V116.458Z" fill="black"/>
<path d="M106.615 38.0844C106.615 38.2643 106.503 38.4087 106.385 38.4087C106.267 38.4087 106.182 38.2643 106.193 38.0844C106.205 37.9046 106.306 37.7601 106.423 37.7601C106.541 37.7601 106.627 37.9075 106.615 38.0844Z" fill="#263238"/>
<path d="M104.593 38.0844C104.593 38.2643 104.478 38.4087 104.363 38.4087C104.248 38.4087 104.159 38.2643 104.168 38.0844C104.177 37.9046 104.283 37.7601 104.401 37.7601C104.519 37.7601 104.604 37.9075 104.593 38.0844Z" fill="#263238"/>
<path d="M105.229 38.1758C104.983 38.725 104.666 39.2394 104.286 39.7059C104.581 40.0008 105.132 39.8651 105.132 39.8651L105.229 38.1758Z" fill="#DF5753"/>
<path d="M105.283 40.617C105.276 40.617 105.269 40.6156 105.263 40.6129C105.256 40.6102 105.251 40.6063 105.246 40.6013C105.241 40.5963 105.238 40.5904 105.235 40.584C105.233 40.5776 105.232 40.5707 105.232 40.5639C105.233 40.5496 105.239 40.5361 105.25 40.5262C105.26 40.5163 105.274 40.5108 105.288 40.5109C105.514 40.5124 105.737 40.4634 105.941 40.3675C106.145 40.2716 106.325 40.1312 106.468 39.9566C106.478 39.9477 106.491 39.9427 106.505 39.9427C106.518 39.9427 106.531 39.9477 106.541 39.9566C106.551 39.9665 106.556 39.9797 106.556 39.9934C106.556 40.0072 106.551 40.0204 106.541 40.0303C106.389 40.2159 106.196 40.3649 105.978 40.4664C105.761 40.5679 105.523 40.6194 105.283 40.617Z" fill="#263238"/>
<path d="M106.975 37.5419C106.961 37.5491 106.945 37.5529 106.929 37.5529C106.913 37.5529 106.898 37.5491 106.883 37.5419C106.773 37.4706 106.648 37.4262 106.517 37.4124C106.386 37.3986 106.254 37.4157 106.132 37.4623C106.12 37.4683 106.107 37.4718 106.093 37.4727C106.08 37.4735 106.066 37.4717 106.054 37.4673C106.041 37.4629 106.03 37.456 106.02 37.4471C106.01 37.4381 106.002 37.4272 105.996 37.4151C105.985 37.3889 105.985 37.3594 105.995 37.333C106.006 37.3065 106.026 37.2852 106.052 37.2736C106.206 37.2106 106.373 37.1858 106.539 37.2012C106.705 37.2166 106.864 37.2718 107.004 37.362C107.016 37.3697 107.025 37.3796 107.033 37.391C107.04 37.4025 107.045 37.4153 107.048 37.4287C107.05 37.4422 107.05 37.456 107.047 37.4693C107.044 37.4827 107.039 37.4953 107.031 37.5065C107.016 37.5234 106.996 37.5357 106.975 37.5419Z" fill="#263238"/>
<path d="M103.811 36.9522C103.796 36.9484 103.781 36.9402 103.77 36.9286C103.76 36.919 103.752 36.9076 103.747 36.8949C103.742 36.8822 103.739 36.8687 103.739 36.8549C103.739 36.8412 103.742 36.8276 103.747 36.815C103.752 36.8023 103.76 36.7908 103.77 36.7812C103.883 36.6545 104.024 36.5556 104.181 36.4921C104.339 36.4287 104.509 36.4025 104.678 36.4156C104.692 36.4177 104.705 36.4226 104.716 36.4299C104.728 36.4372 104.738 36.4468 104.746 36.4582C104.753 36.4695 104.759 36.4823 104.761 36.4958C104.764 36.5093 104.764 36.5231 104.761 36.5365C104.754 36.5638 104.738 36.5879 104.715 36.6042C104.693 36.6204 104.665 36.6278 104.637 36.625C104.503 36.6165 104.369 36.6387 104.245 36.6898C104.12 36.7408 104.01 36.8195 103.92 36.9198C103.907 36.9347 103.89 36.9456 103.87 36.9514C103.851 36.9571 103.831 36.9574 103.811 36.9522Z" fill="#263238"/>
<path d="M114.903 49.0017L111.837 48.1851C111.837 48.1851 108.829 55.5881 107.765 56.0687C106.32 56.7291 102.662 59.017 101.105 60.099C101.019 60.4675 101.087 61.4434 101.282 61.7117C103.935 61.2282 109.015 59.2735 110.076 58.2799C112.497 56.0127 114.903 49.0017 114.903 49.0017Z" fill="#E58A7B"/>
<path d="M112.762 121.995C112.613 122.007 112.464 121.966 112.341 121.88C112.303 121.846 112.274 121.802 112.258 121.753C112.242 121.705 112.239 121.653 112.249 121.603C112.251 121.571 112.261 121.541 112.279 121.515C112.297 121.489 112.321 121.469 112.349 121.455C112.597 121.329 113.29 121.768 113.37 121.818C113.378 121.823 113.385 121.831 113.389 121.841C113.393 121.851 113.393 121.861 113.39 121.871C113.388 121.881 113.383 121.891 113.375 121.899C113.368 121.906 113.359 121.912 113.349 121.915C113.157 121.963 112.96 121.989 112.762 121.995ZM112.467 121.535C112.445 121.53 112.422 121.53 112.4 121.535C112.388 121.541 112.379 121.55 112.373 121.561C112.366 121.572 112.363 121.584 112.364 121.597C112.356 121.631 112.358 121.667 112.368 121.701C112.378 121.734 112.397 121.765 112.423 121.789C112.538 121.892 112.827 121.903 113.207 121.83C112.981 121.681 112.726 121.58 112.459 121.535H112.467Z" fill="#4CAF4F"/>
<path d="M113.334 121.915C113.327 121.918 113.318 121.918 113.311 121.915C113.089 121.791 112.674 121.305 112.736 121.057C112.745 121.018 112.767 120.983 112.799 120.958C112.83 120.933 112.869 120.919 112.91 120.919C112.949 120.913 112.989 120.917 113.028 120.928C113.066 120.94 113.101 120.96 113.131 120.987C113.375 121.196 113.39 121.839 113.39 121.871C113.392 121.881 113.39 121.891 113.385 121.899C113.38 121.908 113.373 121.914 113.364 121.918C113.354 121.92 113.344 121.919 113.334 121.915ZM112.939 121.016H112.918C112.851 121.016 112.842 121.054 112.839 121.069C112.804 121.214 113.066 121.582 113.284 121.756C113.283 121.507 113.206 121.264 113.063 121.06C113.029 121.03 112.985 121.015 112.939 121.016Z" fill="#4CAF4F"/>
<path d="M104.935 121.626C104.754 121.689 104.558 121.689 104.377 121.626C104.336 121.604 104.302 121.572 104.276 121.533C104.251 121.494 104.236 121.449 104.233 121.402C104.229 121.373 104.233 121.343 104.244 121.316C104.255 121.289 104.272 121.265 104.295 121.246C104.531 121.034 105.495 121.246 105.604 121.287C105.614 121.29 105.623 121.296 105.63 121.305C105.636 121.313 105.64 121.324 105.639 121.334C105.64 121.345 105.637 121.356 105.631 121.366C105.625 121.375 105.617 121.383 105.607 121.387C105.39 121.485 105.165 121.565 104.935 121.626ZM104.454 121.275C104.42 121.282 104.389 121.297 104.363 121.32C104.353 121.327 104.346 121.336 104.342 121.347C104.338 121.358 104.337 121.37 104.339 121.382C104.341 121.413 104.351 121.442 104.367 121.469C104.384 121.495 104.406 121.517 104.433 121.532C104.59 121.614 104.952 121.55 105.421 121.352C105.105 121.272 104.778 121.247 104.454 121.275Z" fill="#4CAF4F"/>
<path d="M105.598 121.387H105.574C105.279 121.334 104.69 120.995 104.672 120.742C104.672 120.683 104.699 120.6 104.84 120.553C104.888 120.536 104.939 120.529 104.989 120.532C105.04 120.535 105.09 120.548 105.135 120.571C105.453 120.727 105.621 121.293 105.63 121.32C105.632 121.329 105.632 121.338 105.63 121.347C105.627 121.355 105.622 121.363 105.616 121.37C105.611 121.377 105.605 121.383 105.598 121.387ZM104.899 120.642H104.87C104.778 120.674 104.778 120.712 104.778 120.724C104.778 120.877 105.206 121.158 105.504 121.252C105.435 121.015 105.29 120.808 105.091 120.662C105.032 120.632 104.963 120.625 104.899 120.642Z" fill="#4CAF4F"/>
<path d="M101.355 59.925L98.2803 61.3402L97.9236 62.2247L99.0587 62.9883C99.0587 62.9883 101.181 62.7583 101.786 61.3933L101.355 59.925Z" fill="#E58A7B"/>
<path d="M101.485 61.7618C101.416 61.171 101.221 60.6019 100.913 60.0931L101.4 59.7275C101.766 60.3137 101.999 60.9728 102.084 61.6587L101.485 61.7618Z" fill="#263238"/>
<path d="M102.01 60.3437C102.075 60.446 102.107 60.5658 102.101 60.6868C102.096 60.8079 102.053 60.9243 101.979 61.0202C101.905 61.1162 101.803 61.187 101.688 61.2231C101.572 61.2591 101.448 61.2587 101.333 61.2218C101.217 61.1849 101.116 61.1133 101.043 61.0169C100.969 60.9204 100.928 60.8037 100.923 60.6826C100.918 60.5615 100.951 60.442 101.017 60.3402C101.083 60.2384 101.178 60.1594 101.29 60.1138C101.416 60.0496 101.563 60.0377 101.697 60.0808C101.832 60.1238 101.944 60.2183 102.01 60.3437Z" fill="#263238"/>
<path d="M96.2018 62.4841L96.6116 62.8969L99.3712 61.7176L98.2803 61.3402L96.2018 62.4841Z" fill="#E58A7B"/>
<path opacity="0.2" d="M108.051 116.373C108.069 116.373 108.47 117.499 108.47 117.499L104.389 119.215L103.746 118.018L108.051 116.373Z" fill="black"/>
<path opacity="0.2" d="M116.391 117.802C116.409 117.802 116.527 118.938 116.527 118.938H112.058L111.739 117.634L116.391 117.802Z" fill="black"/>
<path d="M115.702 48.1527C116.512 50.7678 113.343 54.344 113.343 54.344L108.965 52.5574C109.484 51.0459 110.082 49.5628 110.757 48.1144C112.102 45.2162 114.882 45.514 115.702 48.1527Z" fill="#4CAF4F"/>
<path opacity="0.2" d="M115.702 48.1527C116.512 50.7678 113.343 54.344 113.343 54.344L108.965 52.5574C109.484 51.0459 110.082 49.5628 110.757 48.1144C112.102 45.2162 114.882 45.514 115.702 48.1527Z" fill="black"/>
<path d="M72.197 21.9515H70.3131V22.2552H72.197V21.9515Z" fill="#4CAF4F"/>
<path d="M96.5846 33.9705L96.3566 39.0305L96.6599 39.0442L96.8879 33.9842L96.5846 33.9705Z" fill="#4CAF4F"/>
<path d="M95.9983 23.3136H61.2089L57.9717 95.7583H92.7612L95.9983 23.3136Z" fill="#4CAF4F"/>
<path opacity="0.56" d="M94.9606 24.3101H60.1711L56.934 96.7547H91.7234L94.9606 24.3101Z" fill="#FAFAFA"/>
<path opacity="0.07" d="M93.9228 25.3037H59.1333L55.8932 97.7484H90.6827L93.9228 25.3037Z" fill="#4CAF4F"/>
<path d="M89.9633 56.9001H60.2684L60.0208 62.4429H89.7156L89.9633 56.9001Z" fill="white"/>
<path d="M76.5989 52.8552H60.4483L60.3392 55.3347H76.4898L76.5989 52.8552Z" fill="#4CAF4F"/>
<path d="M89.2941 71.8596H59.5992L59.3516 77.4023H89.0464L89.2941 71.8596Z" fill="white"/>
<path opacity="0.47" d="M83.8486 84.8881H63.88L63.5823 91.5305H83.5509L83.8486 84.8881Z" fill="#4CAF4F"/>
<path d="M82.513 92.5623H62.5445C62.5358 92.5646 62.5266 92.5646 62.5179 92.5623C62.515 92.5537 62.515 92.5444 62.5179 92.5358L62.8128 85.8904C62.8127 85.8859 62.8137 85.8814 62.8155 85.8773C62.8173 85.8731 62.8199 85.8694 62.8233 85.8664C62.8266 85.8633 62.8305 85.861 62.8348 85.8596C62.8391 85.8581 62.8436 85.8576 62.8481 85.858H82.8167C82.8204 85.8562 82.8244 85.8552 82.8285 85.8552C82.8326 85.8552 82.8366 85.8562 82.8403 85.858C82.8424 85.8616 82.8435 85.8656 82.8435 85.8698C82.8435 85.8739 82.8424 85.878 82.8403 85.8816L82.5514 92.5417C82.5478 92.5486 82.5423 92.5543 82.5354 92.558C82.5286 92.5617 82.5208 92.5632 82.513 92.5623ZM62.5798 92.4916H82.4777L82.7725 85.917H62.8747L62.5798 92.4916Z" fill="white"/>
<path d="M73.111 67.8146H59.779L59.6699 70.297H72.999L73.111 67.8146Z" fill="#4CAF4F"/>
<path d="M83.4682 38.9954C83.392 40.6085 82.8184 42.1585 81.8261 43.4325C81.0915 44.3949 80.1462 45.1762 79.0627 45.7164C77.9792 46.2566 76.7864 46.5413 75.5758 46.5489C74.5974 46.5563 73.6279 46.3634 72.727 45.982C71.826 45.6006 71.0127 45.0387 70.3371 44.3311C69.6615 43.6235 69.138 42.785 68.7987 41.8674C68.4594 40.9497 68.3116 39.9723 68.3643 38.9954C68.468 36.9682 69.3422 35.0572 70.8082 33.6531C72.2741 32.2491 74.2211 31.4581 76.2509 31.442C77.23 31.4328 78.2005 31.6246 79.1026 32.0053C80.0046 32.3861 80.819 32.9478 81.4954 33.6557C82.1718 34.3636 82.6959 35.2027 83.0352 36.1211C83.3745 37.0395 83.5219 38.0178 83.4682 38.9954Z" fill="white"/>
<path d="M84.1788 33.0222C84.1595 33.4512 84.007 33.8634 83.7424 34.2015C83.5467 34.4571 83.2951 34.6646 83.0069 34.8082C82.7187 34.9518 82.4016 35.0277 82.0796 35.03C81.7677 35.0319 81.46 34.9574 81.1835 34.813C80.907 34.6685 80.6701 34.4586 80.4935 34.2015C80.2595 33.8541 80.1437 33.4406 80.1633 33.0222C80.1918 32.484 80.4245 31.9769 80.814 31.6044C81.2035 31.2318 81.7205 31.0219 82.2595 31.0174C82.5195 31.015 82.7772 31.0659 83.0168 31.167C83.2564 31.268 83.4728 31.417 83.6526 31.6048C83.8324 31.7927 83.9719 32.0153 84.0624 32.2591C84.1529 32.5029 84.1925 32.7626 84.1788 33.0222Z" fill="#4CAF4F"/>
<path d="M63.4673 59.6715C63.4532 59.9091 63.3495 60.1324 63.1771 60.2966C63.0048 60.4607 62.7766 60.5534 62.5386 60.556C62.4237 60.5573 62.3097 60.5351 62.2038 60.4907C62.0978 60.4463 62.002 60.3806 61.9225 60.2977C61.8429 60.2148 61.7811 60.1164 61.7411 60.0087C61.701 59.901 61.6835 59.7863 61.6895 59.6715C61.7023 59.4334 61.8056 59.2092 61.9782 59.0448C62.1509 58.8804 62.3798 58.7882 62.6182 58.787C62.733 58.7861 62.8468 58.8086 62.9526 58.8532C63.0583 58.8977 63.1539 58.9634 63.2334 59.0462C63.3129 59.1291 63.3747 59.2272 63.4149 59.3347C63.4551 59.4422 63.4729 59.5568 63.4673 59.6715Z" fill="#263238"/>
<path d="M67.4415 59.6715C67.4281 59.9093 67.3246 60.1331 67.1521 60.2974C66.9796 60.4617 66.751 60.5541 66.5128 60.556C66.3982 60.557 66.2845 60.5345 66.1789 60.4898C66.0733 60.4452 65.9779 60.3795 65.8986 60.2966C65.8194 60.2138 65.7579 60.1156 65.718 60.0081C65.6781 59.9006 65.6607 59.786 65.6667 59.6715C65.6794 59.434 65.7823 59.2102 65.9543 59.0459C66.1263 58.8815 66.3546 58.789 66.5924 58.787C66.7074 58.7857 66.8213 58.8079 66.9273 58.8523C67.0333 58.8967 67.129 58.9624 67.2086 59.0453C67.2882 59.1282 67.3499 59.2266 67.39 59.3343C67.4301 59.442 67.4476 59.5568 67.4415 59.6715Z" fill="#263238"/>
<path d="M71.4188 59.6715C71.4054 59.9093 71.3019 60.1331 71.1294 60.2974C70.9569 60.4617 70.7283 60.5541 70.4901 60.556C70.3753 60.5569 70.2616 60.5344 70.1558 60.4899C70.05 60.4453 69.9544 60.3796 69.8749 60.2968C69.7954 60.214 69.7337 60.1158 69.6935 60.0083C69.6533 59.9008 69.6354 59.7862 69.641 59.6715C69.6545 59.4337 69.758 59.2099 69.9305 59.0457C70.103 58.8814 70.3315 58.7889 70.5697 58.787C70.6846 58.7857 70.7986 58.8079 70.9046 58.8523C71.0106 58.8967 71.1063 58.9624 71.1859 59.0453C71.2655 59.1282 71.3272 59.2266 71.3673 59.3343C71.4073 59.442 71.4249 59.5568 71.4188 59.6715Z" fill="#263238"/>
<path d="M62.798 74.631C62.7838 74.8685 62.6801 75.0919 62.5078 75.2561C62.3354 75.4202 62.1073 75.5129 61.8693 75.5154C61.7545 75.5164 61.6407 75.4939 61.5349 75.4493C61.4292 75.4047 61.3336 75.339 61.2541 75.2562C61.1746 75.1734 61.1128 75.0752 61.0726 74.9677C61.0324 74.8602 61.0146 74.7456 61.0202 74.631C61.0337 74.3931 61.1371 74.1694 61.3096 74.0051C61.4821 73.8408 61.7107 73.7484 61.9489 73.7465C62.0637 73.7455 62.1774 73.7681 62.2832 73.8126C62.389 73.8572 62.4846 73.9229 62.5641 74.0057C62.6436 74.0885 62.7053 74.1867 62.7455 74.2942C62.7858 74.4017 62.8036 74.5163 62.798 74.631Z" fill="#263238"/>
<path d="M66.7724 74.631C66.7589 74.8683 66.6558 75.0916 66.484 75.2558C66.3121 75.42 66.0843 75.5128 65.8466 75.5154C65.7317 75.5168 65.6177 75.4946 65.5117 75.4502C65.4058 75.4057 65.31 75.3401 65.2304 75.2572C65.1509 75.1743 65.0891 75.0759 65.0491 74.9682C65.009 74.8605 64.9914 74.7457 64.9975 74.631C65.011 74.3931 65.1145 74.1694 65.287 74.0051C65.4595 73.8408 65.688 73.7484 65.9262 73.7465C66.0409 73.7455 66.1545 73.768 66.2601 73.8126C66.3658 73.8573 66.4612 73.923 66.5404 74.0059C66.6197 74.0887 66.6812 74.1869 66.721 74.2944C66.7609 74.4019 66.7784 74.5165 66.7724 74.631Z" fill="#263238"/>
<path d="M70.7584 74.631C70.7449 74.8688 70.6414 75.0926 70.4689 75.2569C70.2965 75.4212 70.0679 75.5136 69.8297 75.5155C69.715 75.516 69.6015 75.4932 69.4959 75.4485C69.3903 75.4038 69.2949 75.338 69.2155 75.2553C69.1361 75.1726 69.0743 75.0746 69.0339 74.9673C68.9936 74.86 68.9754 74.7455 68.9806 74.631C68.9948 74.3934 69.0985 74.1701 69.2708 74.0059C69.4432 73.8418 69.6713 73.7491 69.9093 73.7465C70.0242 73.7452 70.1382 73.7674 70.2442 73.8118C70.3501 73.8562 70.4459 73.9219 70.5255 74.0048C70.6051 74.0877 70.6668 74.1861 70.7069 74.2938C70.7469 74.4015 70.7645 74.5162 70.7584 74.631Z" fill="#263238"/>
<path d="M74.7267 74.631C74.7125 74.8685 74.6088 75.0919 74.4365 75.2561C74.2641 75.4202 74.036 75.5129 73.798 75.5154C73.6833 75.516 73.5697 75.4932 73.4641 75.4484C73.3586 75.4037 73.2632 75.338 73.1837 75.2553C73.1043 75.1726 73.0426 75.0746 73.0022 74.9672C72.9618 74.8599 72.9437 74.7455 72.9489 74.631C72.963 74.3934 73.0667 74.17 73.2391 74.0059C73.4114 73.8417 73.6396 73.7491 73.8776 73.7465C73.9924 73.7455 74.1061 73.7681 74.2119 73.8126C74.3177 73.8572 74.4133 73.9229 74.4928 74.0057C74.5723 74.0885 74.634 74.1867 74.6742 74.2942C74.7144 74.4017 74.7323 74.5163 74.7267 74.631Z" fill="#263238"/>
<path d="M78.7187 74.631C78.7045 74.8685 78.6008 75.0919 78.4285 75.2561C78.2561 75.4202 78.028 75.5129 77.79 75.5154C77.6751 75.5168 77.5611 75.4946 77.4551 75.4502C77.3491 75.4057 77.2534 75.3401 77.1738 75.2572C77.0942 75.1743 77.0325 75.0759 76.9924 74.9682C76.9524 74.8605 76.9348 74.7457 76.9409 74.631C76.9543 74.3931 77.0578 74.1694 77.2303 74.0051C77.4028 73.8408 77.6314 73.7484 77.8696 73.7465C77.9844 73.7455 78.0981 73.7681 78.2039 73.8126C78.3097 73.8572 78.4053 73.9229 78.4848 74.0057C78.5642 74.0885 78.626 74.1867 78.6662 74.2942C78.7064 74.4017 78.7243 74.5163 78.7187 74.631Z" fill="#263238"/>
<path d="M78.1153 38.6019C79.3493 37.3952 79.4148 35.4609 78.2616 34.2817C77.1083 33.1024 75.1731 33.1246 73.9391 34.3314C72.7051 35.5381 72.6396 37.4724 73.7928 38.6517C74.9461 39.8309 76.8813 39.8087 78.1153 38.6019Z" fill="#4CAF4F"/>
<path d="M81.8261 43.4325C81.0915 44.3948 80.1462 45.1761 79.0628 45.7163C77.9793 46.2565 76.7864 46.5413 75.5758 46.5488C74.4018 46.5587 73.2434 46.2797 72.2028 45.7362C71.1621 45.1927 70.2712 44.4016 69.6085 43.4325C71.0414 42.0055 73.3086 41.0739 75.8205 41.0739C78.3324 41.0739 80.52 42.0055 81.8261 43.4325Z" fill="#4CAF4F"/>
<path opacity="0.1" d="M78.1153 38.6019C79.3493 37.3952 79.4148 35.4609 78.2616 34.2817C77.1083 33.1024 75.1731 33.1246 73.9391 34.3314C72.7051 35.5381 72.6396 37.4724 73.7928 38.6517C74.9461 39.8309 76.8813 39.8087 78.1153 38.6019Z" fill="white"/>
<path opacity="0.1" d="M81.8261 43.4325C81.0915 44.3948 80.1462 45.1761 79.0628 45.7163C77.9793 46.2565 76.7864 46.5413 75.5758 46.5488C74.4018 46.5587 73.2434 46.2797 72.2028 45.7362C71.1621 45.1927 70.2712 44.4016 69.6085 43.4325C71.0414 42.0055 73.3086 41.0739 75.8205 41.0739C78.3324 41.0739 80.52 42.0055 81.8261 43.4325Z" fill="white"/>
<path d="M38.4483 63.7784C38.1682 64.3916 37.8734 65.0668 37.6169 65.7213C37.3604 66.3758 37.098 67.051 36.871 67.7232C36.4075 69.0479 36.0545 70.4088 35.8155 71.7918L35.7507 72.2252C35.7445 72.2995 35.7515 72.3744 35.7713 72.4463C35.8409 72.6906 35.9505 72.9218 36.0956 73.1303C36.4742 73.67 36.9134 74.1646 37.4046 74.6044C37.9225 75.0861 38.4658 75.5398 39.0321 75.9636C39.5982 76.3999 40.1937 76.8244 40.7804 77.2254L40.2291 78.2603C38.8281 77.6498 37.4984 76.8876 36.2637 75.9871C35.6049 75.5067 35.0105 74.944 34.4947 74.3125C34.189 73.9367 33.9506 73.5107 33.7901 73.0536C33.6967 72.7681 33.649 72.4696 33.6486 72.1691C33.6486 72.0984 33.6486 71.9952 33.6486 71.9451V71.8006L33.678 71.5058C33.8471 69.9697 34.17 68.4546 34.6421 66.9832C34.8721 66.2579 35.1168 65.5356 35.3969 64.8309C35.677 64.1263 35.9659 63.4364 36.3226 62.72L38.4483 63.7784Z" fill="#E58A7B"/>
<path d="M40.3647 77.0427L42.4491 75.9872L41.9095 78.275C41.9095 78.275 40.4796 78.676 39.8163 77.9802L40.3647 77.0427Z" fill="#E58A7B"/>
<path d="M44.3566 76.3616L43.8023 78.2544L41.9095 78.275L42.4491 75.9872L44.3566 76.3616Z" fill="#E58A7B"/>
<path d="M47.299 52.7401C47.4105 53.1487 47.5657 53.5441 47.7619 53.9194C47.7045 53.9844 47.6307 54.0327 47.5482 54.0592C47.4657 54.0857 47.3775 54.0893 47.2931 54.0698L47.299 52.7401Z" fill="#DF5753"/>
<path d="M47.2371 52.7578C47.3592 52.7578 47.4582 52.606 47.4582 52.4188C47.4582 52.2315 47.3592 52.0797 47.2371 52.0797C47.115 52.0797 47.016 52.2315 47.016 52.4188C47.016 52.606 47.115 52.7578 47.2371 52.7578Z" fill="#263238"/>
<path d="M47.1722 52.0915L47.6204 51.9647C47.6204 51.9647 47.4022 52.3126 47.1722 52.0915Z" fill="#263238"/>
<path d="M41.541 54.9042C41.8093 56.2751 42.0776 58.79 41.1165 59.7069C41.1165 59.7069 41.4938 61.0985 44.0441 61.0985C46.8479 61.0985 45.3826 59.7069 45.3826 59.7069C43.8524 59.3413 43.8908 58.2062 44.1591 57.139L41.541 54.9042Z" fill="#E58A7B"/>
<path d="M40.7951 51.7791C40.9367 54.0699 40.9484 55.0428 42.1042 56.2191C43.8466 57.9881 46.6297 57.3159 47.1752 55.0398C47.6675 52.9761 47.355 49.5797 45.1114 48.6686C44.6189 48.4658 44.0828 48.3919 43.5538 48.454C43.0248 48.5161 42.5204 48.7121 42.0882 49.0235C41.6561 49.3349 41.3106 49.7514 41.0843 50.2336C40.858 50.7157 40.7585 51.2477 40.7951 51.7791Z" fill="#E58A7B"/>
<path d="M41.0221 49.2022C39.8723 49.6209 38.3392 49.3084 38.9406 52.8551C39.5775 56.6112 38.5986 57.8465 38.5986 57.8465C38.5986 57.8465 42.9591 58.7752 47.411 57.7905C47.411 57.7905 46.0518 55.4142 46.4322 53.663C46.9186 51.4518 46.5354 50.6351 46.5354 50.6351C46.5354 50.6351 42.6378 48.6126 41.0221 49.2022Z" fill="#263238"/>
<path d="M45.8867 52.973C45.8879 53.4086 46.0126 53.8349 46.2464 54.2025C46.5589 54.6801 46.9275 54.4973 47.0188 53.9902C47.1014 53.545 47.0395 52.7578 46.6415 52.4512C46.2435 52.1446 45.8926 52.4453 45.8867 52.973Z" fill="#E58A7B"/>
<path d="M40.0226 49.5885C39.6924 48.6598 41.2668 47.2299 44.5983 47.8196C47.9299 48.4092 48.0743 51.1835 48.0743 51.1835L47.4021 50.3816L47.4316 51.2248L44.0087 51.8823L40.0226 49.5885Z" fill="#263238"/>
<path d="M40.3057 59.8631C40.286 59.7285 40.3197 59.5915 40.3995 59.4814C40.4794 59.3712 40.5991 59.2966 40.7332 59.2735C41.7709 59.1025 44.1295 58.7546 45.3147 58.9197C46.1992 59.0435 46.4292 59.5565 46.4675 59.9781C46.4735 60.0519 46.4636 60.1262 46.4386 60.1959C46.4135 60.2656 46.3738 60.3291 46.3221 60.3821C46.2704 60.4352 46.208 60.4766 46.139 60.5035C46.07 60.5304 45.996 60.5423 45.9221 60.5383L40.798 60.3083C40.6772 60.3022 40.5622 60.2546 40.4725 60.1734C40.3828 60.0923 40.3238 59.9827 40.3057 59.8631Z" fill="#4CAF4F"/>
<path opacity="0.6" d="M40.3057 59.8631C40.286 59.7285 40.3197 59.5915 40.3995 59.4814C40.4794 59.3712 40.5991 59.2966 40.7332 59.2735C41.7709 59.1025 44.1295 58.7546 45.3147 58.9197C46.1992 59.0435 46.4292 59.5565 46.4675 59.9781C46.4735 60.0519 46.4636 60.1262 46.4386 60.1959C46.4135 60.2656 46.3738 60.3291 46.3221 60.3821C46.2704 60.4352 46.208 60.4766 46.139 60.5035C46.07 60.5304 45.996 60.5423 45.9221 60.5383L40.798 60.3083C40.6772 60.3022 40.5622 60.2546 40.4725 60.1734C40.3828 60.0923 40.3238 59.9827 40.3057 59.8631Z" fill="black"/>
<path d="M43.2687 111.369L45.1703 112.69L48.3515 108.377L46.4499 107.059L43.2687 111.369Z" fill="#E58A7B"/>
<path d="M38.8345 111.284L40.8422 112.428L43.6578 107.867L41.6501 106.723L38.8345 111.284Z" fill="#E58A7B"/>
<path d="M48.3486 108.377L46.7094 110.6L44.8077 109.282L46.447 107.059L48.3486 108.377Z" fill="#CF6F64"/>
<path d="M41.6472 106.723L43.6579 107.87L42.2074 110.219L40.1967 109.073L41.6472 106.723Z" fill="#CF6F64"/>
<path d="M44.8725 74.2625C44.8725 74.2625 52.2962 83.6173 50.9017 92.5653C49.7784 99.7914 43.2627 109.577 43.2627 109.577L40.1995 108.055C42.3587 103.729 44.2012 99.2515 45.7128 94.6585C46.1789 93.2325 46.3149 91.7193 46.1106 90.2331C45.9063 88.7468 45.367 87.3264 44.5334 86.0791C40.7715 80.5865 34.7452 83.8561 38.7991 74.2625H44.8725Z" fill="#4CAF4F"/>
<path opacity="0.6" d="M44.8725 74.2625C44.8725 74.2625 52.2962 83.6173 50.9017 92.5653C49.7784 99.7914 43.2627 109.577 43.2627 109.577L40.1995 108.055C42.3587 103.729 44.2012 99.2515 45.7128 94.6585C46.1789 93.2325 46.3149 91.7193 46.1106 90.2331C45.9063 88.7468 45.367 87.3264 44.5334 86.0791C40.7715 80.5865 34.7452 83.8561 38.7991 74.2625H44.8725Z" fill="black"/>
<path opacity="0.4" d="M48.5136 80.271L47.4346 79.1979C47.4346 79.2834 49.5249 92.1879 50.1116 95.8143C50.4578 94.7549 50.7229 93.6708 50.9047 92.5712C51.5946 88.1812 50.1529 83.6969 48.5136 80.271Z" fill="black"/>
<path d="M48.1864 74.2625C48.1864 74.2625 57.1255 86.0201 57.3791 93.0694C57.5884 98.9659 47.6498 110.39 47.6498 110.39L44.7605 108.521C44.7605 108.521 50.5774 100.408 52.0427 93.7799C51.4767 87.2112 39.5067 74.2625 39.5067 74.2625H48.1864Z" fill="#4CAF4F"/>
<path opacity="0.6" d="M48.1864 74.2625C48.1864 74.2625 57.1255 86.0201 57.3791 93.0694C57.5884 98.9659 47.6498 110.39 47.6498 110.39L44.7605 108.521C44.7605 108.521 50.5774 100.408 52.0427 93.7799C51.4767 87.2112 39.5067 74.2625 39.5067 74.2625H48.1864Z" fill="black"/>
<path d="M37.1275 60.2317C36.1723 60.4587 35.2554 63.9318 35.2554 63.9318L38.9908 66.426C38.9908 66.426 40.235 63.6782 39.7986 62.4754C39.3476 61.2223 38.3275 59.9457 37.1275 60.2317Z" fill="#4CAF4F"/>
<path opacity="0.2" d="M37.8587 62.4695L37.5992 65.4973L38.9879 66.429C39.3713 65.5658 39.6552 64.6617 39.834 63.7343L37.8587 62.4695Z" fill="black"/>
<path d="M49.292 60.2995C49.292 60.2995 50.3946 60.6857 48.1864 74.2595H38.7932C38.9524 70.4267 38.9554 68.0681 37.1274 60.2317C38.4427 59.9606 39.7758 59.7852 41.1164 59.7069C42.5367 59.605 43.9623 59.605 45.3826 59.7069C47.2164 59.8749 49.292 60.2995 49.292 60.2995Z" fill="#4CAF4F"/>
<path d="M50.2472 62.4694C50.4595 63.059 50.6836 63.6929 50.9194 64.3032C51.1553 64.9135 51.3794 65.5415 51.6182 66.1606L52.3405 68.0121L52.5233 68.475L52.6176 68.7049L52.6619 68.8199C52.6619 68.8406 52.6619 68.8406 52.6619 68.8376C52.608 68.7617 52.5374 68.6991 52.4555 68.6548C52.3388 68.5862 52.2074 68.5467 52.0722 68.5398C51.9599 68.5363 51.8482 68.5575 51.7449 68.6018C51.6093 68.6637 51.6093 68.6902 51.6123 68.6873C51.6368 68.6676 51.6586 68.6448 51.6771 68.6195C51.8403 68.4052 51.9816 68.175 52.0987 67.9325C52.2373 67.6613 52.37 67.3723 52.5027 67.0805C52.7621 66.4908 53.0009 65.8805 53.2397 65.2643C53.4785 64.6481 53.7055 64.0261 53.9267 63.3981L54.5989 61.5171L55.7339 61.8119C55.5099 63.1563 55.2209 64.4653 54.8731 65.798C54.705 66.4613 54.5075 67.1188 54.2834 67.7821C54.1714 68.1153 54.0475 68.4455 53.906 68.7846C53.7585 69.1525 53.5769 69.5059 53.3635 69.84C53.2851 69.9525 53.1984 70.0589 53.1041 70.1584C52.9535 70.3211 52.7708 70.4506 52.5675 70.5388C52.3871 70.6162 52.1917 70.6525 51.9956 70.6449C51.7758 70.6367 51.5617 70.5728 51.3735 70.4592C51.1514 70.3206 50.967 70.1291 50.8369 69.9019C50.7927 69.8253 50.7543 69.7486 50.7278 69.6926L50.6718 69.5806L50.5597 69.3506L50.3357 68.8936C50.0409 68.2804 49.746 67.6613 49.4895 67.0392C49.233 66.4171 48.9618 65.7862 48.7082 65.1523C48.4547 64.5184 48.2277 63.8845 48.0125 63.2005L50.2472 62.4694Z" fill="#E58A7B"/>
<path d="M49.292 60.2995C50.4212 60.5678 51.6919 63.9052 51.6919 63.9052L48.3338 66.7621C48.3338 66.7621 46.161 63.124 46.6003 61.924C47.0572 60.6739 47.8179 59.9487 49.292 60.2995Z" fill="#4CAF4F"/>
<path d="M55.1325 60.4616L56.3118 59.4769L57.1314 60.7535L56.527 61.8178C56.527 61.8178 55.5659 62.7023 54.7168 62.2512C54.582 61.9483 54.5497 61.6097 54.6247 61.2868C54.6998 60.9638 54.878 60.6741 55.1325 60.4616Z" fill="#E58A7B"/>
<path d="M58.4405 59.4799L58.352 59.8012L56.4858 60.1137L56.303 59.4769L58.4405 59.4799Z" fill="#E58A7B"/>
<path d="M47.8797 110.541L44.5128 108.365L45.1172 107.315L48.8998 109.642L47.8797 110.541Z" fill="#4CAF4F"/>
<path d="M42.1601 112.274C41.8647 112.238 41.5809 112.138 41.3287 111.98C41.3183 111.976 41.3093 111.969 41.3029 111.96C41.2965 111.951 41.2931 111.94 41.2931 111.929C41.2931 111.918 41.2965 111.908 41.3029 111.899C41.3093 111.89 41.3183 111.883 41.3287 111.879C41.4201 111.85 42.2132 111.605 42.4432 111.794C42.469 111.815 42.4887 111.843 42.5001 111.875C42.5115 111.907 42.5142 111.941 42.508 111.974C42.5039 112.027 42.4863 112.078 42.4569 112.122C42.4275 112.167 42.3873 112.203 42.34 112.227C42.2848 112.257 42.223 112.274 42.1601 112.274ZM41.4968 111.95C41.8653 112.139 42.1601 112.207 42.3016 112.136C42.3325 112.119 42.3584 112.094 42.377 112.064C42.3955 112.034 42.4062 112 42.4078 111.965C42.4078 111.918 42.4078 111.897 42.3812 111.885C42.2574 111.785 41.8152 111.862 41.4909 111.95H41.4968Z" fill="#263238"/>
<path d="M41.3494 112C41.3338 112 41.319 111.994 41.3081 111.982C41.3037 111.974 41.3014 111.965 41.3014 111.956C41.3014 111.947 41.3037 111.938 41.3081 111.929C41.3081 111.903 41.4997 111.263 41.8004 111.119C41.8388 111.101 41.8806 111.092 41.9228 111.092C41.965 111.092 42.0067 111.101 42.0451 111.119C42.0865 111.132 42.1224 111.158 42.147 111.194C42.1715 111.23 42.1834 111.273 42.1808 111.316C42.1601 111.582 41.6206 111.947 41.3729 112.009L41.3494 112ZM41.9213 111.195C41.8926 111.196 41.8645 111.203 41.8388 111.216C41.656 111.304 41.5056 111.649 41.4319 111.859C41.6914 111.75 42.0481 111.461 42.0599 111.298C42.0599 111.272 42.0599 111.24 41.9921 111.21C41.97 111.198 41.9461 111.19 41.9213 111.186V111.195Z" fill="#263238"/>
<path d="M46.3673 113.548C46.0341 113.548 45.5713 113.121 45.3177 112.858C45.3112 112.849 45.3077 112.838 45.3077 112.827C45.3077 112.816 45.3112 112.805 45.3177 112.796C45.3235 112.787 45.3318 112.779 45.3417 112.774C45.3515 112.769 45.3626 112.766 45.3737 112.767C45.4916 112.767 46.5147 112.92 46.6592 113.209C46.6745 113.235 46.6825 113.264 46.6825 113.295C46.6825 113.325 46.6745 113.354 46.6592 113.38C46.6375 113.425 46.6048 113.464 46.564 113.493C46.5233 113.522 46.4759 113.54 46.4262 113.545L46.3673 113.548ZM45.5123 112.899C45.8838 113.259 46.211 113.46 46.3968 113.436C46.4293 113.432 46.4603 113.42 46.487 113.401C46.5137 113.382 46.5354 113.356 46.5501 113.327C46.5567 113.317 46.5602 113.305 46.5602 113.293C46.5602 113.281 46.5567 113.269 46.5501 113.259C46.4734 113.1 45.928 112.964 45.5123 112.899Z" fill="#263238"/>
<path d="M45.5448 112.885C45.4786 112.887 45.4125 112.882 45.3473 112.87C45.3382 112.869 45.3296 112.865 45.3224 112.859C45.3151 112.853 45.3095 112.846 45.306 112.837C45.3016 112.829 45.2993 112.819 45.2993 112.809C45.2993 112.8 45.3016 112.79 45.306 112.781C45.3237 112.761 45.7217 112.28 46.0991 112.248C46.2059 112.24 46.3118 112.273 46.3939 112.342C46.5089 112.442 46.503 112.531 46.4735 112.587C46.3998 112.787 45.8898 112.885 45.5448 112.885ZM45.4682 112.776C45.7984 112.793 46.3261 112.684 46.3939 112.54C46.3939 112.54 46.4175 112.493 46.3409 112.428C46.3104 112.401 46.2747 112.381 46.2362 112.369C46.1976 112.357 46.157 112.353 46.1168 112.357C45.8626 112.428 45.6362 112.575 45.4682 112.779V112.776Z" fill="#263238"/>
<path d="M41.429 111.682L38.9289 110.974C38.8858 110.961 38.8394 110.964 38.7986 110.983C38.7578 111.003 38.7254 111.036 38.7077 111.077L37.8645 112.973C37.8447 113.022 37.8354 113.074 37.8373 113.126C37.8391 113.179 37.852 113.23 37.8751 113.277C37.8982 113.324 37.931 113.366 37.9714 113.399C38.0117 113.433 38.0587 113.457 38.1092 113.471C38.9937 113.701 39.4183 113.766 40.518 114.082C41.1961 114.27 42.1631 114.621 43.0977 114.887C44.0323 115.152 44.3448 114.241 43.9822 114.046C42.3429 113.179 42.2132 112.572 41.7651 111.923C41.6848 111.806 41.5659 111.72 41.429 111.682Z" fill="#4CAF4F"/>
<path d="M45.3855 112.513L43.251 111.039C43.2148 111.013 43.1702 111.001 43.1256 111.005C43.081 111.009 43.0396 111.03 43.0092 111.063L41.594 112.584C41.5595 112.623 41.5338 112.669 41.5186 112.72C41.5033 112.77 41.4989 112.822 41.5056 112.874C41.5123 112.926 41.5299 112.976 41.5574 113.02C41.5848 113.065 41.6215 113.103 41.6648 113.132C42.4166 113.636 42.8058 113.84 43.7463 114.491C44.3359 114.892 45.4769 115.783 46.2729 116.337C47.0689 116.891 47.6615 116.131 47.3785 115.83C46.1108 114.477 45.8336 113.628 45.6243 112.858C45.588 112.719 45.5034 112.596 45.3855 112.513Z" fill="#4CAF4F"/>
<path d="M43.655 109.771L39.8075 107.858L40.2055 106.814L44.3154 108.831L43.655 109.771Z" fill="#4CAF4F"/>
<path d="M38.6518 73.7082L38.3275 74.5573C38.295 74.6222 38.3717 74.69 38.4808 74.69H48.2336C48.3191 74.69 48.3899 74.6487 48.3958 74.5956L48.4783 73.7524C48.4783 73.6964 48.4105 73.6463 48.3191 73.6463H38.8051C38.7764 73.6436 38.7476 73.6478 38.7209 73.6586C38.6942 73.6694 38.6705 73.6864 38.6518 73.7082Z" fill="#4CAF4F"/>
<path opacity="0.4" d="M38.6518 73.7082L38.3275 74.5573C38.295 74.6222 38.3717 74.69 38.4808 74.69H48.2336C48.3191 74.69 48.3899 74.6487 48.3958 74.5956L48.4783 73.7524C48.4783 73.6964 48.4105 73.6463 48.3191 73.6463H38.8051C38.7764 73.6436 38.7476 73.6478 38.7209 73.6586C38.6942 73.6694 38.6705 73.6864 38.6518 73.7082Z" fill="white"/>
<path d="M40.1877 74.7725H39.9312C39.8811 74.7725 39.8428 74.746 39.8457 74.7135L39.9666 73.6197C39.9666 73.5903 40.0138 73.5637 40.0639 73.5637H40.3204C40.3705 73.5637 40.4089 73.5903 40.4059 73.6197L40.285 74.7135C40.2821 74.746 40.2379 74.7725 40.1877 74.7725Z" fill="#4CAF4F"/>
<path d="M46.2022 74.7725H45.9487C45.8986 74.7725 45.8602 74.746 45.8632 74.7135L45.9811 73.6197C45.9811 73.5903 46.0312 73.5637 46.0814 73.5637H46.3349C46.385 73.5637 46.4263 73.5903 46.4204 73.6197L46.3025 74.7135C46.2877 74.746 46.2553 74.7725 46.2022 74.7725Z" fill="#4CAF4F"/>
<path d="M39.9637 124.701C44.3259 124.701 47.8621 124.445 47.8621 124.129C47.8621 123.813 44.3259 123.557 39.9637 123.557C35.6015 123.557 32.0653 123.813 32.0653 124.129C32.0653 124.445 35.6015 124.701 39.9637 124.701Z" fill="#F5F5F5"/>
<path d="M44.7753 123.322C43.3778 122.915 41.827 122.393 40.8895 121.847C40.8629 121.83 40.8335 121.821 40.8069 121.806V115.479H43.6343C43.8489 115.466 44.0506 115.372 44.1981 115.216C44.3455 115.059 44.4277 114.852 44.4277 114.637C44.4277 114.422 44.3455 114.216 44.1981 114.059C44.0506 113.903 43.8489 113.808 43.6343 113.796H40.8217V84.9558H39.1235V113.796H36.3138C36.1991 113.789 36.0841 113.806 35.9761 113.845C35.8681 113.884 35.7692 113.945 35.6856 114.024C35.602 114.103 35.5353 114.198 35.4898 114.303C35.4442 114.409 35.4207 114.523 35.4207 114.637C35.4207 114.752 35.4442 114.866 35.4898 114.972C35.5353 115.077 35.602 115.172 35.6856 115.251C35.7692 115.33 35.8681 115.391 35.9761 115.43C36.0841 115.469 36.1991 115.486 36.3138 115.479H39.1235V121.797C39.0969 121.797 39.0704 121.821 39.0439 121.839C38.0916 122.393 36.5526 122.915 35.1551 123.313C35.0607 123.341 34.9797 123.403 34.9266 123.486C34.8736 123.569 34.852 123.668 34.8659 123.766C34.8798 123.864 34.9282 123.953 35.0024 124.018C35.0765 124.083 35.1715 124.119 35.2701 124.121H44.6603C44.7545 124.114 44.8437 124.076 44.913 124.011C44.9822 123.947 45.0273 123.861 45.0408 123.768C45.0542 123.674 45.0352 123.579 44.9869 123.498C44.9386 123.416 44.8639 123.354 44.7753 123.322Z" fill="#E0E0E0"/>
<path d="M45.2086 82.0193H34.7246C33.8811 82.0193 33.1974 82.703 33.1974 83.5465V86.6628C33.1974 87.5062 33.8811 88.19 34.7246 88.19H45.2086C46.0521 88.19 46.7358 87.5062 46.7358 86.6628V83.5465C46.7358 82.703 46.0521 82.0193 45.2086 82.0193Z" fill="#4CAF4F"/>
<path d="M34.6273 88.193V88.7296C34.6273 89.1718 35.1079 89.5315 35.6975 89.5315H44.2475C44.8371 89.5315 45.3177 89.1718 45.3177 88.7296V88.193H34.6273Z" fill="#4CAF4F"/>
<path opacity="0.3" d="M34.6273 88.193V88.7296C34.6273 89.1718 35.1079 89.5315 35.6975 89.5315H44.2475C44.8371 89.5315 45.3177 89.1718 45.3177 88.7296V88.193H34.6273Z" fill="white"/>
</svg>
