<svg width="22" height="19" viewBox="0 0 22 19" fill="none" xmlns="http://www.w3.org/2000/svg">
<path d="M21.7013 12.6869C21.7013 16.0059 19.0107 18.6965 15.6917 18.6965L6.6773 18.6965C5.75535 18.6965 5.00797 17.9491 5.00797 17.0272L5.00797 5.67573C5.00797 3.83184 6.50274 2.33707 8.34663 2.33707L20.032 2.33707C20.9539 2.33707 21.7013 3.08446 21.7013 4.0064L21.7013 12.6869Z" fill="#E8F5E9"/>
<path d="M8.98647 6.34711C8.88229 6.34711 8.79761 6.26256 8.79761 6.15825V5.8373C8.79761 5.73312 8.88216 5.64844 8.98647 5.64844C9.09064 5.64844 9.17533 5.73299 9.17533 5.8373V6.15825C9.17533 6.26256 9.09064 6.34711 8.98647 6.34711Z" fill="#103E13"/>
<path d="M8.1924 6.34711C8.08823 6.34711 8.00354 6.26256 8.00354 6.15825V5.8373C8.00354 5.73312 8.08809 5.64844 8.1924 5.64844C8.29657 5.64844 8.38126 5.73299 8.38126 5.8373V6.15825C8.38113 6.26256 8.29671 6.34711 8.1924 6.34711Z" fill="#103E13"/>
<path d="M7.39845 6.34711C7.29428 6.34711 7.20959 6.26256 7.20959 6.15825V5.8373C7.20959 5.73312 7.29415 5.64844 7.39845 5.64844C7.50263 5.64844 7.58731 5.73299 7.58731 5.8373V6.15825C7.58731 6.26256 7.50276 6.34711 7.39845 6.34711Z" fill="#103E13"/>
<path d="M8.98647 7.6596C8.88229 7.6596 8.79761 7.57505 8.79761 7.47074V7.14992C8.79761 7.04575 8.88216 6.96106 8.98647 6.96106C9.09064 6.96106 9.17533 7.04561 9.17533 7.14992V7.47074C9.17533 7.57505 9.09064 7.6596 8.98647 7.6596Z" fill="#103E13"/>
<path d="M8.1924 7.6596C8.08823 7.6596 8.00354 7.57505 8.00354 7.47074V7.14992C8.00354 7.04575 8.08809 6.96106 8.1924 6.96106C8.29657 6.96106 8.38126 7.04561 8.38126 7.14992V7.47074C8.38113 7.57505 8.29671 7.6596 8.1924 7.6596Z" fill="#103E13"/>
<path d="M7.39845 7.6596C7.29428 7.6596 7.20959 7.57505 7.20959 7.47074V7.14992C7.20959 7.04575 7.29415 6.96106 7.39845 6.96106C7.50263 6.96106 7.58731 7.04561 7.58731 7.14992V7.47074C7.58731 7.57505 7.50276 7.6596 7.39845 7.6596Z" fill="#103E13"/>
<path d="M8.98647 8.97211C8.88229 8.97211 8.79761 8.88756 8.79761 8.78325V8.4623C8.79761 8.35812 8.88216 8.27344 8.98647 8.27344C9.09064 8.27344 9.17533 8.35799 9.17533 8.4623V8.78325C9.17533 8.88756 9.09064 8.97211 8.98647 8.97211Z" fill="#103E13"/>
<path d="M8.1924 8.97211C8.08823 8.97211 8.00354 8.88756 8.00354 8.78325V8.4623C8.00354 8.35812 8.08809 8.27344 8.1924 8.27344C8.29657 8.27344 8.38126 8.35799 8.38126 8.4623V8.78325C8.38113 8.88756 8.29671 8.97211 8.1924 8.97211Z" fill="#103E13"/>
<path d="M7.39845 8.97211C7.29428 8.97211 7.20959 8.88756 7.20959 8.78325V8.4623C7.20959 8.35812 7.29415 8.27344 7.39845 8.27344C7.50263 8.27344 7.58731 8.35799 7.58731 8.4623V8.78325C7.58731 8.88756 7.50276 8.97211 7.39845 8.97211Z" fill="#103E13"/>
<path d="M8.98647 10.2844C8.88229 10.2844 8.79761 10.1998 8.79761 10.0955V9.77455C8.79761 9.67038 8.88216 9.58569 8.98647 9.58569C9.09064 9.58569 9.17533 9.67024 9.17533 9.77455V10.0955C9.17533 10.1998 9.09064 10.2844 8.98647 10.2844Z" fill="#103E13"/>
<path d="M8.1924 10.2844C8.08823 10.2844 8.00354 10.1998 8.00354 10.0955V9.77455C8.00354 9.67038 8.08809 9.58569 8.1924 9.58569C8.29657 9.58569 8.38126 9.67024 8.38126 9.77455V10.0955C8.38113 10.1998 8.29671 10.2844 8.1924 10.2844Z" fill="#103E13"/>
<path d="M7.39845 10.2844C7.29428 10.2844 7.20959 10.1998 7.20959 10.0955V9.77455C7.20959 9.67038 7.29415 9.58569 7.39845 9.58569C7.50263 9.58569 7.58731 9.67024 7.58731 9.77455V10.0955C7.58731 10.1998 7.50276 10.2844 7.39845 10.2844Z" fill="#103E13"/>
<path d="M8.98647 11.5969C8.88229 11.5969 8.79761 11.5123 8.79761 11.408V11.0872C8.79761 10.983 8.88216 10.8983 8.98647 10.8983C9.09064 10.8983 9.17533 10.9829 9.17533 11.0872V11.408C9.17533 11.5122 9.09064 11.5969 8.98647 11.5969Z" fill="#103E13"/>
<path d="M8.1924 11.5969C8.08823 11.5969 8.00354 11.5123 8.00354 11.408V11.0872C8.00354 10.983 8.08809 10.8983 8.1924 10.8983C8.29657 10.8983 8.38126 10.9829 8.38126 11.0872V11.408C8.38113 11.5122 8.29671 11.5969 8.1924 11.5969Z" fill="#103E13"/>
<path d="M7.39845 11.5969C7.29428 11.5969 7.20959 11.5123 7.20959 11.408L7.20973 11.0872C7.20973 10.983 7.29428 10.8983 7.39859 10.8983C7.50276 10.8983 7.58745 10.9829 7.58745 11.0872V11.408C7.58731 11.5122 7.50276 11.5969 7.39845 11.5969Z" fill="#103E13"/>
<path d="M2.00333 12.9029C2.00333 13.0071 2.08788 13.0918 2.19219 13.0918H13.6931C13.7973 13.0918 13.882 13.0073 13.882 12.9029C13.882 12.7988 13.7975 12.7141 13.6931 12.7141H13.344V7.29166C13.344 7.18749 13.2595 7.1028 13.1552 7.1028L10.0717 7.10293V3.19365C10.0717 3.12754 10.0372 3.06643 9.98079 3.03218C9.92456 2.99781 9.85423 2.9957 9.79575 3.02613L6.29004 4.85137C6.22748 4.8839 6.1885 4.94843 6.1885 5.01889V8.43358H2.79573C2.69156 8.43358 2.60687 8.51813 2.60687 8.62244V12.7141H2.19177C2.0876 12.714 2.00317 12.7985 2.00317 12.9028L2.00333 12.9029ZM10.0717 9.96328H12.9665V12.7142L10.0717 12.7141V9.96328ZM10.0717 8.65088H12.9665V9.5857L10.0717 9.58557V8.65088ZM10.0717 7.48045H12.9665V8.27344H10.0717V7.48045ZM6.56602 5.13357L9.69389 3.50495V12.7139H6.56602V5.13357ZM3.91819 11.2057C3.91819 10.8137 4.22874 10.4948 4.61053 10.4948C4.99233 10.4948 5.30301 10.8136 5.30301 11.2057V12.7142H3.91819V11.2057ZM2.98458 8.81123H6.18844V12.7141H5.68072V11.2056C5.68072 10.6055 5.20082 10.1171 4.61053 10.1171C4.02052 10.1171 3.54061 10.6053 3.54061 11.2056V12.7141H2.98458V8.81123Z" fill="#103E13"/>
</svg>
