<svg width="22" height="19" viewBox="0 0 22 19" fill="none" xmlns="http://www.w3.org/2000/svg">
<path d="M21.7013 12.6869C21.7013 16.0059 19.0107 18.6965 15.6917 18.6965L6.6773 18.6965C5.75535 18.6965 5.00797 17.9491 5.00797 17.0272L5.00797 5.67573C5.00797 3.83184 6.50274 2.33707 8.34663 2.33707L20.032 2.33707C20.9539 2.33707 21.7013 3.08446 21.7013 4.0064L21.7013 12.6869Z" fill="#E8F5E9"/>
<path d="M8.00945 3.33862C6.81713 3.33862 5.84648 4.31815 5.84648 5.51555C5.84648 6.27303 6.23545 6.94186 6.82282 7.33172C6.1134 7.56893 5.49955 8.01226 5.04932 8.59224C4.8004 8.40077 4.52226 8.24679 4.22242 8.13645C4.67711 7.7989 4.97423 7.25666 4.97423 6.64723C4.97423 5.6317 4.15289 4.80035 3.14351 4.80035C2.13413 4.80035 1.31279 5.6317 1.31279 6.64723C1.31279 7.25701 1.61016 7.7995 2.06523 8.13705C0.860443 8.58163 0 9.74561 0 11.1155V12.0777C0.000123313 12.1511 0.029466 12.2214 0.081493 12.273C0.13352 12.3248 0.203919 12.3536 0.277275 12.3534H4.49901C4.50924 12.3545 4.51947 12.3551 4.5297 12.355H11.4894C11.4997 12.3551 11.51 12.3545 11.5201 12.3534H15.7422C15.894 12.3528 16.0169 12.2296 16.0172 12.0777V11.1155C16.0172 9.74561 15.1583 8.58164 13.9541 8.13693C14.4092 7.7995 14.7066 7.25688 14.7066 6.64711C14.7066 5.63157 13.8852 4.80023 12.8758 4.80023C11.8665 4.80023 11.0451 5.63157 11.0451 6.64711C11.0451 7.25654 11.3424 7.79887 11.7971 8.13633C11.4966 8.24692 11.2183 8.4014 10.9691 8.59334C10.519 8.01301 9.90605 7.56906 9.19666 7.33172C9.78387 6.94186 10.173 6.27303 10.173 5.51555C10.173 4.31815 9.20184 3.33862 8.00952 3.33862H8.00945ZM8.00945 3.89096C8.9012 3.89096 9.62009 4.61467 9.62009 5.51555C9.62009 6.40938 8.91241 7.12606 8.03053 7.13755C8.02351 7.13755 8.0166 7.13656 8.00945 7.13656C8.0023 7.13656 7.99552 7.13755 7.98837 7.13755C7.1065 7.12621 6.39929 6.40941 6.39929 5.51555C6.39929 4.61455 7.11758 3.89096 8.00933 3.89096H8.00945ZM3.14354 5.35266C3.8511 5.35266 4.42193 5.92693 4.42193 6.6472C4.42193 7.36265 3.85848 7.93446 3.15759 7.94222C3.1529 7.94222 3.14834 7.94173 3.14353 7.94173C3.13885 7.94173 3.13428 7.94222 3.12948 7.94222C2.42858 7.93445 1.86514 7.36252 1.86514 6.6472C1.86514 5.92696 2.43597 5.35266 3.14352 5.35266H3.14354ZM12.8757 5.35266C13.5832 5.35266 14.1541 5.92693 14.1541 6.6472C14.1541 7.36265 13.5906 7.93446 12.8897 7.94222C12.885 7.94222 12.8805 7.94173 12.8757 7.94173C12.871 7.94173 12.8664 7.94222 12.8616 7.94222C12.1607 7.93445 11.5973 7.36252 11.5973 6.6472C11.5973 5.92696 12.1681 5.35266 12.8757 5.35266H12.8757ZM7.9883 7.68985C7.99533 7.68998 8.00224 7.69084 8.00939 7.69084C8.01642 7.69084 8.02332 7.68985 8.03047 7.68985C9.79905 7.70119 11.2144 9.12876 11.2144 10.9158L11.2143 11.8025H4.80471V10.9158C4.80471 9.1286 6.2197 7.70121 7.98805 7.68985H7.9883ZM3.1224 8.49519C3.12942 8.49531 3.13633 8.49617 3.14348 8.49617C3.15063 8.49617 3.15741 8.49519 3.16456 8.49519C3.76275 8.5 4.30868 8.70626 4.74338 9.05134C4.43233 9.60172 4.25244 10.237 4.25244 10.916V11.8005H0.552112V11.1154C0.552112 9.66308 1.69402 8.50652 3.12233 8.49506L3.1224 8.49519ZM12.8545 8.49519C12.8617 8.49531 12.8685 8.49617 12.8756 8.49617C12.8828 8.49617 12.8895 8.49519 12.8967 8.49519C14.325 8.50653 15.4669 9.66323 15.4669 11.1156V11.8005H11.7647L11.7646 10.916C11.7646 10.2374 11.5852 9.60257 11.2747 9.05232C11.7096 8.70675 12.2559 8.49998 12.8546 8.49519H12.8545Z" fill="#103E13"/>
</svg>
