<svg width="17" height="17" viewBox="0 0 17 17" fill="none" xmlns="http://www.w3.org/2000/svg">
<path d="M13.3546 14.0224V12.6869C13.3546 11.9785 13.0732 11.2992 12.5723 10.7983C12.0714 10.2974 11.3921 10.016 10.6837 10.016H10.016C9.83887 10.016 9.66903 9.94562 9.5438 9.8204C9.41858 9.69517 9.34823 9.52533 9.34823 9.34824V6.00957C9.34823 5.65538 9.20753 5.3157 8.95708 5.06525C8.70663 4.81481 8.36695 4.67411 8.01276 4.67411C7.65858 4.67411 7.31889 4.81481 7.06845 5.06525C6.818 5.3157 6.6773 5.65538 6.6773 6.00957V12.0192L5.07474 9.88242C4.95034 9.71656 4.78904 9.58194 4.6036 9.48923C4.41817 9.39651 4.21369 9.34824 4.00636 9.34824H3.71657C3.13898 9.34824 2.6709 9.81632 2.6709 10.3939C2.6709 10.5835 2.72231 10.7698 2.8198 10.9321L4.6741 14.0224M8.01276 2.67091V2.00317V2.67091ZM12.0192 6.67731H12.6869H12.0192ZM3.33863 6.67731H4.00636H3.33863ZM4.90313 3.56767L4.43104 3.09559L4.90313 3.56767ZM11.1224 3.56767L11.5945 3.09559L11.1224 3.56767Z" fill="#4CAF4F"/>
<path d="M13.3546 14.0224V12.6869C13.3546 11.9785 13.0732 11.2992 12.5723 10.7983C12.0714 10.2974 11.3921 10.016 10.6837 10.016H10.016C9.83887 10.016 9.66903 9.94562 9.5438 9.8204C9.41858 9.69517 9.34823 9.52533 9.34823 9.34824V6.00957C9.34823 5.65538 9.20753 5.3157 8.95708 5.06526C8.70663 4.81481 8.36695 4.67411 8.01276 4.67411V4.67411C7.65858 4.67411 7.31889 4.81481 7.06845 5.06526C6.818 5.3157 6.6773 5.65538 6.6773 6.00957V12.0192L5.07474 9.88242C4.95034 9.71656 4.78904 9.58194 4.6036 9.48923C4.41817 9.39651 4.21369 9.34824 4.00636 9.34824H3.71657C3.13898 9.34824 2.6709 9.81632 2.6709 10.3939C2.6709 10.5835 2.72231 10.7698 2.8198 10.9321L4.6741 14.0224M8.01276 2.67091V2.00317M12.0192 6.67731H12.6869M3.33863 6.67731H4.00636M4.90313 3.56767L4.43104 3.09559M11.1224 3.56767L11.5945 3.09559" stroke="#4CAF4F" stroke-width="0.667733" stroke-linecap="round" stroke-linejoin="round"/>
</svg>
