<svg width="17" height="17" viewBox="0 0 17 17" fill="none" xmlns="http://www.w3.org/2000/svg">
<path d="M3.25549 2.67102H12.7701C13.3236 2.67102 13.8544 2.89102 14.2457 3.28235C14.637 3.67367 14.8571 4.20453 14.8571 4.75793V11.2677C14.8571 11.8211 14.637 12.352 14.2457 12.7433C13.8544 13.1346 13.3236 13.3546 12.7701 13.3546H3.25549C2.70208 13.3546 2.17123 13.1346 1.77991 12.7433C1.38859 12.352 1.16858 11.8211 1.16858 11.2677V4.75793C1.16858 4.20452 1.38858 3.67367 1.77991 3.28235C2.17123 2.89102 2.70208 2.67102 3.25549 2.67102ZM1.83655 11.2677C1.83655 11.644 1.98549 12.0055 2.25159 12.2716C2.51769 12.5377 2.87917 12.6866 3.25549 12.6866H12.7701C13.1465 12.6866 13.5079 12.5377 13.774 12.2716C14.0401 12.0055 14.1891 11.644 14.1891 11.2677V6.34387H1.83655V11.2677ZM10.5172 9.68176H12.0192C12.1077 9.68176 12.1929 9.71778 12.2555 9.7804C12.3178 9.84291 12.3531 9.92746 12.3531 10.0157C12.3531 10.1042 12.318 10.1895 12.2555 10.2521C12.1929 10.3147 12.1077 10.3497 12.0192 10.3497H10.5172C10.4287 10.3497 10.3435 10.3146 10.2809 10.2521C10.2183 10.1895 10.1832 10.1043 10.1832 10.0157C10.1833 9.92736 10.2184 9.84293 10.2809 9.7804C10.3435 9.71778 10.4287 9.68176 10.5172 9.68176ZM3.25549 3.33899C2.87917 3.33899 2.51769 3.48793 2.25159 3.75403C1.98549 4.02013 1.83655 4.38161 1.83655 4.75793V5.6759H14.1891V4.75793C14.1891 4.38163 14.0401 4.02013 13.774 3.75403C13.5079 3.48793 13.1465 3.33899 12.7701 3.33899H3.25549Z" fill="#4CAF4F" stroke="#4CAF4F" stroke-width="0.333867"/>
</svg>
